<svg xmlns="http://www.w3.org/2000/svg">
<defs>
<font id="ChocolateBarDemo" horiz-adv-x="1050" >
  <font-face 
    font-family="Chocolate Bar Demo"
    font-weight="400"
    font-stretch="normal"
    units-per-em="2048"
    panose-1="2 0 5 0 0 0 0 0 0 0"
    ascent="1638"
    descent="-410"
    x-height="1383"
    cap-height="1370"
    bbox="-157 -439 2447 1821"
    underline-thickness="150"
    underline-position="-292"
    unicode-range="U+001D-2265"
  />
<missing-glyph horiz-adv-x="1547" 
d="M100 -282v1710h1335v-1710h-1335zM135 -242h1264v1640h-1264v-1640zM725 471h3l11 -1v-18q2 -70 2 -126l-7 -2h-6q-3 71 -3 138v3v6zM1224 471h1l14 -1q-1 -9 -1 -13q0 -55 3 -131l-11 -2h-4q-2 58 -3 129q1 12 1 18zM790 466h4q0 -2 7 -12q-4 -18 -4 -30v-18
q0 -44 15 -58h1q21 0 35 117h2q12 -4 13 -4q-6 -58 -6 -86q0 -31 12 -31q2 -16 2 -20h-8q-13 0 -20 32h-1q-11 -28 -27 -28h-5q-20 0 -27 61q-1 4 -1 22v11q0 25 8 44zM1094 466h6q12 0 28 -28q12 -22 12 -44v-9q0 -37 -40 -58q-7 -3 -14 -3h-7q-30 0 -35 43v9q0 50 40 88
q8 2 10 2zM249 462h9q28 -5 28 -40q0 -34 -33 -49q-12 -5 -27 -7v-37h-1q-5 0 -14 3v34h-5l-5 1q0 11 5 19h5v0q0 41 -6 41q-6 7 -6 11q18 24 50 24zM1059 376v-8q0 -21 25 -24q22 0 37 27q5 8 5 18v3q0 27 -26 53q-3 0 -3 2q-17 0 -35 -50q-3 -11 -3 -21zM224 435
q1 -35 1 -47q1 0 1 -2q29 6 37 17q8 10 8 18q0 18 -15 21h-6q-26 -3 -26 -7zM404 438q19 0 28 -49q-1 0 -15 -4q-6 33 -13 33q-17 -9 -20 -75q1 -14 1 -15q-10 -2 -15 -2q-13 69 -13 87q12 2 15 2v-1q0 -4 3 -19h1q10 43 28 43zM537 432q20 0 33 -32q2 -9 2 -17v-3
q0 -36 -35 -53q-5 -1 -9 -1q-27 4 -27 38q0 50 25 65q2 1 11 3zM614 432q19 0 36 -89q1 0 1 -7q-8 -7 -12 -7q-15 62 -23 80q-9 -13 -18 -70q-1 0 -5 -10h-7q-7 0 -9 57q-2 14 -2 23q7 2 14 2q3 -17 3 -20h1q7 41 21 41zM1185 432q16 0 35 -96q-9 -7 -13 -7q-15 66 -24 80
q-6 -12 -19 -74q-3 -6 -4 -6h-6q-7 0 -10 80q6 2 15 2q1 -19 1 -22h1q7 43 24 43zM472 430q18 -5 18 -17v-1q0 -2 -10 -8h-1q-4 7 -13 7q-13 0 -16 -11q0 -5 29 -6q20 -11 20 -34q0 -25 -20 -34l-8 -2h-5q-24 0 -34 23v1q1 3 9 11h1q12 -15 28 -15q14 4 14 16q-4 15 -21 15

<glyph glyph-name=".notdef" horiz-adv-x="1547" 
d="M100 -282v1710h1335v-1710h-1335zM135 -242h1264v1640h-1264v-1640zM725 471h3l11 -1v-18q2 -70 2 -126l-7 -2h-6q-3 71 -3 138v3v6zM1224 471h1l14 -1q-1 -9 -1 -13q0 -55 3 -131l-11 -2h-4q-2 58 -3 129q1 12 1 18zM790 466h4q0 -2 7 -12q-4 -18 -4 -30v-18
q0 -44 15 -58h1q21 0 35 117h2q12 -4 13 -4q-6 -58 -6 -86q0 -31 12 -31q2 -16 2 -20h-8q-13 0 -20 32h-1q-11 -28 -27 -28h-5q-20 0 -27 61q-1 4 -1 22v11q0 25 8 44zM1094 466h6q12 0 28 -28q12 -22 12 -44v-9q0 -37 -40 -58q-7 -3 -14 -3h-7q-30 0 -35 43v9q0 50 40 88
q8 2 10 2zM249 462h9q28 -5 28 -40q0 -34 -33 -49q-12 -5 -27 -7v-37h-1q-5 0 -14 3v34h-5l-5 1q0 11 5 19h5v0q0 41 -6 41q-6 7 -6 11q18 24 50 24zM1059 376v-8q0 -21 25 -24q22 0 37 27q5 8 5 18v3q0 27 -26 53q-3 0 -3 2q-17 0 -35 -50q-3 -11 -3 -21zM224 435
q1 -35 1 -47q1 0 1 -2q29 6 37 17q8 10 8 18q0 18 -15 21h-6q-26 -3 -26 -7zM404 438q19 0 28 -49q-1 0 -15 -4q-6 33 -13 33q-17 -9 -20 -75q1 -14 1 -15q-10 -2 -15 -2q-13 69 -13 87q12 2 15 2v-1q0 -4 3 -19h1q10 43 28 43zM537 432q20 0 33 -32q2 -9 2 -17v-3
q0 -36 -35 -53q-5 -1 -9 -1q-27 4 -27 38q0 50 25 65q2 1 11 3zM614 432q19 0 36 -89q1 0 1 -7q-8 -7 -12 -7q-15 62 -23 80q-9 -13 -18 -70q-1 0 -5 -10h-7q-7 0 -9 57q-2 14 -2 23q7 2 14 2q3 -17 3 -20h1q7 41 21 41zM1185 432q16 0 35 -96q-9 -7 -13 -7q-15 66 -24 80
q-6 -12 -19 -74q-3 -6 -4 -6h-6q-7 0 -10 80q6 2 15 2q1 -19 1 -22h1q7 43 24 43zM472 430q18 -5 18 -17v-1q0 -2 -10 -8h-1q-4 7 -13 7q-13 0 -16 -11q0 -5 29 -6q20 -11 20 -34q0 -25 -20 -34l-8 -2h-5q-24 0 -34 23v1q1 3 9 11h1q12 -15 28 -15q14 4 14 16q-4 15 -21 15
q-28 0 -28 22v3q0 30 37 30zM912 430q13 0 20 -18v-1q-11 -7 -14 -7q0 6 -11 7q-12 0 -17 -10v-1q0 -5 29 -6q19 -9 19 -36q0 -26 -24 -34h-8q-23 0 -35 23v1q8 11 10 11h1q12 -15 27 -15q14 4 14 16t-16 15q-25 0 -30 11q-2 11 -2 14q0 30 37 30zM1249 429v0q13 -2 14 -2
q-1 -18 -1 -26v-9q2 -35 13 -35h1q18 13 18 67v0h15v-3q7 -78 7 -88q0 -46 -30 -56h-5h-5q-18 0 -23 19q-1 5 -1 10v0q0 15 3 15h1q9 -6 12 -6l-1 -9q0 -8 9 -9h2q23 0 23 42q0 5 -1 21h-1q-8 -24 -26 -24h-1q-19 0 -25 47v17q0 10 2 29zM331 428q23 -4 23 -22v-6
q0 -20 -39 -36h-10q0 -11 17 -16q11 0 21 18h4q8 -12 8 -15q-17 -22 -30 -22h-7q-26 0 -30 45q0 40 32 53zM681 428h11q27 -9 27 -45q-1 -21 -1 -35l2 -16q-9 -8 -13 -8h-1l-2 11q-12 -8 -23 -8h-7q-22 3 -22 21v8q0 30 32 35q11 -1 20 -6v1q-4 25 -17 25q-9 0 -18 -10h-3
q-2 1 -8 11v2q12 14 23 14zM983 428q24 -4 24 -23q0 -29 -42 -41h-7v-2q7 -14 16 -14q10 0 23 18h1q1 0 9 -12q0 -9 -21 -22q-4 -3 -9 -3h-7q-24 0 -29 44q0 40 30 54zM516 365q2 -18 12 -18h3q24 7 26 35v3q-6 26 -20 26h-2q-13 0 -18 -32q-1 -7 -1 -14zM305 385
q19 0 33 18v2q-7 2 -9 2q-16 0 -24 -19v-3zM958 385h3q17 0 31 19q-6 3 -9 3h-3q-16 0 -22 -21v-1zM667 354v-3q0 -3 10 -6q17 0 25 17q-8 7 -19 7q-16 -3 -16 -15zM618 254q13 0 15 -34v-3l-6 -1h-2q-3 21 -8 21q-6 0 -8 -19q1 -2 1 -4q0 -10 2 -39q5 3 9 3h3v-15l-11 -3
q5 -57 5 -69h-11q-4 54 -4 65h-1q-5 -2 -10 -2v17q6 0 10 2q-3 21 -3 52q3 29 17 29h2zM816 254q12 0 16 -37l-8 -1h-2v1q0 15 -7 20q-8 -5 -8 -15q0 -8 3 -46v-1q5 3 10 3h1l1 -8v-7q-1 0 -12 -3l2 -3q0 -12 4 -66h-11q0 6 -4 65q-9 -2 -12 -2v17l11 1q-3 46 -3 52
q0 30 19 30zM709 237h4h6v-9q0 -61 3 -132h-11q-2 65 -2 102v39zM735 237h1h8v-30q0 -32 3 -111h-11q-3 66 -3 136v3q0 2 2 2zM529 234q8 -2 10 -2q-2 -29 -2 -42h2l12 2v-17q-1 0 -14 -2l4 -74l-2 -2h-8q-3 29 -5 75h-13v16l11 1h2v18q0 27 3 27zM994 234q3 0 12 -2
q-3 -13 -3 -29v-13h3l12 2v-17h-3l-12 -2l5 -74l-5 -2h-6q-3 62 -3 75h-15l1 8v8l11 1h1v1q0 21 2 44zM1140 234q3 0 12 -2q-2 -18 -2 -34v-8h2l12 2v-8v-9q-1 0 -14 -2v-6q0 -15 4 -68l-2 -2h-9l-4 75h-13v16l11 1h1zM404 231h10q14 0 23 -23q-6 -6 -6 -9h-3q-9 15 -21 15
q-17 0 -35 -26q-9 -19 -9 -34v-5q0 -29 24 -35q2 -1 8 -1q31 3 31 20v10q-4 3 -12 3h-10v17q28 0 33 -9q2 -7 2 -9q-2 -25 -2 -29q0 -11 4 -26q-1 0 -8 -5h-1q-4 0 -6 22q-6 -8 -29 -12h-2q-38 0 -43 51v4q0 58 45 79zM866 199q23 0 34 -38v-14q0 -34 -34 -50l-7 -1
q-16 0 -24 20q-2 11 -2 17v4q0 41 19 57q8 5 14 5zM943 199q15 0 34 -94h-1q-5 -4 -9 -4q-15 67 -24 79q-7 -7 -23 -79l-2 -1h-4q-6 0 -9 76l8 2h2q3 -16 3 -33h1q9 54 24 54zM487 195q20 -4 20 -20q1 0 1 -2q0 -23 -35 -36q-5 -3 -15 -3v-1q0 -11 17 -17h1q10 0 23 16h3
q0 -2 6 -9v-1q-14 -22 -29 -22h-6q-19 0 -27 32v15q0 33 26 46q5 2 15 2zM1083 195h11q16 0 24 -28q2 -16 3 -18q-1 -6 -3 -26q2 -4 2 -23l-6 -4h-3l-3 12q-10 -11 -25 -11h-4q-21 3 -21 20v8q3 32 30 32q12 0 21 -8v3q0 25 -18 29h-3q-6 0 -17 -8h-1q-1 0 -6 7v2
q10 13 19 13zM634 193q2 0 11 -3q0 -74 14 -74q19 12 28 66q1 5 1 11h1q3 0 10 -3q-3 -24 -3 -45v-12q0 -9 5 -19q-5 -7 -5 -11h-2q-7 4 -8 26h-2q-4 -15 -19 -29h-9q-20 0 -20 75v10zM843 137q2 -23 15 -23h1q16 0 27 25q3 8 3 11q-6 31 -22 31h-4q-15 0 -20 -44zM457 150
q23 0 39 22q-2 6 -11 6h-3q-19 0 -25 -28zM1068 122q3 -8 11 -8h6q14 0 22 18q-9 8 -17 8h-2q-20 -3 -20 -18zM507 45q1 0 17 -4q-4 -38 -5 -92q0 -34 10 -69q-11 -10 -12 -10h-1q-3 0 -6 13h-2q0 -8 -21 -16q-33 0 -47 42q-3 12 -3 28q0 48 34 58h4q14 0 29 -16v1q0 8 3 65
zM316 39l15 -5q-2 -23 -2 -36v-14q13 3 15 3q2 -20 2 -24h-2q-9 -1 -15 -1q3 -63 5 -91q-12 -2 -17 -2v1q-5 61 -5 88l-2 2h-14v24h15v9q0 46 5 46zM674 39h1l15 -5q-2 -28 -2 -45v-5q14 3 16 3l1 -14v-10q-16 -1 -16 -2q0 -23 5 -90q-13 -2 -17 -2v1q-5 75 -5 90h-18v24h17
q0 34 3 55zM546 36q9 0 11 -14v-1q0 -11 -8 -16h-7q-8 5 -8 17q2 14 12 14zM607 -5q25 0 41 -38q2 -11 2 -17v-9q0 -40 -39 -60q-4 -2 -13 -2q-27 0 -32 41v14q0 51 30 69q10 2 11 2zM800 -5h5q11 0 11 -3v-2q9 5 19 5q25 0 33 -44q0 -11 1 -14q-3 -52 -31 -64l-8 -1h-10
l1 -8q0 -6 1 -40h-17q-5 132 -5 171zM915 -5q23 0 39 -35q4 -13 4 -24q0 -43 -38 -65q-8 -2 -14 -2q-22 0 -31 27q-2 12 -2 23q0 54 30 74q11 2 12 2zM1117 -5q24 0 39 -35q4 -8 4 -19v-8q0 -43 -39 -62q-4 -2 -13 -2q-28 0 -32 41v14q0 51 30 69q10 2 11 2zM1211 -5
q17 0 27 -58h1q8 58 27 58h1q24 0 40 -118h-2q-11 -5 -13 -5h-1q-19 98 -25 98q-10 -22 -17 -82q-3 -10 -10 -10q-8 0 -11 15q-13 76 -19 76q-16 -58 -16 -93q-10 -4 -17 -4v1l-12 104q13 6 17 6q2 -8 4 -31h2q9 43 24 43zM258 -6q24 -5 24 -21v-1q-1 -2 -12 -9h-3
q0 7 -13 8h-1q-13 0 -20 -10v-4q0 -6 31 -6q27 -12 27 -38v-5q0 -28 -22 -38q-5 -3 -10 -3h-9q-23 0 -39 25q0 5 11 16h3q8 -18 30 -18q18 0 18 20q0 15 -21 18q-27 0 -32 12q-4 8 -4 12v8q0 34 42 34zM713 -7q12 -4 15 -4q-1 -23 -1 -34v-6q0 -33 12 -44h5q22 18 22 72v10
h17v-1q8 -89 8 -103v-10q0 -44 -28 -60q-10 -4 -16 -4q-22 0 -29 20q-2 4 -2 9v9q0 15 4 15l14 -7l-1 -8v-4q0 -8 11 -10h4q20 0 25 33q1 4 1 12v20l-1 13h-1q-10 -30 -29 -30h-2q-23 0 -30 50q-1 8 -1 20v9q0 33 3 33zM1033 -8h8q6 0 15 -9q11 -12 11 -18q-11 -13 -12 -13
v0q-11 15 -18 15h-2q-12 -5 -18 -28l-4 -21q0 -22 14 -24h3q11 0 34 16h1q6 -20 6 -22q-25 -18 -47 -18q-23 0 -28 46q0 34 19 64q12 12 18 12zM537 -10h12l6 -1q0 -3 -1 -8q1 -67 4 -109h-18l-1 8q-2 68 -2 110zM350 -11q17 -5 17 -6v-20q0 -67 12 -67h5q17 19 24 55
q5 10 6 38h2q15 -2 15 -6q-3 -42 -3 -59v-10q0 -10 5 -20q0 -6 -10 -18v0q-12 12 -12 25h-1q-11 -29 -28 -29h-3q-29 0 -29 93v24zM454 -67q0 -34 30 -40h3q12 0 15 26v3q0 36 -21 48l-6 1h-2q-17 0 -19 -35v-3zM583 -82q0 -22 15 -25h4q15 0 29 29q2 4 2 9v9q-7 31 -24 31
h-2q-21 0 -24 -53zM816 -37q0 -3 3 -67l7 -1q22 0 26 42q-3 34 -17 34h-1q-10 0 -18 -8zM890 -82v-5q0 -17 15 -20h2q16 0 30 26q4 8 4 18q-6 34 -28 34q-19 0 -23 -53zM1092 -82q0 -25 17 -25h3q14 0 29 30q2 6 2 10v7q-8 31 -25 31h-1q-20 0 -25 -53zM977 -96q9 0 12 -14
v-5q-3 -13 -12 -13t-11 15q1 17 11 17zM717 1368v-242h-261q-54 0 -103 -38v10q147 270 364 270zM800 1368h10q132 0 279 -149q56 -68 56 -93h-345v242zM428 1042h289v-94q-35 19 -75 19h-214q-19 0 -19 19v37q3 19 19 19zM800 1042h383l9 -94v-18q0 -185 -131 -298h-167
q-94 12 -94 93v317zM325 967h9q0 -72 140 -84h177q66 0 66 -65v-103q0 -83 -103 -83h-158q-131 120 -131 279v56zM754 604h9q61 -56 187 -56v-10q-108 -37 -187 -37h-9q-80 0 -187 37v10q132 0 187 56z" />
    <glyph glyph-name=".null" horiz-adv-x="280" 
 />
    <glyph glyph-name=".null" horiz-adv-x="280" 
 />
    <glyph glyph-name="nonmarkingreturn" horiz-adv-x="280" 
 />
    <glyph glyph-name="space" unicode=" " horiz-adv-x="570" 
 />
    <glyph glyph-name="space" unicode="&#xa0;" horiz-adv-x="570" 
 />
    <glyph glyph-name="exclam" unicode="!" horiz-adv-x="732" 
d="M227 1410q46 41 108 49q16 2 30 2q45 0 87 -19q58 -26 89 -81q54 -96 54 -300q0 -79 -8 -174q-28 -322 -106 -466q-51 -95 -110 -99h-6q-60 0 -96 98q-33 84 -76 425q-33 257 -33 377q0 47 5 73q13 71 62 115zM381 -24q-15 -6 -30 -6q-33 0 -59 32q-34 39 -35 95v5
q0 35 24 65t60 41q15 4 28 4q22 0 41 -10q36 -19 51 -68q6 -19 6 -38q0 -29 -14 -57q-23 -45 -72 -63zM352 109q4 7 5 31q-36 -1 -36 -23q0 -9 5 -20q20 2 26 12zM239 1272l10 21q17 36 52 61q41 28 44 34q-15 7 -29 7q-25 0 -48 -19q-45 -34 -45 -117q9 4 16 13z" />
    <glyph glyph-name="quotedbl" unicode="&#x22;" horiz-adv-x="729" 
d="M266 1018q-35 -28 -70 -28q-8 0 -15 1q-46 7 -70 58q-11 26 -11 137v19q0 128 13 156q28 66 90 66h4q67 -2 75 -91q9 -46 9 -126q0 -22 -1 -46q-2 -130 -24 -146zM604 1018q-35 -28 -70 -28q-8 0 -15 1q-46 7 -70 58q-11 26 -11 137v19q0 128 13 156q28 66 90 66h4
q67 -2 75 -91q9 -46 9 -126q0 -22 -1 -46q-2 -130 -24 -146z" />
    <glyph glyph-name="numbersign" unicode="#" horiz-adv-x="1210" 
d="M576 1070q73 2 121 0q59 -1 110 -2q48 168 67 184q45 42 80 42q9 0 16 -2q36 -12 44 -71q2 -12 3 -27q1 -31 -19 -138q65 -7 83 -17q76 -39 93 -79q4 -9 5 -19q1 -43 -71 -69q-16 -6 -36 -11q-34 -9 -118 -15q-12 -56 -27 -119q-12 -55 -24 -103q86 -8 108 -20
q76 -38 93 -79q4 -9 5 -19q1 -43 -72 -69q-16 -6 -35 -11q-41 -10 -152 -17q-32 -119 -49 -152q-40 -78 -83 -78q-10 0 -20 4q-50 21 -68 125q5 40 14 91q-44 -2 -94 -3q-69 -2 -128 -2q-29 -106 -45 -137q-40 -78 -83 -78q-10 0 -19 4q-51 21 -69 125q5 41 15 93
q-26 3 -45 7q-121 24 -141 73q-5 11 -5 23q4 63 131 113q56 4 107 7q22 95 52 210q-45 3 -74 9q-120 24 -141 73q-5 11 -4 23q3 63 130 113q81 6 150 10q51 173 70 190q44 42 80 42q8 0 16 -2q35 -12 44 -71q1 -12 2 -28q1 -28 -17 -123zM744 835q-57 -2 -124 -4
q-49 -1 -93 -2q-11 -48 -23 -102q-11 -49 -22 -93q89 3 144 1q36 -1 68 -1q22 91 50 201z" />
    <glyph glyph-name="dollar" unicode="$" horiz-adv-x="1214" 
d="M860 1021q-174 -3 -190 -5q-201 -17 -201 -71v-3q5 -52 199 -176q15 -11 108 -72q86 -56 138 -97q160 -124 160 -212v-8q-10 -95 -82 -162q-69 -63 -172 -82q-32 -6 -111 -13q14 -79 14 -140q0 -44 -7 -79q-14 -71 -56 -71q-28 0 -69 31q-16 12 -24 27q-26 50 -26 122
q0 45 10 99q-100 -5 -170 -5q-113 0 -149 13q-46 17 -55 86q-2 15 -2 30q0 47 20 91q17 36 318 37q145 0 201 6q89 9 89 36v1q-1 35 -152 99q-45 19 -114 45q-63 24 -71 28q-242 112 -305 266q-21 51 -21 103q0 127 121 264q72 82 281 116q0 144 56 220q18 25 36 25
q8 0 15 -4q29 -16 51 -94q15 -53 20 -136q120 -4 183 -40q108 -63 126 -142q3 -15 3 -29q0 -49 -39 -85q-19 -17 -133 -19zM514 1260l-42 -26q61 0 99 35q35 31 35 98l-11 -20q-3 -6 -15 -21q-34 -45 -66 -66zM212 999h-1q0 4 58 88q57 82 145 121l30 13q6 3 10 7
q-97 0 -165 -70q-75 -79 -77 -159zM757 298q84 7 84 79q-20 -2 -51 -34q-29 -30 -33 -45z" />
    <glyph glyph-name="percent" unicode="%" horiz-adv-x="1547" 
d="M638 63q-68 -103 -125 -103q-13 0 -25 5q-63 28 -68 166q60 224 258 721q199 500 242 533q67 56 114 56q11 0 21 -3q45 -16 45 -94q0 -17 -2 -37q-9 -86 -205 -620q-198 -538 -255 -624zM306 1198q-23 -32 -23 -63q0 -32 23 -63q21 -29 47 -29h3q27 1 46 34q22 36 22 73
q0 12 -3 25q-11 57 -49 62q-4 1 -7 1q-31 0 -59 -40zM538 1432q77 -80 77 -218q0 -23 -2 -48q-15 -174 -121 -255q-54 -41 -122 -41q-11 0 -23 1q-87 8 -131 75q-73 110 -76 244v10q0 137 80 227q54 61 159 62q103 0 159 -57zM1086 325q-49 -33 -49 -83q0 -17 6 -36
q10 -36 37 -44q7 -2 13 -2q20 0 42 18q44 37 52 86q2 11 2 21q0 40 -27 54q-11 6 -24 6q-24 0 -52 -20zM1385 464q22 -49 22 -105q0 -78 -43 -170q-74 -158 -202 -197q-30 -10 -60 -10q-45 0 -90 22q-78 37 -97 116q-13 53 -13 106q0 74 26 149q46 135 156 195q37 20 82 20
q42 0 89 -17q97 -35 130 -109zM985 352l31 41q42 56 95 92q16 11 19 24q-57 -2 -98 -54q-46 -59 -47 -103zM1124 104q56 0 86 48q10 15 18 38q11 28 11 29q-18 -5 -24 -17q-13 -24 -32 -42q-10 -11 -33 -29q-16 -13 -26 -27z" />
    <glyph glyph-name="ampersand" unicode="&#x26;" horiz-adv-x="1296" 
d="M817 764q27 -2 227 -7q178 -4 184 -7q27 -14 37 -41q4 -10 4 -19q0 -17 -11 -31q-27 -36 -101 -36q-46 0 -111 14q88 -128 88 -238q0 -31 -7 -60q-26 -116 -155 -193q-115 -70 -275 -89q-55 -7 -105 -7q-94 0 -174 23q-92 3 -167 76q-72 71 -99 175q-12 48 -12 94
q0 58 19 112q40 110 151 173q3 2 3 4q0 4 -15 9q-37 13 -59 27q-81 53 -81 174q0 19 2 40q18 186 89 264q64 70 254 132q61 21 156 21q34 0 72 -3q150 -10 229 -52q58 -32 87 -117q16 -47 16 -92q0 -47 -17 -93q-34 -97 -92 -130q-35 -21 -85 -21q-32 0 -70 9q-52 12 -85 12
q-29 0 -43 -9q-34 -22 -34 -45q0 -17 17 -34q25 -26 163 -35zM628 524q-23 -36 -29 -80q-2 -14 -2 -26q0 -29 12 -50q19 -35 66 -35q33 -8 62 -8q55 0 99 28q59 38 66 103q1 8 1 16q0 54 -47 84q-37 24 -93 24q-39 0 -86 -11q-26 -7 -49 -45zM215 486q9 7 25 34q19 31 40 52
q55 55 56 95q-19 -1 -35 -20q-4 -4 -17 -23q-13 -17 -25 -31q-44 -51 -44 -107zM802 263q56 0 103 45q48 45 48 100q-6 -4 -41 -48q-35 -43 -65 -64q-40 -27 -45 -33z" />
    <glyph glyph-name="quotesingle" unicode="'" horiz-adv-x="471" 
d="M306 1018q-35 -28 -70 -28q-8 0 -15 1q-46 7 -70 58q-11 26 -11 137v19q0 128 13 156q28 66 90 66h4q67 -2 75 -91q9 -46 9 -126q0 -22 -1 -46q-2 -130 -24 -146z" />
    <glyph glyph-name="parenleft" unicode="(" horiz-adv-x="876" 
d="M531 306q39 -45 113 -85q70 -38 83 -57q9 -13 9 -30q0 -28 -24 -67q-22 -63 -85 -66q-11 -1 -21 -1q-102 0 -201 53q-130 71 -187 207q-78 185 -78 447q0 78 7 163q16 204 92 361q84 174 264 204q24 4 46 4q50 0 90 -20q61 -30 79 -98q6 -22 6 -39q0 -35 -22 -54
q-12 -10 -38 -23q-36 -18 -46 -25q-88 -52 -140 -291q-32 -150 -32 -276q0 -65 8 -124q16 -113 77 -183zM485 1377q-30 -1 -83 -37q-47 -32 -69 -59q-63 -78 -71 -175l20 34q15 38 18 42q43 79 106 129q41 32 79 41v25z" />
    <glyph glyph-name="parenright" unicode=")" horiz-adv-x="889" 
d="M346 1125q-40 43 -115 82q-69 35 -82 54q-9 13 -9 30q0 27 23 66q21 62 84 67q14 1 28 1q98 0 195 -49q132 -66 191 -199q88 -195 88 -478q0 -58 -4 -121q-13 -201 -86 -357q-80 -173 -260 -206q-26 -5 -51 -5q-46 0 -85 18q-62 29 -81 95q-5 17 -5 32q0 36 31 53
q11 6 45 18q32 12 49 23q89 54 127 280q19 110 19 214q0 105 -19 204q-20 110 -83 178zM245 135q30 1 83 37q47 32 69 59q63 79 71 176l-20 -34q-15 -38 -18 -42q-43 -80 -106 -130q-41 -32 -79 -41v-25z" />
    <glyph glyph-name="asterisk" unicode="*" horiz-adv-x="971" 
d="M479 988q1 -2 3 -3l8 6q-5 -1 -10 -1q-1 -1 -1 -2zM482 849q-22 -28 -68 -74l-14 -13q-90 -91 -119 -101q-67 -27 -111 17l-2 3q-46 49 11 117q26 39 83 96q16 15 33 31q11 10 21 20q-25 8 -57 21l-18 7q-119 47 -140 69q-51 51 -28 108l2 4q26 62 112 36q46 -8 120 -38
q21 -8 43 -18q16 -6 29 -13q-1 28 -1 65v19q0 128 13 156q28 66 90 66h4q67 -2 75 -91q9 -46 9 -126q0 -22 -1 -46q0 -30 -2 -55q24 12 55 25q22 10 43 18q74 30 120 38q86 26 113 -36l1 -4q23 -57 -28 -108q-21 -22 -140 -69l-18 -7q-35 -14 -62 -23q9 -9 19 -18
q18 -16 33 -31q57 -57 83 -96q58 -68 12 -117l-3 -3q-44 -44 -110 -17q-29 10 -120 101l-14 13q-45 46 -68 74z" />
    <glyph glyph-name="plus" unicode="+" horiz-adv-x="1183" 
d="M699 288q-30 -58 -88 -58q-13 0 -27 3q-72 16 -128 93q-11 66 -11 218v26q-256 11 -271 32q-34 41 -34 84q0 9 1 17q9 55 70 83q25 11 245 23q21 274 45 288q46 32 92 32q11 0 23 -2q62 -11 91 -73q13 -28 19 -239q217 -1 251 -16q35 -16 53 -54q13 -28 13 -59
q0 -8 -1 -16q-5 -40 -29 -65q-23 -24 -57 -24q-5 0 -10 1q-58 -11 -221 -15q-7 -244 -26 -279zM426 737q41 0 66 25q25 24 25 65q-40 -14 -91 -90z" />
    <glyph glyph-name="comma" unicode="," horiz-adv-x="456" 
d="M207 208q21 7 40 7q54 0 92 -55q17 -24 17 -59q0 -37 -18 -86q-30 -81 -79 -133q-48 -70 -106 -47q-39 25 -23 58q48 32 49 48q1 8 1 15q0 42 -26 51q-40 15 -49 31q-5 9 -5 24q0 16 6 38q24 83 101 108zM175 90q4 -1 7 -1q13 0 27 13q18 16 18 31v3q-10 4 -18 4
q-14 0 -25 -9q-12 -10 -12 -25q0 -7 3 -16z" />
    <glyph glyph-name="hyphen" unicode="-" horiz-adv-x="766" 
d="M176 633q-121 24 -141 93q-5 11 -5 23q-1 110 131 133q180 23 295 18q138 -5 205 -31q58 -22 75 -88q2 -14 3 -30q1 -58 -52 -89q-16 -6 -35 -11q-103 -21 -252 -30q-123 -8 -224 12zM180 798l112 39q-28 4 -56 4q-56 0 -109 -18q-39 -25 -39 -43q0 -21 14 -32
q31 24 78 50z" />
    <glyph glyph-name="hyphen" unicode="&#xad;" horiz-adv-x="766" 
d="M176 633q-121 24 -141 93q-5 11 -5 23q-1 110 131 133q180 23 295 18q138 -5 205 -31q58 -22 75 -88q2 -14 3 -30q1 -58 -52 -89q-16 -6 -35 -11q-103 -21 -252 -30q-123 -8 -224 12zM180 798l112 39q-28 4 -56 4q-56 0 -109 -18q-39 -25 -39 -43q0 -21 14 -32
q31 24 78 50z" />
    <glyph glyph-name="period" unicode="." horiz-adv-x="1547" 
d="M100 -282v1710h1335v-1710h-1335zM135 -242h1264v1640h-1264v-1640zM725 471h3l11 -1v-18q2 -70 2 -126l-7 -2h-6q-3 71 -3 138v3v6zM1224 471h1l14 -1q-1 -9 -1 -13q0 -55 3 -131l-11 -2h-4q-2 58 -3 129q1 12 1 18zM790 466h4q0 -2 7 -12q-4 -18 -4 -30v-18
q0 -44 15 -58h1q21 0 35 117h2q12 -4 13 -4q-6 -58 -6 -86q0 -31 12 -31q2 -16 2 -20h-8q-13 0 -20 32h-1q-11 -28 -27 -28h-5q-20 0 -27 61q-1 4 -1 22v11q0 25 8 44zM1094 466h6q12 0 28 -28q12 -22 12 -44v-9q0 -37 -40 -58q-7 -3 -14 -3h-7q-30 0 -35 43v9q0 50 40 88
q8 2 10 2zM249 462h9q28 -5 28 -40q0 -34 -33 -49q-12 -5 -27 -7v-37h-1q-5 0 -14 3v34h-5l-5 1q0 11 5 19h5v0q0 41 -6 41q-6 7 -6 11q18 24 50 24zM1059 376v-8q0 -21 25 -24q22 0 37 27q5 8 5 18v3q0 27 -26 53q-3 0 -3 2q-17 0 -35 -50q-3 -11 -3 -21zM224 435
q1 -35 1 -47q1 0 1 -2q29 6 37 17q8 10 8 18q0 18 -15 21h-6q-26 -3 -26 -7zM404 438q19 0 28 -49q-1 0 -15 -4q-6 33 -13 33q-17 -9 -20 -75q1 -14 1 -15q-10 -2 -15 -2q-13 69 -13 87q12 2 15 2v-1q0 -4 3 -19h1q10 43 28 43zM537 432q20 0 33 -32q2 -9 2 -17v-3
q0 -36 -35 -53q-5 -1 -9 -1q-27 4 -27 38q0 50 25 65q2 1 11 3zM614 432q19 0 36 -89q1 0 1 -7q-8 -7 -12 -7q-15 62 -23 80q-9 -13 -18 -70q-1 0 -5 -10h-7q-7 0 -9 57q-2 14 -2 23q7 2 14 2q3 -17 3 -20h1q7 41 21 41zM1185 432q16 0 35 -96q-9 -7 -13 -7q-15 66 -24 80
q-6 -12 -19 -74q-3 -6 -4 -6h-6q-7 0 -10 80q6 2 15 2q1 -19 1 -22h1q7 43 24 43zM472 430q18 -5 18 -17v-1q0 -2 -10 -8h-1q-4 7 -13 7q-13 0 -16 -11q0 -5 29 -6q20 -11 20 -34q0 -25 -20 -34l-8 -2h-5q-24 0 -34 23v1q1 3 9 11h1q12 -15 28 -15q14 4 14 16q-4 15 -21 15
q-28 0 -28 22v3q0 30 37 30zM912 430q13 0 20 -18v-1q-11 -7 -14 -7q0 6 -11 7q-12 0 -17 -10v-1q0 -5 29 -6q19 -9 19 -36q0 -26 -24 -34h-8q-23 0 -35 23v1q8 11 10 11h1q12 -15 27 -15q14 4 14 16t-16 15q-25 0 -30 11q-2 11 -2 14q0 30 37 30zM1249 429v0q13 -2 14 -2
q-1 -18 -1 -26v-9q2 -35 13 -35h1q18 13 18 67v0h15v-3q7 -78 7 -88q0 -46 -30 -56h-5h-5q-18 0 -23 19q-1 5 -1 10v0q0 15 3 15h1q9 -6 12 -6l-1 -9q0 -8 9 -9h2q23 0 23 42q0 5 -1 21h-1q-8 -24 -26 -24h-1q-19 0 -25 47v17q0 10 2 29zM331 428q23 -4 23 -22v-6
q0 -20 -39 -36h-10q0 -11 17 -16q11 0 21 18h4q8 -12 8 -15q-17 -22 -30 -22h-7q-26 0 -30 45q0 40 32 53zM681 428h11q27 -9 27 -45q-1 -21 -1 -35l2 -16q-9 -8 -13 -8h-1l-2 11q-12 -8 -23 -8h-7q-22 3 -22 21v8q0 30 32 35q11 -1 20 -6v1q-4 25 -17 25q-9 0 -18 -10h-3
q-2 1 -8 11v2q12 14 23 14zM983 428q24 -4 24 -23q0 -29 -42 -41h-7v-2q7 -14 16 -14q10 0 23 18h1q1 0 9 -12q0 -9 -21 -22q-4 -3 -9 -3h-7q-24 0 -29 44q0 40 30 54zM516 365q2 -18 12 -18h3q24 7 26 35v3q-6 26 -20 26h-2q-13 0 -18 -32q-1 -7 -1 -14zM305 385
q19 0 33 18v2q-7 2 -9 2q-16 0 -24 -19v-3zM958 385h3q17 0 31 19q-6 3 -9 3h-3q-16 0 -22 -21v-1zM667 354v-3q0 -3 10 -6q17 0 25 17q-8 7 -19 7q-16 -3 -16 -15zM618 254q13 0 15 -34v-3l-6 -1h-2q-3 21 -8 21q-6 0 -8 -19q1 -2 1 -4q0 -10 2 -39q5 3 9 3h3v-15l-11 -3
q5 -57 5 -69h-11q-4 54 -4 65h-1q-5 -2 -10 -2v17q6 0 10 2q-3 21 -3 52q3 29 17 29h2zM816 254q12 0 16 -37l-8 -1h-2v1q0 15 -7 20q-8 -5 -8 -15q0 -8 3 -46v-1q5 3 10 3h1l1 -8v-7q-1 0 -12 -3l2 -3q0 -12 4 -66h-11q0 6 -4 65q-9 -2 -12 -2v17l11 1q-3 46 -3 52
q0 30 19 30zM709 237h4h6v-9q0 -61 3 -132h-11q-2 65 -2 102v39zM735 237h1h8v-30q0 -32 3 -111h-11q-3 66 -3 136v3q0 2 2 2zM529 234q8 -2 10 -2q-2 -29 -2 -42h2l12 2v-17q-1 0 -14 -2l4 -74l-2 -2h-8q-3 29 -5 75h-13v16l11 1h2v18q0 27 3 27zM994 234q3 0 12 -2
q-3 -13 -3 -29v-13h3l12 2v-17h-3l-12 -2l5 -74l-5 -2h-6q-3 62 -3 75h-15l1 8v8l11 1h1v1q0 21 2 44zM1140 234q3 0 12 -2q-2 -18 -2 -34v-8h2l12 2v-8v-9q-1 0 -14 -2v-6q0 -15 4 -68l-2 -2h-9l-4 75h-13v16l11 1h1zM404 231h10q14 0 23 -23q-6 -6 -6 -9h-3q-9 15 -21 15
q-17 0 -35 -26q-9 -19 -9 -34v-5q0 -29 24 -35q2 -1 8 -1q31 3 31 20v10q-4 3 -12 3h-10v17q28 0 33 -9q2 -7 2 -9q-2 -25 -2 -29q0 -11 4 -26q-1 0 -8 -5h-1q-4 0 -6 22q-6 -8 -29 -12h-2q-38 0 -43 51v4q0 58 45 79zM866 199q23 0 34 -38v-14q0 -34 -34 -50l-7 -1
q-16 0 -24 20q-2 11 -2 17v4q0 41 19 57q8 5 14 5zM943 199q15 0 34 -94h-1q-5 -4 -9 -4q-15 67 -24 79q-7 -7 -23 -79l-2 -1h-4q-6 0 -9 76l8 2h2q3 -16 3 -33h1q9 54 24 54zM487 195q20 -4 20 -20q1 0 1 -2q0 -23 -35 -36q-5 -3 -15 -3v-1q0 -11 17 -17h1q10 0 23 16h3
q0 -2 6 -9v-1q-14 -22 -29 -22h-6q-19 0 -27 32v15q0 33 26 46q5 2 15 2zM1083 195h11q16 0 24 -28q2 -16 3 -18q-1 -6 -3 -26q2 -4 2 -23l-6 -4h-3l-3 12q-10 -11 -25 -11h-4q-21 3 -21 20v8q3 32 30 32q12 0 21 -8v3q0 25 -18 29h-3q-6 0 -17 -8h-1q-1 0 -6 7v2
q10 13 19 13zM634 193q2 0 11 -3q0 -74 14 -74q19 12 28 66q1 5 1 11h1q3 0 10 -3q-3 -24 -3 -45v-12q0 -9 5 -19q-5 -7 -5 -11h-2q-7 4 -8 26h-2q-4 -15 -19 -29h-9q-20 0 -20 75v10zM843 137q2 -23 15 -23h1q16 0 27 25q3 8 3 11q-6 31 -22 31h-4q-15 0 -20 -44zM457 150
q23 0 39 22q-2 6 -11 6h-3q-19 0 -25 -28zM1068 122q3 -8 11 -8h6q14 0 22 18q-9 8 -17 8h-2q-20 -3 -20 -18zM507 45q1 0 17 -4q-4 -38 -5 -92q0 -34 10 -69q-11 -10 -12 -10h-1q-3 0 -6 13h-2q0 -8 -21 -16q-33 0 -47 42q-3 12 -3 28q0 48 34 58h4q14 0 29 -16v1q0 8 3 65
zM316 39l15 -5q-2 -23 -2 -36v-14q13 3 15 3q2 -20 2 -24h-2q-9 -1 -15 -1q3 -63 5 -91q-12 -2 -17 -2v1q-5 61 -5 88l-2 2h-14v24h15v9q0 46 5 46zM674 39h1l15 -5q-2 -28 -2 -45v-5q14 3 16 3l1 -14v-10q-16 -1 -16 -2q0 -23 5 -90q-13 -2 -17 -2v1q-5 75 -5 90h-18v24h17
q0 34 3 55zM546 36q9 0 11 -14v-1q0 -11 -8 -16h-7q-8 5 -8 17q2 14 12 14zM607 -5q25 0 41 -38q2 -11 2 -17v-9q0 -40 -39 -60q-4 -2 -13 -2q-27 0 -32 41v14q0 51 30 69q10 2 11 2zM800 -5h5q11 0 11 -3v-2q9 5 19 5q25 0 33 -44q0 -11 1 -14q-3 -52 -31 -64l-8 -1h-10
l1 -8q0 -6 1 -40h-17q-5 132 -5 171zM915 -5q23 0 39 -35q4 -13 4 -24q0 -43 -38 -65q-8 -2 -14 -2q-22 0 -31 27q-2 12 -2 23q0 54 30 74q11 2 12 2zM1117 -5q24 0 39 -35q4 -8 4 -19v-8q0 -43 -39 -62q-4 -2 -13 -2q-28 0 -32 41v14q0 51 30 69q10 2 11 2zM1211 -5
q17 0 27 -58h1q8 58 27 58h1q24 0 40 -118h-2q-11 -5 -13 -5h-1q-19 98 -25 98q-10 -22 -17 -82q-3 -10 -10 -10q-8 0 -11 15q-13 76 -19 76q-16 -58 -16 -93q-10 -4 -17 -4v1l-12 104q13 6 17 6q2 -8 4 -31h2q9 43 24 43zM258 -6q24 -5 24 -21v-1q-1 -2 -12 -9h-3
q0 7 -13 8h-1q-13 0 -20 -10v-4q0 -6 31 -6q27 -12 27 -38v-5q0 -28 -22 -38q-5 -3 -10 -3h-9q-23 0 -39 25q0 5 11 16h3q8 -18 30 -18q18 0 18 20q0 15 -21 18q-27 0 -32 12q-4 8 -4 12v8q0 34 42 34zM713 -7q12 -4 15 -4q-1 -23 -1 -34v-6q0 -33 12 -44h5q22 18 22 72v10
h17v-1q8 -89 8 -103v-10q0 -44 -28 -60q-10 -4 -16 -4q-22 0 -29 20q-2 4 -2 9v9q0 15 4 15l14 -7l-1 -8v-4q0 -8 11 -10h4q20 0 25 33q1 4 1 12v20l-1 13h-1q-10 -30 -29 -30h-2q-23 0 -30 50q-1 8 -1 20v9q0 33 3 33zM1033 -8h8q6 0 15 -9q11 -12 11 -18q-11 -13 -12 -13
v0q-11 15 -18 15h-2q-12 -5 -18 -28l-4 -21q0 -22 14 -24h3q11 0 34 16h1q6 -20 6 -22q-25 -18 -47 -18q-23 0 -28 46q0 34 19 64q12 12 18 12zM537 -10h12l6 -1q0 -3 -1 -8q1 -67 4 -109h-18l-1 8q-2 68 -2 110zM350 -11q17 -5 17 -6v-20q0 -67 12 -67h5q17 19 24 55
q5 10 6 38h2q15 -2 15 -6q-3 -42 -3 -59v-10q0 -10 5 -20q0 -6 -10 -18v0q-12 12 -12 25h-1q-11 -29 -28 -29h-3q-29 0 -29 93v24zM454 -67q0 -34 30 -40h3q12 0 15 26v3q0 36 -21 48l-6 1h-2q-17 0 -19 -35v-3zM583 -82q0 -22 15 -25h4q15 0 29 29q2 4 2 9v9q-7 31 -24 31
h-2q-21 0 -24 -53zM816 -37q0 -3 3 -67l7 -1q22 0 26 42q-3 34 -17 34h-1q-10 0 -18 -8zM890 -82v-5q0 -17 15 -20h2q16 0 30 26q4 8 4 18q-6 34 -28 34q-19 0 -23 -53zM1092 -82q0 -25 17 -25h3q14 0 29 30q2 6 2 10v7q-8 31 -25 31h-1q-20 0 -25 -53zM977 -96q9 0 12 -14
v-5q-3 -13 -12 -13t-11 15q1 17 11 17zM717 1368v-242h-261q-54 0 -103 -38v10q147 270 364 270zM800 1368h10q132 0 279 -149q56 -68 56 -93h-345v242zM428 1042h289v-94q-35 19 -75 19h-214q-19 0 -19 19v37q3 19 19 19zM800 1042h383l9 -94v-18q0 -185 -131 -298h-167
q-94 12 -94 93v317zM325 967h9q0 -72 140 -84h177q66 0 66 -65v-103q0 -83 -103 -83h-158q-131 120 -131 279v56zM754 604h9q61 -56 187 -56v-10q-108 -37 -187 -37h-9q-80 0 -187 37v10q132 0 187 56z" />
    <glyph glyph-name="slash" unicode="/" horiz-adv-x="780" 
d="M268 83q-68 -103 -125 -103q-13 0 -25 5q-63 28 -68 166q60 224 258 721q199 500 242 533q67 56 114 56q11 0 21 -3q45 -16 45 -94q0 -17 -2 -37q-9 -86 -205 -620q-198 -538 -255 -624z" />
    <glyph glyph-name="zero" unicode="0" horiz-adv-x="1330" 
d="M506 761q-57 -73 -57 -147q0 -66 44 -132q45 -69 105 -69h2q60 0 106 70q56 86 56 173q0 21 -3 41q-20 127 -102 142q-11 2 -22 2q-66 0 -129 -80zM1170 983q20 -92 20 -191q0 -67 -9 -136q-24 -173 -98 -316q-79 -151 -197 -232q-114 -78 -251 -78q-36 0 -74 5
q-189 28 -280 181q-141 237 -141 516v30q9 316 201 512q118 120 325 120q16 0 33 -1q229 -10 345 -143q91 -104 126 -267zM232 950l53 105q27 54 62 100q38 50 81 82q24 18 48 31q47 25 53 32q-112 -2 -209 -138q-86 -119 -88 -212zM691 396l-53 -44q7 -3 15 -3q19 0 48 18
q39 25 72 81q34 57 34 103q-8 -5 -34 -55q-29 -53 -82 -100z" />
    <glyph glyph-name="one" unicode="1" horiz-adv-x="800" 
d="M251 1048q-7 2 -17 2q-34 0 -104 -25q-30 -11 -47 -11h-5q-24 3 -32 32q-6 18 -6 36q0 21 8 40q66 177 173 211q62 20 151 20q78 0 175 -15q54 -6 69 -158q6 -58 6 -147q0 -81 -5 -187q-13 -340 -14 -340v-32q0 -126 21 -138q12 -7 39 -12q31 -7 42 -11q55 -22 55 -97v-3
q-1 -75 -45 -110q-37 -29 -299 -33h-52q-213 0 -252 23q-36 23 -47 85q-3 18 -3 34q0 36 14 64q15 31 67 32q58 2 74 20q28 59 57 365q12 122 12 203q0 138 -35 152zM114 1123q14 4 35 32q6 10 16 21q11 14 16 20q13 18 33 33q32 23 39 33q-50 0 -92 -46q-43 -48 -47 -93z
M120 224q0 -18 12 -18q5 0 12 3q7 4 19 12q13 9 16 10l28 11q22 8 36 18q45 30 46 90q-5 -3 -50 -53q-39 -44 -62 -51q-3 0 -36 -5q-21 -4 -21 -17z" />
    <glyph glyph-name="two" unicode="2" horiz-adv-x="992" 
d="M900 430q52 -39 52 -119v-3q-2 -95 -91 -166q-54 -42 -178 -42q-72 0 -167 14q-251 38 -335 118q-141 133 -141 269q0 34 9 68q39 152 244 284q5 3 47 27q41 23 67 40q83 54 83 87v2q-2 26 -44 35q-22 4 -72 4h-30q-135 0 -152 31q-30 51 -30 112q0 67 40 88
q71 37 256 37q83 0 188 -7q94 -6 163 -59q73 -55 92 -144q2 -8 2 -17q0 -52 -61 -131q-34 -45 -157 -172q-106 -111 -142 -170q-32 -52 -32 -93q0 -27 15 -49q13 -18 178 -21q171 -4 196 -23zM110 549q4 3 42 61q52 79 290 235q91 59 91 121q-13 -4 -27 -21
q-49 -64 -209 -160q-65 -39 -118 -96q-68 -75 -69 -140z" />
    <glyph glyph-name="three" unicode="3" horiz-adv-x="943" 
d="M204 675q-42 19 -44 63v8q0 94 94 116q27 6 92 11q62 5 92 12q48 13 48 51q0 4 -1 9q-5 46 -55 53q0 -2 -140 -16q-16 -2 -29 -2q-68 0 -73 43q-4 29 -4 55q0 161 131 226q94 47 277 47q24 0 50 -1q102 -3 170 -77t71 -184v-11q0 -143 -77 -214q-9 -8 -29 -24
q-17 -14 -25 -22q-23 -23 -23 -54v-2q2 -37 41 -74q7 -6 38 -32q25 -20 39 -35q56 -59 56 -150q0 -65 -29 -146q-34 -96 -109 -155q-71 -56 -208 -100q-62 -20 -148 -20q-28 0 -59 2q-128 10 -207 52q-58 32 -87 118q-16 47 -16 93q0 47 16 92q29 80 80 80h6q15 -2 143 -55
q52 -22 96 -22q34 0 64 14q59 27 67 88q1 7 1 14q0 53 -48 91q-54 44 -151 44q-14 0 -28 -1q-56 3 -82 15zM256 1128h-1q0 2 29 38q36 44 71 63q33 17 40 26q-62 0 -100 -33q-39 -34 -39 -94zM454 834l-23 -26q36 1 70 27q32 23 33 64q-19 -2 -31 -15q-26 -31 -49 -50z
M431 343q48 1 89 38q43 38 44 89q-13 -3 -36 -35q-27 -38 -62 -60q-25 -17 -35 -32z" />
    <glyph glyph-name="four" unicode="4" horiz-adv-x="915" 
d="M46 304q-6 15 -6 47q0 107 70 406q27 114 73 296q39 148 47 180q26 115 148 146q22 6 41 6q23 0 41 -8q33 -14 33 -49v-4q-1 -21 -23 -137q-27 -140 -39 -210q-36 -210 -36 -309q0 -54 11 -74q29 -53 153 -65q-9 31 -9 63q0 31 8 63q15 63 48 84q12 8 24 8q23 0 44 -31
q38 -55 59 -196h6q58 0 97 -51t39 -133v-8q-2 -69 -111 -114v-21q0 -93 -24 -142q-22 -41 -56 -41h-8q-37 5 -70 50q-33 47 -41 111q-58 -6 -113 -6q-111 0 -210 23q-163 37 -196 116zM535 474q7 -6 16 -6q12 0 27 11q30 23 30 73l-48 -42q-21 -22 -25 -36zM249 1152l30 60
q36 57 71 89q33 29 40 30q-62 -12 -99 -65q-36 -66 -42 -114z" />
    <glyph glyph-name="five" unicode="5" horiz-adv-x="979" 
d="M896 968q-10 -7 -42 -7q-46 0 -139 15q-136 23 -191 23q-15 0 -24 -2q-17 -3 -27 -51q-4 -18 -4 -36q0 -36 15 -71q318 -5 397 -162q29 -58 29 -156q0 -102 -31 -246q-20 -93 -102 -151q-76 -53 -178 -60q-52 -4 -124 -4q-61 0 -138 3q-206 8 -255 33q-42 23 -42 93
q0 65 32 119q12 21 76 21h11q25 0 73 -4q63 -5 80 -6q31 -2 57 -2q56 0 90 9q67 18 71 74q1 11 1 22q0 59 -44 89q-34 24 -124 41q-104 19 -143 36q-73 31 -97 97q-20 80 -20 180q0 56 6 118q18 163 60 218q118 111 435 111q101 0 223 -11q96 -75 110 -190q2 -19 2 -36
q0 -74 -43 -107zM464 251q47 4 82 36q38 33 39 79q-13 -3 -36 -31q-30 -35 -55 -54l-17 -12q-10 -9 -13 -18zM168 1025l5 7q5 8 7 11q33 84 73 121q42 38 77.5 56.5t101.5 37.5q-81 7 -171 -56q-107 -75 -93 -177z" />
    <glyph glyph-name="six" unicode="6" horiz-adv-x="1081" 
d="M464 716q7 -8 28 -8q15 0 37 4q273 51 320 51h5q176 -12 187 -230v-19q0 -175 -157 -303q-186 -151 -521 -151q-23 0 -47 1q-184 5 -245 278q-31 137 -31 383v44q1 72 8 141q18 190 94 283q74 90 258 151q62 21 156 21q34 0 72 -3q150 -10 229 -53q62 -33 87 -88
q16 -34 16 -73t-16 -84q-35 -96 -93 -129q-35 -21 -85 -21q-32 0 -70 9q-54 12 -98 12q-95 0 -144 -58q-27 -32 -27 -71v-8q3 -44 37 -79zM504 435q-2 -10 -2 -18q0 -16 6 -29q10 -21 34 -24q11 -2 23 -2q40 0 83 21q53 24 85 66q32 41 32 64q0 30 -54 30h-8q-21 0 -133 -29
q-54 -14 -66 -79zM134 1025l5 7q5 8 7 11q47 84 87 121q42 38 137 79q11 5 20 10l22 14q-81 -2 -171 -65q-107 -75 -107 -177zM630 301q63 0 117 52q52 52 60 86q1 4 1 7q0 6 -4 7h-1q-7 0 -17 -12q1 1 1 0l-19 -25q-32 -43 -82 -76q-51 -33 -56 -39z" />
    <glyph glyph-name="seven" unicode="7" horiz-adv-x="990" 
d="M849 582q2 -5 4 -6q61 -33 61 -64q0 -9 -6 -19q-19 -33 -95 -53q-31 -178 -53 -257q-34 -121 -135 -147q-24 -6 -46 -6q-62 0 -103 51q-24 31 -24 97q0 36 7 83q15 94 15 129q0 15 -3 19q-14 20 -38 20q-4 0 -9 -1q-23 -3 -41 -3t-31 3q-42 11 -71 40q-30 30 -34 63
q-1 6 -1 11q0 73 130 91q8 1 17 1q15 0 34 -3q21 -4 33 -4q5 0 8 1q41 6 60 98q5 23 5 42q0 67 -58 93q-41 19 -177 26q-132 7 -184 36q-74 40 -74 141q0 12 1 25q8 101 81 176q65 68 170 102q121 41 276 41q39 0 81 -3q246 -16 290 -136q11 -30 11 -85q0 -172 -105 -594z
M110 1113q9 7 34 46q26 41 56 64q32 26 77 49q43 22 51 29q-72 -2 -141 -54q-77 -58 -77 -134zM473 564q49 0 79 33q29 31 30 82q-11 -8 -33 -37q-23 -32 -45 -49q-24 -19 -31 -29z" />
    <glyph glyph-name="eight" unicode="8" horiz-adv-x="1085" 
d="M580 570q-15 2 -29 2q-64 0 -114 -41q-54 -45 -68 -115q-4 -19 -4 -36q0 -45 26 -75q31 -35 86 -35q19 0 41 4q50 9 97 53q44 42 62 94q10 27 10 50q0 25 -11 45q-24 44 -96 54zM208 975q-36 63 -36 128q0 41 15 84q40 115 173 183q138 71 343 71q19 0 38 -1
q113 -3 198 -91q79 -81 100 -198q6 -34 6 -66q0 -83 -40 -154q-61 -110 -203 -152q129 -72 171 -175q29 -70 29 -180q0 -62 -9 -136q-19 -144 -207 -226q-144 -62 -304 -62h-24q-169 5 -272 60q-84 46 -123 168q-23 74 -23 143q0 26 3 51q37 290 365 394q-139 51 -200 159z
M746 998v7q0 29 -23 51q-23 23 -61 30q-20 4 -38 4q-62 0 -95 -48q-18 -27 -18 -48q0 -32 41 -51q38 -18 80 -18q27 0 55 7q54 14 59 66zM687 860q43 0 75 28q31 28 34 68q-18 -1 -22 -6q-21 -28 -34 -41q-12 -12 -31 -27q-14 -10 -22 -22zM118 467q0 1 40 69q36 61 93 107
q9 8 113 69q51 30 51 75h1q2 0 2 -1q0 -9 -93 -67q-102 -63 -131 -91q-76 -70 -76 -161zM542 207q64 0 129 66q63 64 65 128q-11 -7 -33 -41q-26 -39 -54 -67q-24 -24 -65 -53q-37 -26 -42 -33z" />
    <glyph glyph-name="nine" unicode="9" horiz-adv-x="1081" 
d="M663 634q-315 -31 -375 -31h-10q-238 31 -238 300v2q0 184 167 313q186 144 514 144q22 0 44 -1q184 -6 245 -279q31 -137 31 -382v-44q-1 -73 -8 -141q-18 -191 -94 -283q-74 -91 -259 -152q-62 -20 -159 -20q-33 0 -69 2q-149 10 -228 53q-62 34 -87 88q-15 34 -15 73
q0 40 15 84q31 86 89 91h3q26 0 148 -28q53 -12 99 -12q104 0 170 62q40 36 45 81q1 6 1 12q0 38 -29 68zM575 901q30 25 40 58q4 12 4 23q0 20 -12 37q-19 30 -68 39q-18 8 -39 8q-32 0 -73 -19q-62 -28 -95 -74q-18 -25 -18 -45t17 -34q30 -25 109 -25q28 0 62 3
q41 3 73 29zM114 975q7 5 28 44q61 111 186 177l101 51q-92 0 -204 -87q-111 -87 -111 -185zM531 806q48 0 92 35q34 26 48 85l-17 -1v-1q0 -3 -4 -7q-2 -1 -13 -17q-27 -37 -85 -79q-10 -7 -11 -7zM568 353q58 0 116 50q58 52 59 107q-12 -3 -21 -16q-4 -5 -8 -12
q-5 -8 -9 -13q-33 -45 -88 -81q-14 -10 -25 -17q-18 -10 -24 -18z" />
    <glyph glyph-name="colon" unicode=":" horiz-adv-x="575" 
d="M433 866q2 -11 2 -22q0 -52 -53 -83q-43 -25 -94 -25q-14 0 -29 2q-48 7 -81 45q-32 36 -37 82q-1 8 -1 15q0 38 23 68q30 39 93 48q12 2 23 2q50 0 91 -32q50 -38 63 -100zM419 197q3 -18 3 -35q0 -45 -22 -89q-22 -43 -69 -62q-27 -11 -55 -11q-18 0 -35 4
q-47 11 -71 48q-18 28 -18 65q0 19 4 39q12 62 66 97q41 28 90 28q12 0 25 -2q68 -10 82 -82zM208 882q6 -2 11 -2q13 0 25 9q17 13 19 30q-13 10 -25 10q-9 0 -18 -6q-15 -10 -15 -26q0 -7 3 -15zM282 186q10 11 11 11q-1 0 -2 8q-10 4 -20 4q-20 0 -37 -17
q-16 -16 -16 -34q0 -11 5 -22q15 2 59 50z" />
    <glyph glyph-name="semicolon" unicode=";" horiz-adv-x="470" 
d="M207 208q21 7 40 7q54 0 92 -55q17 -24 17 -59q0 -37 -18 -86q-30 -81 -79 -133q-48 -70 -106 -47q-39 25 -23 58q48 32 49 48q1 8 1 15q0 42 -26 51q-40 15 -49 31q-5 9 -5 24q0 16 6 38q24 83 101 108zM175 90q4 -1 7 -1q13 0 27 13q18 16 18 31v3q-10 4 -18 4
q-14 0 -25 -9q-12 -10 -12 -25q0 -7 3 -16zM367 940q3 -18 3 -35q0 -45 -22 -89q-22 -43 -69 -62q-27 -11 -55 -11q-18 0 -35 4q-47 11 -71 48q-18 28 -18 65q0 19 4 39q12 62 66 97q41 28 90 28q12 0 25 -2q68 -10 82 -82zM230 929q10 11 11 11q-1 0 -2 8q-10 4 -20 4
q-20 0 -37 -17q-16 -16 -16 -34q0 -11 5 -22q15 2 59 50z" />
    <glyph glyph-name="semicolon" unicode="&#x37e;" horiz-adv-x="470" 
d="M207 208q21 7 40 7q54 0 92 -55q17 -24 17 -59q0 -37 -18 -86q-30 -81 -79 -133q-48 -70 -106 -47q-39 25 -23 58q48 32 49 48q1 8 1 15q0 42 -26 51q-40 15 -49 31q-5 9 -5 24q0 16 6 38q24 83 101 108zM175 90q4 -1 7 -1q13 0 27 13q18 16 18 31v3q-10 4 -18 4
q-14 0 -25 -9q-12 -10 -12 -25q0 -7 3 -16zM367 940q3 -18 3 -35q0 -45 -22 -89q-22 -43 -69 -62q-27 -11 -55 -11q-18 0 -35 4q-47 11 -71 48q-18 28 -18 65q0 19 4 39q12 62 66 97q41 28 90 28q12 0 25 -2q68 -10 82 -82zM230 929q10 11 11 11q-1 0 -2 8q-10 4 -20 4
q-20 0 -37 -17q-16 -16 -16 -34q0 -11 5 -22q15 2 59 50z" />
    <glyph glyph-name="less" unicode="&#x3c;" horiz-adv-x="1135" 
d="M154 659q-14 19 -14 47v14q0 28 14 46q14 35 41 74q563 434 652 435q11 1 21 1q91 0 118 -41q9 -14 9 -31q0 -41 -54 -99q-171 -183 -502 -392q331 -210 502 -393q54 -58 54 -99q0 -17 -9 -31q-27 -40 -118 -40h-21q-89 1 -652 435q-27 39 -41 74zM242 759q20 26 32 36
q54 44 75 59q22 16 78 58q48 35 78 58l324 220q-75 0 -499 -317q-67 -50 -80 -63q-40 -39 -40 -74q0 -5 1 -11q13 8 31 34z" />
    <glyph glyph-name="equal" unicode="=" horiz-adv-x="1080" 
d="M246 853q-120 24 -141 73q-5 11 -4 23q3 63 130 113q231 23 366 18q238 -5 284 -31q76 -39 93 -79q4 -9 5 -19q1 -43 -71 -69q-16 -6 -36 -11q-83 -21 -352 -30q-173 -8 -274 12zM246 408q-121 24 -141 73q-5 11 -5 23q4 63 131 113q230 23 365 18q238 -5 285 -31
q76 -38 93 -79q4 -9 5 -19q1 -43 -72 -69q-16 -6 -35 -11q-83 -20 -352 -30q-173 -8 -274 12z" />
    <glyph glyph-name="greater" unicode="&#x3e;" horiz-adv-x="1135" 
d="M940 585q-563 -434 -652 -435h-21q-90 0 -118 40q-9 14 -9 31q0 41 54 99q171 183 502 393q-331 209 -502 392q-54 58 -54 99q0 17 9 31q28 41 118 41q10 0 21 -1q89 -1 652 -435q27 -39 41 -74q14 -18 14 -46v-14q0 -28 -14 -47q-14 -35 -41 -74zM213 242q15 4 118 90
q125 106 144 120q17 12 67 50q40 31 68 51q70 50 71 50q40 36 40 74q-20 -2 -35 -19q-26 -33 -26 -34l-204 -153q-240 -191 -243 -229z" />
    <glyph glyph-name="question" unicode="?" horiz-adv-x="984" 
d="M506 1457h14q161 0 286 -129q133 -137 133 -300q0 -13 -1 -27q-9 -118 -166 -264q-184 -171 -217 -244q-8 -17 -12 -122q-2 -52 -94 -76q-30 -8 -57 -8q-29 0 -55 9q-59 21 -69 78q-4 22 -4 43q0 54 25 97q24 42 118 116q88 69 116 131q14 32 14 59q0 45 -38 79
q-35 30 -121 50q-107 25 -138 39q-99 46 -100 146q0 90 73 174q125 143 293 149zM502 197q35 -46 35 -91q0 -7 -1 -15q-6 -41 -50 -67q-40 -24 -95 -24h-4q-46 0 -77 32q-27 29 -27 63v2q2 32 59 76q41 32 79 43q17 5 32 5q31 0 49 -24zM424 140q-10 4 -20 4q-12 0 -24 -7
q-22 -13 -23 -40q46 1 67 43zM213 1152q0 4 47 74t130 111q91 46 95 46v-1q-17 4 -34 4q-72 0 -152 -66q-42 -34 -68 -76q-24 -38 -24 -66q0 -14 6 -26zM334 437h-1q-1 0 -1 1q0 6 76 82q0 -1 54 51q44 41 72 73q71 80 71 128q0 12 -5 22q-6 -5 -36 -59q-34 -58 -96 -118
q-22 -22 -55 -48q-33 -25 -43 -35q-36 -35 -36 -97z" />
    <glyph glyph-name="at" unicode="@" horiz-adv-x="1537" 
d="M1310 1134q75 -145 86 -318q1 -25 1 -49q0 -146 -51 -264q-65 -149 -194 -208q-66 -31 -116 -31q-51 0 -85 33q-2 2 -60 107q-54 -26 -107 -26q-48 0 -95 22q-91 42 -142 146q-39 81 -39 169q0 28 4 56q18 132 118 231q59 67 173 70h7q108 0 171 -58q8 65 10 67
q12 17 31 17q13 0 28 -7q36 -18 36 -37q0 -466 -108 -592q6 -10 8 -15q18 -44 53 -44q12 0 26 5q54 20 100 102q65 116 65 251q0 112 -45 236q-60 166 -164 248q-88 68 -188 68q-55 0 -114 -21q-166 -58 -284 -250q-102 -165 -102 -321q0 -66 18 -130q53 -187 240 -315
q173 -119 367 -127q14 -1 28 -1q182 0 274 113l93 -83q-18 -19 -35 -35q-178 -143 -400 -143q-47 0 -97 7q-260 34 -457 227q-202 199 -222 460q-2 27 -2 53q0 264 208 508q112 150 360 183q54 7 104 7q173 0 287 -85q130 -71 211 -226zM704 788q-36 -51 -36 -101t36 -100
q34 -46 75 -46h5q43 2 73 54q35 59 35 117q0 19 -4 39q-19 90 -78 99q-6 1 -12 1q-50 0 -94 -63z" />
    <glyph glyph-name="A" unicode="A" horiz-adv-x="1063" 
d="M1022 167q1 -9 1 -17q0 -53 -39 -91q-44 -44 -108 -45q-71 0 -127 53q-64 62 -89 181q-23 108 -100 110h-4q-74 0 -124 -99q-66 -131 -66 -132l1 1q-36 -61 -97 -93q-46 -24 -91 -24q-12 0 -25 2q-60 8 -90 55q-24 37 -24 91q0 24 4 50q14 86 41 196q36 144 59 224
q36 119 66 204q163 465 315 536q27 12 53 12q99 0 190 -174q174 -337 254 -1040zM619 675q-12 64 -22 102q-20 75 -39 75q-14 0 -26 -30q-13 -27 -46 -185q-3 -17 -3 -23v-3q1 -4 8 -4q4 0 9 1q21 5 41 5q23 0 45 -6q9 -3 32 -8l10 -3h1q3 0 3 3v2q-1 5 -13 74zM591 536
q18 -2 34 -2q50 0 63 23q5 9 5 23q0 28 -20 79q1 -7 1 -15q0 -25 -9 -48q-18 -49 -74 -60zM123 225q-1 0 -1 1q0 20 79 296q47 167 93 291q120 323 241 444q26 25 26 41q0 3 -1 6q-5 1 -10 1q-55 0 -134 -139q-72 -128 -150 -347q-148 -416 -148 -554q0 -25 5 -40z" />
    <glyph glyph-name="B" unicode="B" horiz-adv-x="1034" 
d="M174 1353q98 34 209 34q79 0 165 -17q198 -41 325 -151q121 -104 121 -227q0 -16 -2 -32q-22 -162 -249 -308q-22 -15 -98 -43q4 1 11 1q34 0 134 -40q150 -60 166 -166q2 -14 2 -29q0 -77 -68 -152q-79 -88 -220 -140q-144 -53 -290 -53q-102 0 -206 26q-22 6 -29 28
q-2 8 -5 591v237q0 366 5 396q7 36 29 45zM473 785q5 -16 29 -19q19 -2 37 -2q52 0 91 15q56 21 56 69q0 14 -4 29q-24 88 -148 88h-19q-42 -2 -48 -42v-44q3 -40 3 -53q0 -33 3 -41zM551 483q-21 11 -37 11q-33 0 -46 -46q-4 -16 -4 -33q0 -9 1 -19q5 -28 18 -37
q13 -5 31 -5q19 0 44 5q60 11 60 51v1q-7 45 -67 72zM297 1306q-12 9 -32 9q-18 0 -44 -8q-20 -7 -25 -24q-1 -5 -3 -48q39 55 104 71zM590 719q18 -2 33 -2q57 0 88 23q32 23 32 66q0 18 -6 40q-35 -98 -147 -127zM553 313q32 -12 57 -12q30 0 50 16q21 16 21 42
q0 23 -17 53q-3 -47 -27 -68q-23 -20 -84 -31z" />
    <glyph glyph-name="C" unicode="C" horiz-adv-x="1037" 
d="M620 1391q-29 3 -57 3q-223 0 -359 -192q-134 -188 -134 -471v-13q2 -290 141 -484q138 -194 357 -194q26 0 52 3q123 13 213 104q79 80 109 193q13 52 13 96q0 50 -16 90q-32 81 -116 81h-4q-44 0 -114 -31q-79 -35 -117 -41q-20 -3 -38 -3q-64 0 -108 38
q-49 43 -51 112v6q0 65 45 107q40 37 103 37q19 0 39 -3q37 -5 130 -40q83 -31 128 -32h4q84 0 114 92q13 41 13 90q0 55 -17 120q-33 128 -114 217q-93 103 -216 115zM583 460q122 31 215 83q-14 -61 -98 -82q-37 -9 -66 -9t-51 8zM134 841q0 124 57 242q59 123 159 192
q32 22 80 36q31 10 51 10q18 0 27 -8q-13 -8 -65 -29q-47 -20 -72 -37q-130 -99 -237 -406z" />
    <glyph glyph-name="D" unicode="D" horiz-adv-x="1201" 
d="M141 300q17 833 53 975q36 141 220 141q144 0 286 -70q56 -28 110 -67q178 -129 271 -321q74 -156 80 -309v-18q0 -124 -75 -247q-74 -121 -204 -216q-126 -92 -266 -132q-90 -26 -168 -26q-50 0 -95 10q-100 23 -156 83q-57 62 -57 151v9q0 18 1 37zM452 499
q29 -6 59 -6q42 0 87 12q73 20 119 62q40 37 40 75q0 7 -1 14q-11 52 -96 90q-86 39 -132 39q-52 0 -53 -49q-3 -145 -21 -227q-1 -6 -2 -10zM254 1174q13 56 25 79q24 45 54 59q47 23 52 27q-13 9 -31 9q-15 0 -33 -6q-44 -15 -62 -56q-24 -55 -24 -176q7 11 19 64z
M735 476q87 57 87 143q-10 -3 -52 -59q-46 -61 -130 -99q-77 -34 -78 -36q95 0 173 51z" />
    <glyph glyph-name="E" unicode="E" 
d="M774 742q56 -4 82 -16q42 -18 44 -63v-8q0 -95 -90 -121q-29 -8 -90 -15q-64 -8 -90 -14q-49 -13 -49 -56v-23q4 -24 54 -32q8 -1 23 -1q16 0 38 1q35 1 58 1h19q93 -5 99 -56q3 -26 3 -50q0 -164 -151 -231q-106 -48 -297 -48q-25 0 -51 1q-184 5 -245 279
q-31 137 -31 422v44q1 112 8 181q18 191 94 283q74 91 258 152q61 20 154 20q35 0 74 -3q150 -9 229 -52q58 -32 87 -117q16 -47 16 -93t-16 -92q-35 -97 -93 -130q-35 -20 -85 -20q-32 0 -70 8q-52 12 -85 12q-28 0 -42 -9q-34 -22 -34 -66q0 -36 16 -53q25 -26 163 -35z
M197 1000q13 54 26 86q51 118 195 178q6 3 72 26q54 20 63 26q-149 0 -278 -97q-97 -72 -97 -279q9 13 19 60z" />
    <glyph glyph-name="F" unicode="F" horiz-adv-x="1047" 
d="M143 718q-3 107 -3 190v40q5 297 60 386q63 100 260 100q35 0 74 -3q216 -17 363 -92q72 -51 109 -130q34 -72 34 -155q0 -20 -3 -40q-17 -125 -83 -160q-39 -14 -82 -14q-39 0 -88 4q-72 7 -120 7q-47 0 -71 -7q-85 -24 -86 -132q0 -98 41 -110q11 -3 44 -3t53 -5
q72 -21 100 -57q16 -21 16 -44q0 -12 -4 -24q-12 -34 -49 -60q-38 -26 -84 -31q-76 -8 -107 -8q-22 0 -22 4q0 1 1 2q-13 -12 -21 -154q-9 -140 -58 -183q-45 -39 -98 -39q-32 0 -68 15q-99 41 -107 171q-3 42 -3 101q0 47 2 105q5 151 5 155zM242 1205q11 49 35 77
q29 35 66 49q49 19 60 26q-16 4 -33 4q-22 0 -47 -7q-47 -12 -70 -42q-32 -43 -32 -173q9 13 21 66z" />
    <glyph glyph-name="G" unicode="G" horiz-adv-x="1261" 
d="M679 792q-42 -82 -42 -186q0 -27 3 -56q16 -166 139 -191q58 -12 86 -12q27 0 27 11v2q-2 8 -24 36q-28 35 -39 54q-21 34 -21 62q0 35 32 60q45 36 156 36h23q129 -3 169 -46q21 -21 29 -50q4 -15 4 -28q0 -20 -9 -38q-3 -6 -103 -80q-15 -12 -23 -82q-9 -78 -29 -108
q-59 -89 -182 -133q-89 -33 -183 -33q-21 0 -42 2q-318 24 -473 275q-107 173 -107 397q0 76 12 158q32 216 189 377q160 165 374 194q44 6 87 6q145 0 280 -67q106 -52 126 -140q6 -22 6 -57q0 -51 -13 -130q-10 -58 -20 -78q-10 -18 -30 -18q-3 0 -56 10q-38 7 -77 7h-17
q-172 -9 -252 -154zM888 497q2 -1 5 -1q13 0 44 24q14 11 16 20q-8 3 -19 3q-16 0 -37 -8q-15 -6 -19 -17q-1 -3 -1 -5q0 -10 11 -16zM844 293q21 -4 38 -4q34 0 55 16q25 19 25 51q0 30 -15 30q-16 -1 -24 -51q-7 -8 -37 -21q-33 -14 -42 -21zM145 795q1 -1 32 103
q10 33 40 93t108 159q73 93 241 158q9 4 55 17q38 10 49 18q-212 0 -370 -167q-155 -165 -156 -379z" />
    <glyph glyph-name="H" unicode="H" horiz-adv-x="1275" 
d="M128 626q-20 352 -24 389q-4 42 -4 79q0 143 55 224q52 76 134 76q13 0 28 -2q100 -15 173 -119q80 -114 80 -276q0 -10 -2 -101q-1 -18 -1 -33q0 -39 4 -64q17 -102 114 -110h4q59 0 71 160q4 47 4 133q1 81 3 102q12 120 83 198q64 71 147 79q9 1 18 1q72 0 118 -56
q52 -63 52 -173q0 -15 -1 -31q-41 -671 -111 -911q-50 -171 -185 -171q-8 0 -17 1q-64 5 -93 137q-8 39 -16 105q-9 67 -12 82q-15 66 -88 82q-14 3 -26 3q-58 0 -86 -70q-12 -30 -32 -99q-19 -65 -32 -96q-44 -102 -135 -106h-19q-97 0 -125 38q-15 22 -42 157
q-22 111 -37 372zM192 1191q12 36 21 51q8 13 38 41q27 25 30 36q-11 5 -22 5q-15 0 -30 -9q-23 -14 -36 -41q-21 -43 -21 -131q9 14 20 48zM897 1199q28 35 61 56q31 19 37 28h-3q-111 0 -153 -138q-22 -72 -22 -158q0 -24 2 -50q14 182 78 262zM822 845q1 -22 1 -42
q0 -62 -12 -96q-22 -59 -91 -73q-13 -3 -28 -3q-19 0 -40 5q-36 8 -36 10q46 -36 95 -36q6 0 12 1q107 8 107 149q0 38 -8 85z" />
    <glyph glyph-name="I" unicode="I" horiz-adv-x="934" 
d="M227 922q-44 6 -54 9q-59 13 -74 64q-19 63 -19 102v11q1 72 25 134q38 104 266 124q51 4 176 4q140 0 224 -42q86 -42 103 -177q3 -24 3 -54q0 -54 -52 -122q-33 -43 -76 -56q-16 -5 -72 -10q-39 -3 -58 -21q-26 -25 -36 -101q-5 -35 -5 -155q0 -16 1 -28
q4 -200 27 -218q11 -8 88 -13q43 -6 62 -9q55 -22 55 -98v-3q10 -193 -35 -229q-47 -29 -365 -33q-22 -1 -41 -1q-143 0 -201 24q-36 22 -46 84q-3 140 -3 157q0 35 13 62q15 31 112 32q72 2 88 19q17 37 17 188q0 52 -2 54q-9 267 -64 290q-22 7 -57 12zM185 1194
q16 31 44 47q20 12 68 28q45 15 53 21q-101 0 -150 -26q-30 -16 -45 -53q-7 -18 -7 -33q0 -18 10 -22q5 -14 27 38zM183 288q-1 -5 -1 -9q0 -22 61 -22h5q33 2 62 16q57 28 81 77q14 29 14 62q0 29 -11 61q0 -1 -1 -24q-1 -25 -6 -45q-16 -66 -81 -92q-12 -5 -58 -5
q-63 0 -65 -19z" />
    <glyph glyph-name="J" unicode="J" horiz-adv-x="897" 
d="M165 853q-66 13 -83 66q-22 69 -35 169q-7 55 -7 94q0 50 11 76q45 104 321 123q64 5 120 5q165 0 261 -40q81 -33 99 -201q5 -45 5 -85q0 -90 -24 -157q-20 -59 -109 -66q-64 -8 -70 -18q-1 -2 -1 -10q0 -66 -11 -275q-6 -113 -14 -194q0 -91 -20 -157
q-27 -91 -141 -133q-82 -30 -188 -30h-25q-167 5 -187 120q-2 13 -2 26q0 30 12 59q16 40 42 53q24 12 105 25q78 11 101 35q34 35 34 142q0 23 -2 50q-7 168 -34 271q-10 27 -15 33q-9 11 -35 12q-104 7 -108 7zM139 1215q11 18 14 21q21 22 109 48l64 20q-170 0 -209 -51
q-13 -17 -13 -34q0 -15 11 -31q14 12 24 27zM130 161q2 16 8 26q18 33 86 34h15q74 0 124 37q56 42 56 121q0 22 -4 47v-11q0 -53 -19 -84q-22 -34 -85 -64q-36 -18 -94 -18q-56 -1 -71 -9q-21 -12 -26 -42q-1 -8 -1 -16q0 -21 3.5 -27.5t7.5 6.5z" />
    <glyph glyph-name="K" unicode="K" horiz-adv-x="1154" 
d="M1100 1115q-29 -102 -126 -211q-188 -211 -403 -275q204 -49 318 -150q131 -115 179 -200q76 -136 -34 -218q-89 -66 -207 -26q-90 31 -188 120q-60 56 -131 157q-7 -24 -21 -113q-11 -64 -32 -111q-23 -49 -70 -72q-42 -21 -93 -15q-50 6 -89 35q-41 31 -54 77
q-30 108 -44 417q-16 347 14 570q23 164 110 245q78 73 174 56q124 -22 148 -138q10 -47 6 -308q7 10 30 49q29 50 47 79q71 115 132 186q190 223 303 58q63 -94 31 -212zM780 1206q-27 -35 -67 -95q-39 -58 -48 -69q3 3 -52 -47q-35 -32 -23 -45q24 -26 106 89
q117 163 139 184q84 85 84 87q-48 14 -139 -104zM228 1213q30 52 96 100q-33 24 -79 -29q-45 -53 -54 -130q5 5 37 59z" />
    <glyph glyph-name="L" unicode="L" horiz-adv-x="957" 
d="M579 325q8 -2 23 -2q10 0 24 1q70 4 119 4q88 0 107 -12q50 -29 60 -83q4 -33 -2 -67q-20 -91 -99 -131q-51 -25 -166 -25q-61 0 -139 17q-177 38 -245 126q-81 103 -121 389q-17 121 -33 314q-7 101 -7 180q0 161 29 228q27 62 99 98q65 32 144 32h5q190 -2 250 -180
q28 -83 28 -208q0 -81 -12 -180q-9 -72 -67 -341q-16 -86 -16 -121v-4q0 -36 15 -36q2 0 4 1zM192 1185q13 37 35 63q18 20 57 39q43 21 53 30q-10 6 -25 6h-8q-61 -7 -97 -43q-38 -37 -38 -150q9 13 23 55z" />
    <glyph glyph-name="M" unicode="M" horiz-adv-x="1573" 
d="M40 287q0 23 2 49q2 37 36 219q34 213 43 266q25 139 46 232q16 70 34 134q16 59 32 95q42 93 120 107q11 2 22 2q67 0 120 -68q63 -80 137 -262q104 -253 134 -310q25 -49 38 -49q3 0 5 3q3 3 23 79q5 21 29 124q21 91 37 148q52 182 113 243q75 74 168 74h2
q104 -2 144 -105q48 -124 128 -536t80 -548v-6q-1 -63 -57 -107q-50 -39 -120 -56q-41 -11 -81 -11q-22 0 -44 2q-71 8 -112 80q-21 36 -34 157q-13 98 -19 136t-10 38q-4 -2 -31 -71q-87 -222 -225 -222q-7 0 -14 1q-140 12 -226 261q-10 65 -15 66q-6 0 -16 -65
q-33 -198 -43 -220q0 -1 1 -1q-45 -118 -168 -152q-18 -1 -36 -1q-115 10 -190 88q-53 55 -53 186zM836 629q56 0 92 166q4 20 21 115q15 79 27 128q39 152 108 213q5 4 41 20q28 12 29 24q-10 7 -23 7q-19 0 -47 -16q-46 -27 -72 -78q-34 -66 -81 -283q-43 -202 -69 -236
q-8 -11 -34 -29q-9 -6 -9 -18q0 -5 1 -10q8 -3 16 -3zM288 1177q12 36 21 51q8 13 38 41q27 25 30 36q-11 5 -22 5q-15 0 -30 -9q-23 -14 -36 -41q-21 -43 -21 -131q9 14 20 48z" />
    <glyph glyph-name="N" unicode="N" horiz-adv-x="1294" 
d="M449 20q-31 -20 -103 -20h-4q-113 2 -146 25q-35 25 -42 67q-14 96 -14 346q0 79 1 173q5 388 5 519v70q0 80 27 117q19 40 65 65q63 22 113 12t88 -46t90 -122q137 -225 239 -558q35 -113 49 -113h1q11 6 40 144q15 70 20 346q5 237 33 277q51 72 145 72q11 0 22 -1
q114 -11 125 -122q10 -107 10 -241q0 -169 -16 -379q-37 -487 -151 -589q-56 -49 -137 -53h-12q-76 0 -129 46q-143 124 -209 275q-14 32 -27 69q-14 36 -15 38q-2 6 -4 6q-1 0 -2 -4q-1 -6 -2 -41q-6 -245 -17 -311q-7 -43 -43 -67zM964 1221q22 44 25 48q7 9 26 22
q20 13 27 22q-10 7 -16 8q-8 2 -15 2q-30 0 -51 -35q-14 -22 -14 -42q0 -18 12 -34q4 4 6 9zM822 517q18 -10 33 -10q44 0 60 84q20 61 20 118q0 21 -3 41q-5 -12 -14 -55q-10 -47 -18 -73q-29 -94 -78 -105zM253 1273q10 8 12 16q-11 3 -20 3q-31 0 -47 -33
q-17 -35 -17 -85q0 -33 7 -71q14 128 65 170z" />
    <glyph glyph-name="O" unicode="O" horiz-adv-x="1273" 
d="M1136 1065q62 -146 67 -320v-24q0 -161 -51 -305q-58 -164 -170 -265q-137 -124 -333 -131h-20q-192 0 -309 127q-200 219 -241 512q-9 64 -9 125q0 235 136 417q112 150 360 183q54 7 104 7q173 0 287 -85q114 -86 179 -241zM475 729q-39 -65 -39 -125q0 -81 72 -152
q51 -51 104 -51q10 0 21 2q64 11 101 89q34 71 34 137q0 43 -14 83q-42 121 -131 122q-86 0 -148 -105zM783 413q51 74 51 172q-2 -2 -36 -79q-35 -77 -100 -124q-62 -44 -64 -52q92 0 149 83zM175 940q19 67 33 100q58 137 214 216q23 12 91 32q62 18 75 27
q-200 0 -321 -124t-121 -325q14 20 29 74z" />
    <glyph glyph-name="P" unicode="P" horiz-adv-x="1248" 
d="M456 333q-14 -19 -14 -62q0 -24 4 -55q10 -79 10 -108q0 -9 -1 -13q-12 -70 -125 -75q-8 -1 -15 -1q-101 1 -121 64q-42 128 -53 626q-1 47 -1 90q0 370 76 493q51 84 172 110q51 11 111 11q64 0 138 -13q298 -51 423 -195q123 -141 123 -297q0 -110 -62 -228
q-107 -203 -291 -280q-77 -32 -226 -39q-128 -5 -148 -28zM446 641q32 -7 64 -7q36 0 73 9q73 17 120 63q43 41 50 72q2 7 2 13q0 31 -34 61q-51 46 -127 46q-17 0 -36 -2q-100 -12 -136 -84q-22 -41 -22 -102v-5q3 -55 4 -56q2 -2 12 -2q15 -1 30 -6zM233 1102q10 41 12 49
q20 56 42 86q26 37 66 61q12 7 47 19q30 9 41 20q-14 3 -29 3q-29 0 -64 -11q-58 -20 -82 -59q-48 -79 -48 -212q8 13 15 44zM731 622q85 64 85 151q-5 -2 -49 -63q-45 -63 -128 -105q-6 -3 -44 -17q-27 -11 -39 -21q101 0 175 55z" />
    <glyph glyph-name="Q" unicode="Q" horiz-adv-x="1266" 
d="M1043 4v-5q0 -46 -36 -88q-38 -43 -83 -46h-8q-83 0 -123 104q-5 13 -14 20q-10 8 -27 13q-36 10 -113 16q-86 7 -118 14q-156 33 -268 153q-111 118 -153 293q-20 84 -20 169q0 93 24 188q46 178 165 322q160 192 394 202q13 1 25 1q225 0 371 -190q148 -191 148 -463
q0 -37 -3 -76q-22 -325 -219 -491q55 -84 58 -136zM683 833q-40 23 -77 28q-15 2 -29 1q-59 -3 -120 -54q-60 -52 -76 -115q-3 -13 -5 -26q-13 -96 45 -188q64 -100 167 -131q17 -5 30 -7q45 -6 49 24q1 8 0 18q-9 51 -8 59q7 42 56 43l6 -1q18 -2 36 -18q21 -20 31 -21
l1 -1q21 0 35 45q7 23 10 46q17 118 -63 225q-33 43 -88 73zM605 277q14 -9 28 -11q33 -4 67 26q16 14 23 46q5 28 22 38q8 4 35 6q29 2 46 8q60 20 73 109q-27 -13 -36 -39q-2 -6 -5 -20q-1 -13 -3 -19q-7 -18 -32 -20q-12 0 -30 3q-31 4 -78 16q-1 -31 -4 -53
q-7 -51 -24 -63q-8 -6 -33 -11q-28 -6 -49 -16zM194 847q39 118 123 231q72 98 195 155q31 15 82 33q37 14 43 19q-203 0 -348 -182q-136 -172 -136 -381q1 1 41 125z" />
    <glyph glyph-name="R" unicode="R" horiz-adv-x="1066" 
d="M293 4q-94 0 -111 47q-33 91 -40 605q-2 100 -2 183q0 334 26 411q40 119 203 139q34 4 69 4q95 0 195 -32q173 -56 286 -259q94 -169 94 -336q0 -24 -2 -47q-11 -136 -104 -239q-44 -44 -77 -61.5t-77 -36.5q-23 -10 -27 -16q-1 -2 -1 -4q0 -8 14 -20q23 -21 90 -93
q66 -70 93 -94q46 -40 46 -70q0 -11 -6 -20q-34 -52 -174 -55h-11q-101 0 -148 36q0 4 -121 196q-28 50 -45 50q-2 0 -3 -1q-12 -3 -12 -46v-16q1 -13 1 -61q0 -106 -29 -132q-37 -32 -127 -32zM431 790v-7q0 -89 59 -89q19 0 44 9q111 40 114 117v2q0 46 -55 70
q-41 17 -98 18h-3q-43 0 -54 -33q-5 -15 -7 -87zM237 1192q7 32 42 67q20 19 73 42q17 7 19 7l4 13q-87 0 -122 -35q-36 -35 -36 -123q15 6 20 29zM667 689q46 46 46 84q0 13 -6 26q-9 -30 -36 -63q-44 -51 -104 -85q-32 -18 -56 -25q91 -2 156 63z" />
    <glyph glyph-name="S" unicode="S" horiz-adv-x="1056" 
d="M738 816q-183 -4 -197 -25q-4 -6 -4 -13q0 -23 36 -60q14 -14 99 -91q78 -71 125 -120q133 -142 133 -233q0 -13 -2 -24q-21 -100 -102 -163q-76 -61 -180 -68q-80 -5 -145 -5q-320 0 -394 40q-44 24 -44 100q0 69 33 128q19 34 161 34h179q58 0 84 5q46 9 48 40v2
q0 37 -92 99q-29 19 -74 46q-46 27 -52 31q-227 149 -270 322q-10 39 -10 78q0 154 155 304q95 92 325 135q88 16 156 16q118 0 177 -48q100 -80 115 -277q3 -36 3 -67q0 -124 -46 -160q-27 -22 -217 -26zM155 220q15 18 48 19q-18 12 -33 12q-13 0 -25 -9q-16 -12 -16 -33
q0 -12 6 -28q12 30 20 39zM483 260q14 -10 34 -10q24 0 56 15q51 22 51 69q0 15 -5 32q-6 -36 -36 -68q-37 -39 -88 -39q-6 0 -12 1zM179 1027q22 51 40 78q70 103 240 162q7 2 86 22q61 17 70 25q-10 1 -21 1q-49 0 -138 -24q-108 -29 -164 -64q-65 -41 -118 -129
q-36 -60 -36 -97q0 -20 9 -32q13 15 32 58z" />
    <glyph glyph-name="T" unicode="T" horiz-adv-x="1018" 
d="M207 802q-93 8 -110 8h-3q-42 16 -56 78q-14 59 -17 151q-1 33 -1 62q0 130 15 166q29 68 153 100q92 24 219 24q23 0 47 -1q346 -9 452 -104q61 -56 83 -189q9 -55 9 -170q0 -19 -18 -58v-1l-1 -1q-38 -85 -197 -104q-60 -6 -79 -22q-24 -20 -26 -81q-10 -496 -50 -592
q-25 -61 -125 -67q-7 -1 -13 -1q-93 0 -117 62v1q-13 32 -23 97q-11 68 -17 154q-2 17 -5 237q-3 127 -11 157q-23 88 -109 94zM173 1272q60 27 121 41q-12 1 -23 1q-61 0 -125 -22q-67 -22 -67 -122q0 -34 8 -76q1 138 86 178zM375 535q0 -181 21 -280q-15 407 -15 426
q-6 -76 -6 -146z" />
    <glyph glyph-name="U" unicode="U" horiz-adv-x="1217" 
d="M814 31q-81 -31 -199 -31q-31 0 -84 3q-129 12 -236 69q-111 58 -155 143q-62 121 -73 459q-2 58 -2 160q0 299 48 403q52 115 175 144q27 6 50 6q91 0 133 -96q13 -29 21 -76q9 -56 9 -162q0 -78 -5 -213q-3 -121 -3 -179q0 -115 16 -187t87 -72h6q74 4 105 74
q44 100 63 362q21 280 57 386q48 143 152 143q46 -1 85 -36q42 -38 63 -105q24 -74 24 -192q0 -157 -28 -387q-51 -309 -135 -468q-54 -102 -174 -148zM875 1086q15 66 21 84q18 54 51 85q18 17 18 32q0 4 -1 7q-7 2 -13 2q-49 0 -77 -112q-21 -79 -21 -136q0 -18 2 -34
q6 13 20 72zM163 1125q13 53 38 89q20 31 62 59q41 26 48 37q-13 6 -27 6q-30 0 -64 -27q-56 -45 -69 -128q-1 -6 -4 -51l-1 -41q3 4 17 56zM790 467q39 99 39 205l-27 -86q-44 -157 -132 -214q-52 -21 -53 -21l-2 -16q123 0 175 132z" />
    <glyph glyph-name="V" unicode="V" horiz-adv-x="1363" 
d="M96 1184q10 3 11 3l2 4q2 4 6 10q19 31 32 43q14 14 20 23q-14 12 -28 12q-16 0 -30 -18q-13 -16 -13 -77zM142 1352q96 39 186 -32q108 -83 204 -465q29 -118 65 -296q38 -189 44 -216q140 491 157 542q132 402 239 477q39 27 94 27q54 1 104 -24q118 -57 113 -175
q-8 -249 -217 -680q-109 -226 -227 -356q-139 -154 -274 -154q-114 0 -236 151q-105 130 -201 349q-85 195 -135 392q-48 193 -36 281q18 139 120 179zM845 798q53 87 106 219l23 68q72 172 113 194q48 47 52 47v-1q-12 9 -25 9q-56 0 -114 -126q-27 -59 -66 -153l-74 -196
q-15 -47 -15 -60v-1z" />
    <glyph glyph-name="W" unicode="W" horiz-adv-x="1617" 
d="M651 745q20 107 61 170q37 57 82 64q44 6 80 -38q39 -48 57 -138q7 -20 17 -99q14 -105 20 -137q12 -74 27 -94q17 -25 40 30q29 83 77 452q41 317 91 367q48 47 120 67q69 18 134 5q69 -13 107 -56q43 -47 37 -119q-21 -253 -154 -664q-155 -482 -296 -536
q-59 -23 -121 -18q-67 6 -113 44q-57 48 -84 152q-25 92 -27 92q-6 0 -11 -18q-2 -5 -5 -21q-4 -16 -7 -27q-22 -84 -73 -143q-125 -143 -312 -20q-197 129 -299 525q-89 345 -59 639q12 120 93 159q80 39 177 -30q85 -62 155 -197q40 -77 68 -396q25 -294 45 -303
q23 -10 36 13q8 15 10 34q7 113 27 241zM120 1239q7 18 17 33q44 67 43 57q-32 0 -41 -3q-16 -5 -28 -28q-9 -18 -12 -42q-3 -29 8 -43zM1311 1337q-37 -16 -54 -39q-20 -28 -43 -125q-6 -26 -66 -364q-47 -262 -79 -324q-2 -4 -47 -52q-31 -33 -15 -48q62 -56 121 192
q8 33 53 292q59 336 103 399q11 16 55 44q37 25 35 32q-24 9 -63 -7zM601 362q11 -4 20 -4q33 0 54 63q10 27 31 142q20 104 31 135q3 11 12 29q9 20 13 30q9 25 8 43q-1 8 -3 16q-5 3 -9 3q-32 0 -59 -137q-40 -188 -55 -211q-4 -8 -16 -23q-12 -14 -17 -22
q-13 -22 -12 -50q1 -6 2 -14z" />
    <glyph glyph-name="X" unicode="X" horiz-adv-x="1234" 
d="M102 1009q88 -122 210 -237q94 -88 96 -105q-2 19 -212 -246q-191 -240 -81 -365q113 -127 334 54q66 54 142 138l64 69l45 -70q53 -84 105 -139q171 -183 319 -56q147 126 -39 374q-49 66 -145 168q-75 79 -76 91q-2 14 71 86q100 100 147 158q196 241 79 399
q-118 161 -330 -85q-62 -72 -136 -186q-60 -93 -62 -93q-3 0 -40 64q-51 86 -90 143q-144 210 -253 227q-74 12 -150 -70q-77 -83 -65 -168q10 -71 67 -151zM641 885q-1 -2 59 48q28 23 190 241q59 79 94 111q46 42 69 23q-3 -15 -22 -30q-38 -29 -32 -23q-1 -2 -48 -56
q-13 -15 -62 -85q-54 -77 -87 -119q-116 -147 -161 -110zM152 171q-10 14 -11 16q0 3 5 22q17 66 124 178q131 137 135 142l80 127q0 -85 -58 -153l-194 -213q-26 -31 -52 -75q-23 -39 -29 -44zM108 1190q-10 21 1 50q9 26 32 48q22 23 45 31q25 8 40 -5q-5 -7 -30 -26
q-29 -21 -35 -27q-8 -8 -26 -39q-15 -26 -27 -32z" />
    <glyph glyph-name="Y" unicode="Y" horiz-adv-x="1184" 
d="M703 1047q37 105 66 167q78 167 183 170h5q67 0 121 -24q68 -31 80 -89q3 -14 3 -31q13 -131 -263 -489q-128 -166 -73 -370q18 -173 -3 -254q-16 -78 -47 -97q-39 -29 -152 -30h-4q-108 0 -149 24q-44 26 -61 68q-13 30 -19 97.5t3 158.5t24 162.5t-21 143.5
q-22 44 -108 150q-161 198 -168 209q-110 150 -110 223v5q5 74 76 111q42 22 90 22q32 0 67 -10q141 -39 231 -181q60 -96 115 -278q18 -58 28 -58q9 1 34 59q11 26 52 141zM127 1265q31 26 35 38q-86 0 -86 -41q0 -11 7 -26q13 4 44 29zM626 809q12 -9 24 -9q40 0 85 98
q18 40 39 101l23 68q67 172 108 194q48 47 52 47v-1q-12 9 -25 9q-56 0 -114 -126q-27 -59 -61 -153q-35 -96 -39 -104q-12 -26 -55 -72q-37 -38 -37 -51v-1z" />
    <glyph glyph-name="Z" unicode="Z" horiz-adv-x="1106" 
d="M956 1338q121 -45 121 -131v-7q0 -70 -18 -127q-30 -110 -180 -325q-236 -312 -266 -351q-40 -52 -40 -74v-4q6 -21 76 -26q21 -1 82 -2t96 -3q158 -7 206 -38q46 -30 46 -73v-2q0 -42 -46 -69q-115 -70 -492 -76h-53q-295 0 -402 62q-56 32 -56 76v7q3 28 46 104
q42 75 260 338q193 232 220 325q4 14 4 25q0 27 -27 34q-1 0 -192 14q-150 11 -182 37q-54 44 -54 97q0 10 2 21q22 114 223 166q86 22 260 41q64 6 126 6q136 0 240 -45zM298 1265q-40 -10 -85 -36q-43 -26 -43 -46q0 -9 8 -17q4 -4 9 -4q9 0 22 12q4 5 17 18q10 11 15 15
q24 18 77 38q33 12 107 29q65 14 74 20q-87 0 -201 -29zM104 194h2q17 0 38 30q6 9 16 27t13 24q36 53 66 91q22 27 72 86q46 56 70 87q13 16 73 87q50 59 78 98q87 121 88 212q-4 -3 -56 -88q-56 -92 -65 -106q-23 -32 -98 -122q-105 -127 -136 -165q-162 -201 -162 -255
q0 -3 1 -6z" />
    <glyph glyph-name="bracketleft" unicode="[" horiz-adv-x="876" 
d="M531 286q39 -45 113 -85q70 -38 83 -57q9 -13 9 -30q0 -28 -24 -67q-22 -63 -85 -66q-11 -1 -21 -1q-102 0 -201 53q-130 71 -187 207q-78 185 -78 447q0 78 7 163q16 204 92 361q84 174 264 204q24 4 46 4q50 0 90 -20q61 -30 79 -98q6 -22 6 -39q0 -35 -22 -54
q-12 -10 -38 -23q-36 -18 -46 -25q-88 -52 -140 -291q-32 -150 -32 -276q0 -65 8 -124q16 -113 77 -183zM485 1357q-30 -1 -83 -37q-47 -32 -69 -59q-63 -78 -71 -175l20 34q15 38 18 42q43 79 106 129q41 32 79 41v25z" />
    <glyph glyph-name="backslash" unicode="\" horiz-adv-x="780" 
d="M257 677q-196 534 -205 620q-2 20 -2 37q0 78 45 94q10 3 21 3q47 0 114 -56q43 -33 242 -533q198 -497 258 -721q-5 -138 -68 -166q-12 -5 -25 -5q-57 0 -125 103q-57 86 -255 624z" />
    <glyph glyph-name="bracketright" unicode="]" horiz-adv-x="889" 
d="M346 1105q-40 43 -115 82q-69 35 -82 54q-9 13 -9 30q0 27 23 66q21 62 84 67q14 1 28 1q98 0 195 -49q132 -66 191 -199q88 -195 88 -478q0 -58 -4 -121q-13 -201 -86 -357q-80 -173 -260 -206q-26 -5 -51 -5q-46 0 -85 18q-62 29 -81 95q-5 17 -5 32q0 36 31 53
q11 6 45 18q32 12 49 23q89 54 127 280q19 110 19 214q0 105 -19 204q-20 110 -83 178zM245 115q30 1 83 37q47 32 69 59q63 79 71 176l-20 -34q-15 -38 -18 -42q-43 -80 -106 -130q-41 -32 -79 -41v-25z" />
    <glyph glyph-name="asciicircum" unicode="^" horiz-adv-x="883" 
d="M404 1551q13 10 34 10h8q20 0 34 -10q25 -10 53 -30q310 -401 310 -465v-17q0 -63 -28 -82q-10 -7 -23 -7q-29 0 -70 38q-262 246 -280 274q-49 -76 -152 -167q-29 -24 -76 -63q-41 -33 -52 -44q-41 -38 -70 -38q-13 0 -23 7q-29 19 -29 83v16q1 64 310 465q28 20 54 30z
M112 1070q13 9 124 164q117 164 144 191q38 38 41 50q-38 0 -59 -26q-89 -107 -224 -313q-25 -38 -26 -66z" />
    <glyph glyph-name="underscore" unicode="_" horiz-adv-x="858" 
d="M-123 -191q-34 42 -34 85q0 9 1 17q9 55 70 83q33 14 336 16h21q64 0 159 -5q34 -2 65 -2q46 0 86 4q27 2 50 2q267 0 306 -17q78 -34 78 -106v-6q-2 -80 -109 -90q-258 -11 -349 -13q-33 -1 -69 -1q-108 0 -237 7q-361 8 -374 26z" />
    <glyph glyph-name="grave" unicode="`" horiz-adv-x="632" 
d="M447 1070q-20 -14 -44 -14q-22 0 -46 11q-28 12 -114 106q-85 95 -95 125q-8 23 -8 43q0 41 33 69q21 18 45 18q34 0 72 -35q47 -35 122 -122q80 -92 80 -120v-3q-8 -54 -45 -78z" />
    <glyph glyph-name="a" unicode="a" horiz-adv-x="1063" 
d="M1022 167q1 -9 1 -17q0 -53 -39 -91q-44 -44 -108 -45q-71 0 -127 53q-64 62 -89 181q-23 108 -100 110h-4q-74 0 -124 -99q-66 -131 -66 -132l1 1q-36 -61 -97 -93q-46 -24 -91 -24q-12 0 -25 2q-60 8 -90 55q-24 37 -24 91q0 24 4 50q14 86 41 196q36 144 59 224
q36 119 66 204q163 465 315 536q27 12 53 12q99 0 190 -174q174 -337 254 -1040zM619 675q-12 64 -22 102q-20 75 -39 75q-14 0 -26 -30q-13 -27 -46 -185q-3 -17 -3 -23v-3q1 -4 8 -4q4 0 9 1q21 5 41 5q23 0 45 -6q9 -3 32 -8l10 -3h1q3 0 3 3v2q-1 5 -13 74zM591 536
q18 -2 34 -2q50 0 63 23q5 9 5 23q0 28 -20 79q1 -7 1 -15q0 -25 -9 -48q-18 -49 -74 -60zM123 225q-1 0 -1 1q0 20 79 296q47 167 93 291q120 323 241 444q26 25 26 41q0 3 -1 6q-5 1 -10 1q-55 0 -134 -139q-72 -128 -150 -347q-148 -416 -148 -554q0 -25 5 -40z" />
    <glyph glyph-name="b" unicode="b" horiz-adv-x="1034" 
d="M174 1353q98 34 209 34q79 0 165 -17q198 -41 325 -151q121 -104 121 -227q0 -16 -2 -32q-22 -162 -249 -308q-22 -15 -98 -43q4 1 11 1q34 0 134 -40q150 -60 166 -166q2 -14 2 -29q0 -77 -68 -152q-79 -88 -220 -140q-144 -53 -290 -53q-102 0 -206 26q-22 6 -29 28
q-2 8 -5 591v237q0 366 5 396q7 36 29 45zM473 785q5 -16 29 -19q19 -2 37 -2q52 0 91 15q56 21 56 69q0 14 -4 29q-24 88 -148 88h-19q-42 -2 -48 -42v-44q3 -40 3 -53q0 -33 3 -41zM551 483q-21 11 -37 11q-33 0 -46 -46q-4 -16 -4 -33q0 -9 1 -19q5 -28 18 -37
q13 -5 31 -5q19 0 44 5q60 11 60 51v1q-7 45 -67 72zM297 1306q-12 9 -32 9q-18 0 -44 -8q-20 -7 -25 -24q-1 -5 -3 -48q39 55 104 71zM590 719q18 -2 33 -2q57 0 88 23q32 23 32 66q0 18 -6 40q-35 -98 -147 -127zM553 313q32 -12 57 -12q30 0 50 16q21 16 21 42
q0 23 -17 53q-3 -47 -27 -68q-23 -20 -84 -31z" />
    <glyph glyph-name="c" unicode="c" horiz-adv-x="1037" 
d="M620 1391q-29 3 -57 3q-223 0 -359 -192q-134 -188 -134 -471v-13q2 -290 141 -484q138 -194 357 -194q26 0 52 3q123 13 213 104q79 80 109 193q13 52 13 96q0 50 -16 90q-32 81 -116 81h-4q-44 0 -114 -31q-79 -35 -117 -41q-20 -3 -38 -3q-64 0 -108 38
q-49 43 -51 112v6q0 65 45 107q40 37 103 37q19 0 39 -3q37 -5 130 -40q83 -31 128 -32h4q84 0 114 92q13 41 13 90q0 55 -17 120q-33 128 -114 217q-93 103 -216 115zM583 460q122 31 215 83q-14 -61 -98 -82q-37 -9 -66 -9t-51 8zM134 841q0 124 57 242q59 123 159 192
q32 22 80 36q31 10 51 10q18 0 27 -8q-13 -8 -65 -29q-47 -20 -72 -37q-130 -99 -237 -406z" />
    <glyph glyph-name="d" unicode="d" horiz-adv-x="1201" 
d="M141 300q17 833 53 975q36 141 220 141q144 0 286 -70q56 -28 110 -67q178 -129 271 -321q74 -156 80 -309v-18q0 -124 -75 -247q-74 -121 -204 -216q-126 -92 -266 -132q-90 -26 -168 -26q-50 0 -95 10q-100 23 -156 83q-57 62 -57 151v9q0 18 1 37zM452 499
q29 -6 59 -6q42 0 87 12q73 20 119 62q40 37 40 75q0 7 -1 14q-11 52 -96 90q-86 39 -132 39q-52 0 -53 -49q-3 -145 -21 -227q-1 -6 -2 -10zM254 1174q13 56 25 79q24 45 54 59q47 23 52 27q-13 9 -31 9q-15 0 -33 -6q-44 -15 -62 -56q-24 -55 -24 -176q7 11 19 64z
M735 476q87 57 87 143q-10 -3 -52 -59q-46 -61 -130 -99q-77 -34 -78 -36q95 0 173 51z" />
    <glyph glyph-name="e" unicode="e" 
d="M774 742q56 -4 82 -16q42 -18 44 -63v-8q0 -95 -90 -121q-29 -8 -90 -15q-64 -8 -90 -14q-49 -13 -49 -56v-23q4 -24 54 -32q8 -1 23 -1q16 0 38 1q35 1 58 1h19q93 -5 99 -56q3 -26 3 -50q0 -164 -151 -231q-106 -48 -297 -48q-25 0 -51 1q-184 5 -245 279
q-31 137 -31 422v44q1 112 8 181q18 191 94 283q74 91 258 152q61 20 154 20q35 0 74 -3q150 -9 229 -52q58 -32 87 -117q16 -47 16 -93t-16 -92q-35 -97 -93 -130q-35 -20 -85 -20q-32 0 -70 8q-52 12 -85 12q-28 0 -42 -9q-34 -22 -34 -66q0 -36 16 -53q25 -26 163 -35z
M197 1000q13 54 26 86q51 118 195 178q6 3 72 26q54 20 63 26q-149 0 -278 -97q-97 -72 -97 -279q9 13 19 60z" />
    <glyph glyph-name="f" unicode="f" horiz-adv-x="1047" 
d="M143 718q-3 107 -3 190v40q5 297 60 386q63 100 260 100q35 0 74 -3q216 -17 363 -92q72 -51 109 -130q34 -72 34 -155q0 -20 -3 -40q-17 -125 -83 -160q-39 -14 -82 -14q-39 0 -88 4q-72 7 -120 7q-47 0 -71 -7q-85 -24 -86 -132q0 -98 41 -110q11 -3 44 -3t53 -5
q72 -21 100 -57q16 -21 16 -44q0 -12 -4 -24q-12 -34 -49 -60q-38 -26 -84 -31q-76 -8 -107 -8q-22 0 -22 4q0 1 1 2q-13 -12 -21 -154q-9 -140 -58 -183q-45 -39 -98 -39q-32 0 -68 15q-99 41 -107 171q-3 42 -3 101q0 47 2 105q5 151 5 155zM242 1205q11 49 35 77
q29 35 66 49q49 19 60 26q-16 4 -33 4q-22 0 -47 -7q-47 -12 -70 -42q-32 -43 -32 -173q9 13 21 66z" />
    <glyph glyph-name="g" unicode="g" horiz-adv-x="1261" 
d="M679 792q-42 -82 -42 -186q0 -27 3 -56q16 -166 139 -191q58 -12 86 -12q27 0 27 11v2q-2 8 -24 36q-28 35 -39 54q-21 34 -21 62q0 35 32 60q45 36 156 36h23q129 -3 169 -46q21 -21 29 -50q4 -15 4 -28q0 -20 -9 -38q-3 -6 -103 -80q-15 -12 -23 -82q-9 -78 -29 -108
q-59 -89 -182 -133q-89 -33 -183 -33q-21 0 -42 2q-318 24 -473 275q-107 173 -107 397q0 76 12 158q32 216 189 377q160 165 374 194q44 6 87 6q145 0 280 -67q106 -52 126 -140q6 -22 6 -57q0 -51 -13 -130q-10 -58 -20 -78q-10 -18 -30 -18q-3 0 -56 10q-38 7 -77 7h-17
q-172 -9 -252 -154zM888 497q2 -1 5 -1q13 0 44 24q14 11 16 20q-8 3 -19 3q-16 0 -37 -8q-15 -6 -19 -17q-1 -3 -1 -5q0 -10 11 -16zM844 293q21 -4 38 -4q34 0 55 16q25 19 25 51q0 30 -15 30q-16 -1 -24 -51q-7 -8 -37 -21q-33 -14 -42 -21zM145 795q1 -1 32 103
q10 33 40 93t108 159q73 93 241 158q9 4 55 17q38 10 49 18q-212 0 -370 -167q-155 -165 -156 -379z" />
    <glyph glyph-name="h" unicode="h" horiz-adv-x="1275" 
d="M128 626q-20 352 -24 389q-4 42 -4 79q0 143 55 224q52 76 134 76q13 0 28 -2q100 -15 173 -119q80 -114 80 -276q0 -10 -2 -101q-1 -18 -1 -33q0 -39 4 -64q17 -102 114 -110h4q59 0 71 160q4 47 4 133q1 81 3 102q12 120 83 198q64 71 147 79q9 1 18 1q72 0 118 -56
q52 -63 52 -173q0 -15 -1 -31q-41 -671 -111 -911q-50 -171 -185 -171q-8 0 -17 1q-64 5 -93 137q-8 39 -16 105q-9 67 -12 82q-15 66 -88 82q-14 3 -26 3q-58 0 -86 -70q-12 -30 -32 -99q-19 -65 -32 -96q-44 -102 -135 -106h-19q-97 0 -125 38q-15 22 -42 157
q-22 111 -37 372zM192 1191q12 36 21 51q8 13 38 41q27 25 30 36q-11 5 -22 5q-15 0 -30 -9q-23 -14 -36 -41q-21 -43 -21 -131q9 14 20 48zM897 1199q28 35 61 56q31 19 37 28h-3q-111 0 -153 -138q-22 -72 -22 -158q0 -24 2 -50q14 182 78 262zM822 845q1 -22 1 -42
q0 -62 -12 -96q-22 -59 -91 -73q-13 -3 -28 -3q-19 0 -40 5q-36 8 -36 10q46 -36 95 -36q6 0 12 1q107 8 107 149q0 38 -8 85z" />
    <glyph glyph-name="i" unicode="i" horiz-adv-x="934" 
d="M227 922q-44 6 -54 9q-59 13 -74 64q-19 63 -19 102v11q1 72 25 134q38 104 266 124q51 4 176 4q140 0 224 -42q86 -42 103 -177q3 -24 3 -54q0 -54 -52 -122q-33 -43 -76 -56q-16 -5 -72 -10q-39 -3 -58 -21q-26 -25 -36 -101q-5 -35 -5 -155q0 -16 1 -28
q4 -200 27 -218q11 -8 88 -13q43 -6 62 -9q55 -22 55 -98v-3q10 -193 -35 -229q-47 -29 -365 -33q-22 -1 -41 -1q-143 0 -201 24q-36 22 -46 84q-3 140 -3 157q0 35 13 62q15 31 112 32q72 2 88 19q17 37 17 188q0 52 -2 54q-9 267 -64 290q-22 7 -57 12zM185 1194
q16 31 44 47q20 12 68 28q45 15 53 21q-101 0 -150 -26q-30 -16 -45 -53q-7 -18 -7 -33q0 -18 10 -22q5 -14 27 38zM183 288q-1 -5 -1 -9q0 -22 61 -22h5q33 2 62 16q57 28 81 77q14 29 14 62q0 29 -11 61q0 -1 -1 -24q-1 -25 -6 -45q-16 -66 -81 -92q-12 -5 -58 -5
q-63 0 -65 -19zM611 1697q3 -18 3 -35q0 -45 -22 -89q-22 -43 -69 -62q-27 -11 -55 -11q-18 0 -35 4q-47 11 -71 48q-18 28 -18 65q0 19 4 39q12 62 66 97q41 28 90 28q12 0 25 -2q68 -10 82 -82zM474 1686q10 11 11 11q-1 0 -2 8q-10 4 -20 4q-20 0 -37 -17
q-16 -16 -16 -34q0 -11 5 -22q15 2 59 50z" />
    <glyph glyph-name="j" unicode="j" horiz-adv-x="897" 
d="M165 853q-66 13 -83 66q-22 69 -35 169q-7 55 -7 94q0 50 11 76q45 104 321 123q64 5 120 5q165 0 261 -40q81 -33 99 -201q5 -45 5 -85q0 -90 -24 -157q-20 -59 -109 -66q-64 -8 -70 -18q-1 -2 -1 -10q0 -66 -11 -275q-6 -113 -14 -194q0 -91 -20 -157
q-27 -91 -141 -133q-82 -30 -188 -30h-25q-167 5 -187 120q-2 13 -2 26q0 30 12 59q16 40 42 53q24 12 105 25q78 11 101 35q34 35 34 142q0 23 -2 50q-7 168 -34 271q-10 27 -15 33q-9 11 -35 12q-104 7 -108 7zM139 1215q11 18 14 21q21 22 109 48l64 20q-170 0 -209 -51
q-13 -17 -13 -34q0 -15 11 -31q14 12 24 27zM130 161q2 16 8 26q18 33 86 34h15q74 0 124 37q56 42 56 121q0 22 -4 47v-11q0 -53 -19 -84q-22 -34 -85 -64q-36 -18 -94 -18q-56 -1 -71 -9q-21 -12 -26 -42q-1 -8 -1 -16q0 -21 3.5 -27.5t7.5 6.5z" />
    <glyph glyph-name="k" unicode="k" horiz-adv-x="1154" 
d="M1100 1115q-29 -102 -126 -211q-188 -211 -403 -275q204 -49 318 -150q131 -115 179 -200q76 -136 -34 -218q-89 -66 -207 -26q-90 31 -188 120q-60 56 -131 157q-7 -24 -21 -113q-11 -64 -32 -111q-23 -49 -70 -72q-42 -21 -93 -15q-50 6 -89 35q-41 31 -54 77
q-30 108 -44 417q-16 347 14 570q23 164 110 245q78 73 174 56q124 -22 148 -138q10 -47 6 -308q7 10 30 49q29 50 47 79q71 115 132 186q190 223 303 58q63 -94 31 -212zM780 1206q-27 -35 -67 -95q-39 -58 -48 -69q3 3 -52 -47q-35 -32 -23 -45q24 -26 106 89
q117 163 139 184q84 85 84 87q-48 14 -139 -104zM228 1213q30 52 96 100q-33 24 -79 -29q-45 -53 -54 -130q5 5 37 59z" />
    <glyph glyph-name="l" unicode="l" horiz-adv-x="957" 
d="M579 325q8 -2 23 -2q10 0 24 1q70 4 119 4q88 0 107 -12q50 -29 60 -83q4 -33 -2 -67q-20 -91 -99 -131q-51 -25 -166 -25q-61 0 -139 17q-177 38 -245 126q-81 103 -121 389q-17 121 -33 314q-7 101 -7 180q0 161 29 228q27 62 99 98q65 32 144 32h5q190 -2 250 -180
q28 -83 28 -208q0 -81 -12 -180q-9 -72 -67 -341q-16 -86 -16 -121v-4q0 -36 15 -36q2 0 4 1zM192 1185q13 37 35 63q18 20 57 39q43 21 53 30q-10 6 -25 6h-8q-61 -7 -97 -43q-38 -37 -38 -150q9 13 23 55z" />
    <glyph glyph-name="m" unicode="m" horiz-adv-x="1573" 
d="M40 287q0 23 2 49q2 37 36 219q34 213 43 266q25 139 46 232q16 70 34 134q16 59 32 95q42 93 120 107q11 2 22 2q67 0 120 -68q63 -80 137 -262q104 -253 134 -310q25 -49 38 -49q3 0 5 3q3 3 23 79q5 21 29 124q21 91 37 148q52 182 113 243q75 74 168 74h2
q104 -2 144 -105q48 -124 128 -536t80 -548v-6q-1 -63 -57 -107q-50 -39 -120 -56q-41 -11 -81 -11q-22 0 -44 2q-71 8 -112 80q-21 36 -34 157q-13 98 -19 136t-10 38q-4 -2 -31 -71q-87 -222 -225 -222q-7 0 -14 1q-140 12 -226 261q-10 65 -15 66q-6 0 -16 -65
q-33 -198 -43 -220q0 -1 1 -1q-45 -118 -168 -152q-18 -1 -36 -1q-115 10 -190 88q-53 55 -53 186zM836 629q56 0 92 166q4 20 21 115q15 79 27 128q39 152 108 213q5 4 41 20q28 12 29 24q-10 7 -23 7q-19 0 -47 -16q-46 -27 -72 -78q-34 -66 -81 -283q-43 -202 -69 -236
q-8 -11 -34 -29q-9 -6 -9 -18q0 -5 1 -10q8 -3 16 -3zM288 1177q12 36 21 51q8 13 38 41q27 25 30 36q-11 5 -22 5q-15 0 -30 -9q-23 -14 -36 -41q-21 -43 -21 -131q9 14 20 48z" />
    <glyph glyph-name="n" unicode="n" horiz-adv-x="1294" 
d="M449 20q-31 -20 -103 -20h-4q-113 2 -146 25q-35 25 -42 67q-14 96 -14 346q0 79 1 173q5 388 5 519v70q0 80 27 117q19 40 65 65q63 22 113 12t88 -46t90 -122q137 -225 239 -558q35 -113 49 -113h1q11 6 40 144q15 70 20 346q5 237 33 277q51 72 145 72q11 0 22 -1
q114 -11 125 -122q10 -107 10 -241q0 -169 -16 -379q-37 -487 -151 -589q-56 -49 -137 -53h-12q-76 0 -129 46q-143 124 -209 275q-14 32 -27 69q-14 36 -15 38q-2 6 -4 6q-1 0 -2 -4q-1 -6 -2 -41q-6 -245 -17 -311q-7 -43 -43 -67zM964 1221q22 44 25 48q7 9 26 22
q20 13 27 22q-10 7 -16 8q-8 2 -15 2q-30 0 -51 -35q-14 -22 -14 -42q0 -18 12 -34q4 4 6 9zM822 517q18 -10 33 -10q44 0 60 84q20 61 20 118q0 21 -3 41q-5 -12 -14 -55q-10 -47 -18 -73q-29 -94 -78 -105zM253 1273q10 8 12 16q-11 3 -20 3q-31 0 -47 -33
q-17 -35 -17 -85q0 -33 7 -71q14 128 65 170z" />
    <glyph glyph-name="o" unicode="o" horiz-adv-x="1273" 
d="M1136 1065q62 -146 67 -320v-24q0 -161 -51 -305q-58 -164 -170 -265q-137 -124 -333 -131h-20q-192 0 -309 127q-200 219 -241 512q-9 64 -9 125q0 235 136 417q112 150 360 183q54 7 104 7q173 0 287 -85q114 -86 179 -241zM475 729q-39 -65 -39 -125q0 -81 72 -152
q51 -51 104 -51q10 0 21 2q64 11 101 89q34 71 34 137q0 43 -14 83q-42 121 -131 122q-86 0 -148 -105zM783 413q51 74 51 172q-2 -2 -36 -79q-35 -77 -100 -124q-62 -44 -64 -52q92 0 149 83zM175 940q19 67 33 100q58 137 214 216q23 12 91 32q62 18 75 27
q-200 0 -321 -124t-121 -325q14 20 29 74z" />
    <glyph glyph-name="p" unicode="p" horiz-adv-x="1248" 
d="M456 333q-14 -19 -14 -62q0 -24 4 -55q10 -79 10 -108q0 -9 -1 -13q-12 -70 -125 -75q-8 -1 -15 -1q-101 1 -121 64q-42 128 -53 626q-1 47 -1 90q0 370 76 493q51 84 172 110q51 11 111 11q64 0 138 -13q298 -51 423 -195q123 -141 123 -297q0 -110 -62 -228
q-107 -203 -291 -280q-77 -32 -226 -39q-128 -5 -148 -28zM446 641q32 -7 64 -7q36 0 73 9q73 17 120 63q43 41 50 72q2 7 2 13q0 31 -34 61q-51 46 -127 46q-17 0 -36 -2q-100 -12 -136 -84q-22 -41 -22 -102v-5q3 -55 4 -56q2 -2 12 -2q15 -1 30 -6zM233 1102q10 41 12 49
q20 56 42 86q26 37 66 61q12 7 47 19q30 9 41 20q-14 3 -29 3q-29 0 -64 -11q-58 -20 -82 -59q-48 -79 -48 -212q8 13 15 44zM731 622q85 64 85 151q-5 -2 -49 -63q-45 -63 -128 -105q-6 -3 -44 -17q-27 -11 -39 -21q101 0 175 55z" />
    <glyph glyph-name="q" unicode="q" horiz-adv-x="1266" 
d="M1043 4v-5q0 -46 -36 -88q-38 -43 -83 -46h-8q-83 0 -123 104q-5 13 -14 20q-10 8 -27 13q-36 10 -113 16q-86 7 -118 14q-156 33 -268 153q-111 118 -153 293q-20 84 -20 169q0 93 24 188q46 178 165 322q160 192 394 202q13 1 25 1q225 0 371 -190q148 -191 148 -463
q0 -37 -3 -76q-22 -325 -219 -491q55 -84 58 -136zM683 833q-40 23 -77 28q-15 2 -29 1q-59 -3 -120 -54q-60 -52 -76 -115q-3 -13 -5 -26q-13 -96 45 -188q64 -100 167 -131q17 -5 30 -7q45 -6 49 24q1 8 0 18q-9 51 -8 59q7 42 56 43l6 -1q18 -2 36 -18q21 -20 31 -21
l1 -1q21 0 35 45q7 23 10 46q17 118 -63 225q-33 43 -88 73zM605 277q14 -9 28 -11q33 -4 67 26q16 14 23 46q5 28 22 38q8 4 35 6q29 2 46 8q60 20 73 109q-27 -13 -36 -39q-2 -6 -5 -20q-1 -13 -3 -19q-7 -18 -32 -20q-12 0 -30 3q-31 4 -78 16q-1 -31 -4 -53
q-7 -51 -24 -63q-8 -6 -33 -11q-28 -6 -49 -16zM194 847q39 118 123 231q72 98 195 155q31 15 82 33q37 14 43 19q-203 0 -348 -182q-136 -172 -136 -381q1 1 41 125z" />
    <glyph glyph-name="r" unicode="r" horiz-adv-x="1066" 
d="M293 4q-94 0 -111 47q-33 91 -40 605q-2 100 -2 183q0 334 26 411q40 119 203 139q34 4 69 4q95 0 195 -32q173 -56 286 -259q94 -169 94 -336q0 -24 -2 -47q-11 -136 -104 -239q-44 -44 -77 -61.5t-77 -36.5q-23 -10 -27 -16q-1 -2 -1 -4q0 -8 14 -20q23 -21 90 -93
q66 -70 93 -94q46 -40 46 -70q0 -11 -6 -20q-34 -52 -174 -55h-11q-101 0 -148 36q0 4 -121 196q-28 50 -45 50q-2 0 -3 -1q-12 -3 -12 -46v-16q1 -13 1 -61q0 -106 -29 -132q-37 -32 -127 -32zM431 790v-7q0 -89 59 -89q19 0 44 9q111 40 114 117v2q0 46 -55 70
q-41 17 -98 18h-3q-43 0 -54 -33q-5 -15 -7 -87zM237 1192q7 32 42 67q20 19 73 42q17 7 19 7l4 13q-87 0 -122 -35q-36 -35 -36 -123q15 6 20 29zM667 689q46 46 46 84q0 13 -6 26q-9 -30 -36 -63q-44 -51 -104 -85q-32 -18 -56 -25q91 -2 156 63z" />
    <glyph glyph-name="s" unicode="s" horiz-adv-x="1056" 
d="M738 816q-183 -4 -197 -25q-4 -6 -4 -13q0 -23 36 -60q14 -14 99 -91q78 -71 125 -120q133 -142 133 -233q0 -13 -2 -24q-21 -100 -102 -163q-76 -61 -180 -68q-80 -5 -145 -5q-320 0 -394 40q-44 24 -44 100q0 69 33 128q19 34 161 34h179q58 0 84 5q46 9 48 40v2
q0 37 -92 99q-29 19 -74 46q-46 27 -52 31q-227 149 -270 322q-10 39 -10 78q0 154 155 304q95 92 325 135q88 16 156 16q118 0 177 -48q100 -80 115 -277q3 -36 3 -67q0 -124 -46 -160q-27 -22 -217 -26zM155 220q15 18 48 19q-18 12 -33 12q-13 0 -25 -9q-16 -12 -16 -33
q0 -12 6 -28q12 30 20 39zM483 260q14 -10 34 -10q24 0 56 15q51 22 51 69q0 15 -5 32q-6 -36 -36 -68q-37 -39 -88 -39q-6 0 -12 1zM179 1027q22 51 40 78q70 103 240 162q7 2 86 22q61 17 70 25q-10 1 -21 1q-49 0 -138 -24q-108 -29 -164 -64q-65 -41 -118 -129
q-36 -60 -36 -97q0 -20 9 -32q13 15 32 58z" />
    <glyph glyph-name="t" unicode="t" horiz-adv-x="1018" 
d="M207 802q-93 8 -110 8h-3q-42 16 -56 78q-14 59 -17 151q-1 33 -1 62q0 130 15 166q29 68 153 100q92 24 219 24q23 0 47 -1q346 -9 452 -104q61 -56 83 -189q9 -55 9 -170q0 -19 -18 -58v-1l-1 -1q-38 -85 -197 -104q-60 -6 -79 -22q-24 -20 -26 -81q-10 -496 -50 -592
q-25 -61 -125 -67q-7 -1 -13 -1q-93 0 -117 62v1q-13 32 -23 97q-11 68 -17 154q-2 17 -5 237q-3 127 -11 157q-23 88 -109 94zM173 1272q60 27 121 41q-12 1 -23 1q-61 0 -125 -22q-67 -22 -67 -122q0 -34 8 -76q1 138 86 178zM375 535q0 -181 21 -280q-15 407 -15 426
q-6 -76 -6 -146z" />
    <glyph glyph-name="u" unicode="u" horiz-adv-x="1217" 
d="M814 31q-81 -31 -199 -31q-31 0 -84 3q-129 12 -236 69q-111 58 -155 143q-62 121 -73 459q-2 58 -2 160q0 299 48 403q52 115 175 144q27 6 50 6q91 0 133 -96q13 -29 21 -76q9 -56 9 -162q0 -78 -5 -213q-3 -121 -3 -179q0 -115 16 -187t87 -72h6q74 4 105 74
q44 100 63 362q21 280 57 386q48 143 152 143q46 -1 85 -36q42 -38 63 -105q24 -74 24 -192q0 -157 -28 -387q-51 -309 -135 -468q-54 -102 -174 -148zM875 1086q15 66 21 84q18 54 51 85q18 17 18 32q0 4 -1 7q-7 2 -13 2q-49 0 -77 -112q-21 -79 -21 -136q0 -18 2 -34
q6 13 20 72zM163 1125q13 53 38 89q20 31 62 59q41 26 48 37q-13 6 -27 6q-30 0 -64 -27q-56 -45 -69 -128q-1 -6 -4 -51l-1 -41q3 4 17 56zM790 467q39 99 39 205l-27 -86q-44 -157 -132 -214q-52 -21 -53 -21l-2 -16q123 0 175 132z" />
    <glyph glyph-name="v" unicode="v" horiz-adv-x="1363" 
d="M96 1184q10 3 11 3l2 4q2 4 6 10q19 31 32 43q14 14 20 23q-14 12 -28 12q-16 0 -30 -18q-13 -16 -13 -77zM142 1352q96 39 186 -32q108 -83 204 -465q29 -118 65 -296q38 -189 44 -216q140 491 157 542q132 402 239 477q39 27 94 27q54 1 104 -24q118 -57 113 -175
q-8 -249 -217 -680q-109 -226 -227 -356q-139 -154 -274 -154q-114 0 -236 151q-105 130 -201 349q-85 195 -135 392q-48 193 -36 281q18 139 120 179zM845 798q53 87 106 219l23 68q72 172 113 194q48 47 52 47v-1q-12 9 -25 9q-56 0 -114 -126q-27 -59 -66 -153l-74 -196
q-15 -47 -15 -60v-1z" />
    <glyph glyph-name="w" unicode="w" horiz-adv-x="1617" 
d="M651 745q20 107 61 170q37 57 82 64q44 6 80 -38q39 -48 57 -138q7 -20 17 -99q14 -105 20 -137q12 -74 27 -94q17 -25 40 30q29 83 77 452q41 317 91 367q48 47 120 67q69 18 134 5q69 -13 107 -56q43 -47 37 -119q-21 -253 -154 -664q-155 -482 -296 -536
q-59 -23 -121 -18q-67 6 -113 44q-57 48 -84 152q-25 92 -27 92q-6 0 -11 -18q-2 -5 -5 -21q-4 -16 -7 -27q-22 -84 -73 -143q-125 -143 -312 -20q-197 129 -299 525q-89 345 -59 639q12 120 93 159q80 39 177 -30q85 -62 155 -197q40 -77 68 -396q25 -294 45 -303
q23 -10 36 13q8 15 10 34q7 113 27 241zM120 1239q7 18 17 33q44 67 43 57q-32 0 -41 -3q-16 -5 -28 -28q-9 -18 -12 -42q-3 -29 8 -43zM1311 1337q-37 -16 -54 -39q-20 -28 -43 -125q-6 -26 -66 -364q-47 -262 -79 -324q-2 -4 -47 -52q-31 -33 -15 -48q62 -56 121 192
q8 33 53 292q59 336 103 399q11 16 55 44q37 25 35 32q-24 9 -63 -7zM601 362q11 -4 20 -4q33 0 54 63q10 27 31 142q20 104 31 135q3 11 12 29q9 20 13 30q9 25 8 43q-1 8 -3 16q-5 3 -9 3q-32 0 -59 -137q-40 -188 -55 -211q-4 -8 -16 -23q-12 -14 -17 -22
q-13 -22 -12 -50q1 -6 2 -14z" />
    <glyph glyph-name="x" unicode="x" horiz-adv-x="1234" 
d="M102 1009q88 -122 210 -237q94 -88 96 -105q-2 19 -212 -246q-191 -240 -81 -365q113 -127 334 54q66 54 142 138l64 69l45 -70q53 -84 105 -139q171 -183 319 -56q147 126 -39 374q-49 66 -145 168q-75 79 -76 91q-2 14 71 86q100 100 147 158q196 241 79 399
q-118 161 -330 -85q-62 -72 -136 -186q-60 -93 -62 -93q-3 0 -40 64q-51 86 -90 143q-144 210 -253 227q-74 12 -150 -70q-77 -83 -65 -168q10 -71 67 -151zM641 885q-1 -2 59 48q28 23 190 241q59 79 94 111q46 42 69 23q-3 -15 -22 -30q-38 -29 -32 -23q-1 -2 -48 -56
q-13 -15 -62 -85q-54 -77 -87 -119q-116 -147 -161 -110zM152 171q-10 14 -11 16q0 3 5 22q17 66 124 178q131 137 135 142l80 127q0 -85 -58 -153l-194 -213q-26 -31 -52 -75q-23 -39 -29 -44zM108 1190q-10 21 1 50q9 26 32 48q22 23 45 31q25 8 40 -5q-5 -7 -30 -26
q-29 -21 -35 -27q-8 -8 -26 -39q-15 -26 -27 -32z" />
    <glyph glyph-name="y" unicode="y" horiz-adv-x="1184" 
d="M703 1047q37 105 66 167q78 167 183 170h5q67 0 121 -24q68 -31 80 -89q3 -14 3 -31q13 -131 -263 -489q-128 -166 -73 -370q18 -173 -3 -254q-16 -78 -47 -97q-39 -29 -152 -30h-4q-108 0 -149 24q-44 26 -61 68q-13 30 -19 97.5t3 158.5t24 162.5t-21 143.5
q-22 44 -108 150q-161 198 -168 209q-110 150 -110 223v5q5 74 76 111q42 22 90 22q32 0 67 -10q141 -39 231 -181q60 -96 115 -278q18 -58 28 -58q9 1 34 59q11 26 52 141zM127 1265q31 26 35 38q-86 0 -86 -41q0 -11 7 -26q13 4 44 29zM626 809q12 -9 24 -9q40 0 85 98
q18 40 39 101l23 68q67 172 108 194q48 47 52 47v-1q-12 9 -25 9q-56 0 -114 -126q-27 -59 -61 -153q-35 -96 -39 -104q-12 -26 -55 -72q-37 -38 -37 -51v-1z" />
    <glyph glyph-name="z" unicode="z" horiz-adv-x="1106" 
d="M956 1338q121 -45 121 -131v-7q0 -70 -18 -127q-30 -110 -180 -325q-236 -312 -266 -351q-40 -52 -40 -74v-4q6 -21 76 -26q21 -1 82 -2t96 -3q158 -7 206 -38q46 -30 46 -73v-2q0 -42 -46 -69q-115 -70 -492 -76h-53q-295 0 -402 62q-56 32 -56 76v7q3 28 46 104
q42 75 260 338q193 232 220 325q4 14 4 25q0 27 -27 34q-1 0 -192 14q-150 11 -182 37q-54 44 -54 97q0 10 2 21q22 114 223 166q86 22 260 41q64 6 126 6q136 0 240 -45zM298 1265q-40 -10 -85 -36q-43 -26 -43 -46q0 -9 8 -17q4 -4 9 -4q9 0 22 12q4 5 17 18q10 11 15 15
q24 18 77 38q33 12 107 29q65 14 74 20q-87 0 -201 -29zM104 194h2q17 0 38 30q6 9 16 27t13 24q36 53 66 91q22 27 72 86q46 56 70 87q13 16 73 87q50 59 78 98q87 121 88 212q-4 -3 -56 -88q-56 -92 -65 -106q-23 -32 -98 -122q-105 -127 -136 -165q-162 -201 -162 -255
q0 -3 1 -6z" />
    <glyph glyph-name="braceleft" unicode="{" horiz-adv-x="876" 
d="M531 306q39 -45 113 -85q70 -38 83 -57q9 -13 9 -30q0 -28 -24 -67q-22 -63 -85 -66q-11 -1 -21 -1q-102 0 -201 53q-130 71 -187 207q-78 185 -78 447q0 78 7 163q16 204 92 361q84 174 264 204q24 4 46 4q50 0 90 -20q61 -30 79 -98q6 -22 6 -39q0 -35 -22 -54
q-12 -10 -38 -23q-36 -18 -46 -25q-88 -52 -140 -291q-32 -150 -32 -276q0 -65 8 -124q16 -113 77 -183zM485 1377q-30 -1 -83 -37q-47 -32 -69 -59q-63 -78 -71 -175l20 34q15 38 18 42q43 79 106 129q41 32 79 41v25z" />
    <glyph glyph-name="bar" unicode="|" horiz-adv-x="645" 
d="M201 1311q41 42 98 51q13 2 26 2q42 0 81 -20q53 -28 81 -85q18 -109 18 -290q0 -160 -14 -377q-27 -430 -58 -489q-47 -98 -101 -103h-5q-55 0 -89 102q-28 85 -69 532q-29 329 -29 472q0 56 4 84q12 75 57 121zM230 1255q23 29 64 29v1q-4 0 -44 -49q-39 -48 -41 -49
q0 42 21 68z" />
    <glyph glyph-name="braceright" unicode="}" horiz-adv-x="889" 
d="M346 1125q-40 43 -115 82q-69 35 -82 54q-9 13 -9 30q0 27 23 66q21 62 84 67q14 1 28 1q98 0 195 -49q132 -66 191 -199q88 -195 88 -478q0 -58 -4 -121q-13 -201 -86 -357q-80 -173 -260 -206q-26 -5 -51 -5q-46 0 -85 18q-62 29 -81 95q-5 17 -5 32q0 36 31 53
q11 6 45 18q32 12 49 23q89 54 127 280q19 110 19 214q0 105 -19 204q-20 110 -83 178zM245 135q30 1 83 37q47 32 69 59q63 79 71 176l-20 -34q-15 -38 -18 -42q-43 -80 -106 -130q-41 -32 -79 -41v-25z" />
    <glyph glyph-name="asciitilde" unicode="~" horiz-adv-x="961" 
d="M282 907q33 12 65 12q18 0 36 -4q55 -12 83 -61q34 -60 116 -61q49 0 98 56q42 49 83 49h7q39 -4 49 -46q2 -11 2 -23q0 -33 -18 -70q-62 -131 -228 -138q-26 -1 -46 -1q-47 0 -63 5q-45 14 -84 79q-17 29 -45 29h-7q-30 -4 -58 -36q-19 -22 -54 -35q-21 -8 -36 -8
q-7 0 -12 2q-27 7 -30 42v6q0 30 17 69q44 103 125 134z" />
    <glyph glyph-name="exclamdown" unicode="&#xa1;" horiz-adv-x="732" 
d="M528 -216q-46 -41 -108 -49q-16 -2 -30 -2q-45 0 -87 19q-58 26 -89 81q-54 96 -54 300q0 79 8 174q28 322 106 466q51 95 110 99h6q60 0 96 -98q33 -84 76 -425q33 -257 33 -377q0 -47 -5 -73q-13 -71 -62 -115zM374 1218q15 6 30 6q33 0 59 -32q34 -39 35 -95v-5
q0 -35 -24 -65t-60 -41q-15 -4 -28 -4q-22 0 -41 10q-36 19 -51 68q-6 19 -6 38q0 29 14 57q23 45 72 63zM403 1085q-4 -7 -5 -31q36 1 36 23q0 9 -5 20q-20 -2 -26 -12zM516 -78l-10 -21q-17 -36 -52 -61q-41 -28 -44 -34q15 -7 29 -7q25 0 48 19q45 34 45 117
q-9 -4 -16 -13z" />
    <glyph glyph-name="cent" unicode="&#xa2;" horiz-adv-x="995" 
d="M367 499l129 509q-83 -5 -146 -84q-69 -94 -69 -206q0 -108 75 -206q8 -9 11 -13zM646 947l-133 -520h8q131 0 217 160l187 -41q-56 -153 -150 -230q-113 -84 -266 -84q-34 0 -44 2l-79 -308h-166l93 363q-46 26 -101 86q-135 147 -135 343q0 199 126 342
q125 143 306 143q30 0 37 -1l73 284h165l-84 -328q23 -11 60 -38q98 -80 154 -234l-199 -35q-33 60 -69 96z" />
    <glyph glyph-name="sterling" unicode="&#xa3;" horiz-adv-x="1221" 
d="M784 1172q-59 46 -133 46q-91 0 -155 -64t-64 -155v-168h288q50 0 86 -36q35 -36 35 -85v-3q0 -49 -35 -85q-36 -36 -86 -36h-288v-341h567q50 0 86 -36t36 -86v-2q0 -51 -36 -85q-36 -36 -86 -36h-691q-49 0 -85 36q-36 34 -36 85v465h1q-36 0 -62 26t-26 63v67
q0 37 26 63t62 26h-1v168q0 192 136 327q136 136 328 136q157 0 282 -96q123 -94 164 -244q5 -18 5 -34q0 -38 -25 -71q-36 -48 -97 -48h-3q-92 0 -117 89q-19 69 -76 114z" />
    <glyph glyph-name="currency" unicode="&#xa4;" horiz-adv-x="1044" 
d="M522 989q-92 0 -157.5 -65.5t-65.5 -157.5q0 -94 65.5 -159t157.5 -65t157.5 65t65.5 159q0 92 -65.5 157.5t-157.5 65.5zM171 976l-133 133l139 139l133 -132q83 58 212 58q130 0 213 -58l132 132l139 -137l-133 -133q58 -84 58 -212q0 -130 -58 -213l133 -133
l-139 -138l-132 132q-84 -58 -213 -58t-212 58l-132 -132l-139 138l133 133q-59 84 -59 213q0 127 58 210z" />
    <glyph glyph-name="yen" unicode="&#xa5;" horiz-adv-x="1118" 
d="M658 204v-204h-215v204h-257v166h257v102h-257v175h232l-417 823h229l321 -666l345 666h221l-433 -823h247v-175h-273v-102h273v-166h-273z" />
    <glyph glyph-name="brokenbar" unicode="&#xa6;" horiz-adv-x="543" 
d="M150 1493h243v-734h-243v734zM150 441h243v-704h-243v704z" />
    <glyph glyph-name="section" unicode="&#xa7;" horiz-adv-x="1017" 
d="M772 395q51 -25 96 -88q27 -37 39 -81q10 -40 10 -85v-16q-3 -109 -76 -194q-65 -75 -171 -111q-72 -26 -144 -26h-13q-343 10 -413 359l182 32q34 -152 137 -202q36 -17 90 -21q10 -1 20 -1q91 0 153 59q32 31 43 71q6 22 6 42q0 35 -18 62q-26 42 -95 72
q-59 24 -130 44q-187 55 -257 117q-91 82 -91 223q0 172 125 264q15 10 15 11t-1 1t-7 -3q-9 5 -41 33q-91 82 -91 223q0 171 125 263q70 52 168 69q39 6 80 6h18q155 -5 246 -79q94 -76 125 -251l-187 -28q-27 131 -112 173q-36 17 -87 17q-72 0 -126 -39q-56 -42 -58 -109
v-5q0 -34 10 -62q9 -27 30 -47q33 -34 79.5 -49.5t138.5 -40.5q206 -61 278 -162q27 -37 39 -82q10 -39 10 -84v-17q-3 -108 -76 -193q-46 -53 -69 -65zM519 490h13q88 0 150 59q32 30 43 70q6 23 6 43q0 34 -18 61q-26 42 -95 73q-31 12 -62 23q-17 3 -40 3q-72 0 -126 -39
q-56 -42 -58 -109v-5q0 -35 10 -63q9 -26 30 -46q33 -35 77 -48q29 -10 70 -22z" />
    <glyph glyph-name="dieresis" unicode="&#xa8;" horiz-adv-x="795" 
d="M337 1217q3 -18 3 -35q0 -45 -22 -89q-22 -43 -69 -62q-27 -11 -55 -11q-18 0 -35 4q-47 11 -71 48q-18 28 -18 65q0 19 4 39q12 62 66 97q41 28 90 28q12 0 25 -2q68 -10 82 -82zM200 1206q10 11 11 11q-1 0 -2 8q-10 4 -20 4q-20 0 -37 -17q-16 -16 -16 -34
q0 -11 5 -22q15 2 59 50zM722 1217q3 -18 3 -35q0 -45 -22 -89q-22 -43 -69 -62q-27 -11 -55 -11q-18 0 -35 4q-47 11 -71 48q-18 28 -18 65q0 19 4 39q12 62 66 97q41 28 90 28q12 0 25 -2q68 -10 82 -82zM598 1216q13 7 14 7q-1 0 1 8q-8 7 -18 11q-18 7 -40 -3
q-21 -10 -27 -27q-4 -10 -3 -22q15 -3 73 26z" />
    <glyph glyph-name="copyright" unicode="&#xa9;" horiz-adv-x="1837" 
d="M1185 939q-19 90 -75 144q-72 70 -179 70q-119 0 -201 -86q-83 -84 -83 -206v-178q0 -121 83 -205q82 -87 201 -87q104 0 176 68q71 66 85 180l139 -14q-23 -166 -134 -268q-112 -105 -266 -105q-180 0 -306 129q-123 128 -123 308v166q0 181 123 309q126 129 306 129
q154 0 267 -106q93 -85 123 -221zM916 1563q203 0 396 -104t301 -298t108 -404q0 -208 -106 -400.5t-298 -298.5t-401 -106t-400.5 106t-298.5 298.5t-107 400.5q0 210 108.5 404t301.5 298t396 104zM916 1430q-170 0 -330.5 -87t-251.5 -249t-91 -337q0 -174 89.5 -333.5
t249.5 -249t334 -89.5t334 89.5t249 249t89 333.5q0 175 -90.5 337t-251.5 249t-330 87z" />
    <glyph glyph-name="guillemotleft" unicode="&#xab;" horiz-adv-x="1132" 
d="M440 1151h318l-459 -401l459 -401h-318l-382 338q-28 25 -28 63q0 39 28 64zM834 1151h318l-459 -401l459 -401h-318l-382 338q-28 25 -28 63q0 39 28 64z" />
    <glyph glyph-name="logicalnot" unicode="&#xac;" horiz-adv-x="1107" 
d="M130 876h847v-526h-192v345h-655v181z" />
    <glyph glyph-name="registered" unicode="&#xae;" horiz-adv-x="1811" 
d="M906 1563q203 0 396 -104t301 -298t108 -404q0 -208 -106 -400.5t-298 -298.5t-401 -106t-400.5 106t-298.5 298.5t-107 400.5q0 210 108.5 404t301.5 298t396 104zM906 1430q-170 0 -330.5 -87t-251.5 -249t-91 -337q0 -174 89.5 -333.5t249.5 -249t334 -89.5t334 89.5
t249 249t89 333.5q0 175 -90.5 337t-251.5 249t-330 87zM615 1237l383 -1q113 -1 192 -81t79 -192q0 -128 -98 -211q-64 -64 -202 -64h2l308 -477h-136l-308 477h-93v-477h-127v1026zM998 807q63 1 108 47q44 45 44 109q0 63 -44 108q-45 45 -108 47h-256v-311h256z" />
    <glyph glyph-name="macron" unicode="&#xaf;" horiz-adv-x="952" 
d="M822 1421q0 -51 -36 -85q-36 -36 -86 -36h-529q-51 0 -85 36q-36 34 -36 85v2q0 50 36 86q34 36 85 36h529q50 0 86 -36t36 -86v-2z" />
    <glyph glyph-name="degree" unicode="&#xb0;" horiz-adv-x="902" 
d="M309 1242q0 -54 39 -93t91 -39h22q54 0 93 39t39 93q0 53 -39 92q-38 38 -93 38h-22q-53 0 -91 -38q-39 -39 -39 -92zM100 1242q0 136 98 234t236 98h34q137 0 236 -98q98 -98 98 -234q0 -138 -98 -236q-99 -98 -236 -98h-34q-138 0 -236 98t-98 236z" />
    <glyph glyph-name="plusminus" unicode="&#xb1;" horiz-adv-x="1152" 
d="M699 1084h281q50 0 86 -36t36 -86v-2q0 -51 -36 -85q-36 -36 -86 -36h-281v-281q0 -50 -36 -86t-86 -36h-2q-51 0 -85 36q-36 36 -36 86v281h-283q-51 0 -85 36q-36 34 -36 85v2q0 50 36 86q34 36 85 36h283v283q0 51 36 85q34 36 85 36h2q50 0 86 -36q36 -34 36 -85
v-283zM1102 211q0 -51 -36 -85q-36 -36 -86 -36h-809q-51 0 -85 36q-36 34 -36 85v2q0 50 36 86q34 36 85 36h809q50 0 86 -36t36 -86v-2z" />
    <glyph glyph-name="acute" unicode="&#xb4;" horiz-adv-x="631" 
d="M140 1145v4q0 28 79 119q76 87 122 122q39 35 72 35q24 0 45 -18q33 -29 33 -70q0 -20 -7 -42q-10 -30 -96 -125q-86 -94 -114 -106q-24 -11 -45 -11q-24 0 -45 14q-37 24 -44 78zM212 1156q3 1 132 128q33 33 37 53q-42 -3 -117 -100l-10 -12l-10 -10q-30 -35 -32 -59z
" />
    <glyph glyph-name="mu" unicode="&#xb5;" horiz-adv-x="1187" 
d="M355 308v-346q0 -51 -36 -85q-36 -36 -85 -36h-3q-49 0 -85 36q-36 34 -36 85v1320q0 50 36 86q36 35 85 35h3q49 0 85 -36t36 -86v-547q0 -99 69 -169q70 -69 170 -69q99 0 169 69q69 70 69 169v548q0 50 36 86q36 35 85 35h3q49 0 85 -35q36 -36 36 -86v-1020
q0 -51 -36 -85q-36 -36 -85 -36h-3q-49 0 -85 36q-36 34 -36 85v46q-37 -57 -238 -57q-202 0 -239 57z" />
    <glyph glyph-name="paragraph" unicode="&#xb6;" horiz-adv-x="1128" 
d="M1072 1264h-87v-1264h-209v1264h-62v-1264h-219v557q-171 26 -283 155t-112 299q0 168 112 297q119 149 312 165h548v-209z" />
    <glyph glyph-name="periodcentered" unicode="&#xb7;" horiz-adv-x="570" 
d="M327 765q2 -15 2 -29q0 -39 -18 -76q-19 -37 -59 -53q-23 -9 -47 -9q-15 0 -29 3q-40 10 -61 41q-15 24 -15 55q0 17 3 34q11 52 56 82q35 24 77 24q10 0 21 -2q58 -8 70 -70zM210 756q9 9 10 9q-1 0 -2 7q-8 4 -17 4q-17 0 -31 -15q-14 -13 -14 -29q0 -9 4 -18
q13 1 50 42z" />
    <glyph glyph-name="periodcentered" unicode="&#x2219;" horiz-adv-x="570" 
d="M327 765q2 -15 2 -29q0 -39 -18 -76q-19 -37 -59 -53q-23 -9 -47 -9q-15 0 -29 3q-40 10 -61 41q-15 24 -15 55q0 17 3 34q11 52 56 82q35 24 77 24q10 0 21 -2q58 -8 70 -70zM210 756q9 9 10 9q-1 0 -2 7q-8 4 -17 4q-17 0 -31 -15q-14 -13 -14 -29q0 -9 4 -18
q13 1 50 42z" />
    <glyph glyph-name="cedilla" unicode="&#xb8;" horiz-adv-x="646" 
d="M216 -80q-2 10 -2 23q0 42 22 117q30 108 70 108q94 0 112 -46q5 -12 5 -26q0 -39 -32 -101l-2 -4q72 -17 115 -62q42 -42 42 -96q0 -11 -2 -21q-2 -139 -97 -176q-33 -14 -73 -14q-52 0 -117 24q-103 38 -143 95q-14 19 -14 33q0 7 3 13q10 22 54 30q14 3 27 3
q48 0 109 -26q21 -10 35 -10q3 0 5 1q18 4 32 33q10 21 10 36q0 40 -63 49q-12 2 -65 5q-31 1 -31 9v3zM340 -271q76 0 76 77q0 -2 -39 -37q-35 -31 -37 -40z" />
    <glyph glyph-name="guillemotright" unicode="&#xbb;" horiz-adv-x="1142" 
d="M680 814q28 -25 28 -64q0 -38 -28 -63l-382 -338h-318l459 401l-459 401h318zM1084 814q28 -25 28 -64q0 -38 -28 -63l-382 -338h-318l459 401l-459 401h318z" />
    <glyph glyph-name="questiondown" unicode="&#xbf;" horiz-adv-x="984" 
d="M573 -233h-14q-161 0 -286 129q-133 137 -133 300q0 13 1 27q9 118 166 264q184 171 217 244q8 17 12 122q2 52 94 76q30 8 57 8q29 0 55 -9q59 -21 69 -78q4 -22 4 -43q0 -54 -25 -97q-24 -42 -118 -116q-88 -69 -116 -131q-14 -32 -14 -59q0 -45 38 -79q35 -30 121 -50
q107 -25 138 -39q99 -46 100 -146q0 -90 -73 -174q-125 -143 -293 -149zM577 1027q-35 46 -35 91q0 7 1 15q6 41 50 67q40 24 95 24h4q46 0 77 -32q27 -29 27 -63v-2q-2 -32 -59 -76q-41 -32 -79 -43q-17 -5 -32 -5q-31 0 -49 24zM655 1084q10 -4 20 -4q12 0 24 7
q22 13 23 40q-46 -1 -67 -43zM866 72q0 -4 -47 -74t-130 -111q-91 -46 -95 -46v1q17 -4 34 -4q72 0 152 66q42 34 68 76q24 38 24 66q0 14 -6 26zM745 787h1q1 0 1 -1q0 -6 -76 -82q0 1 -54 -51q-44 -41 -72 -73q-71 -80 -71 -128q0 -12 5 -22q6 5 36 59q34 58 96 118
q22 22 55 48q33 25 43 35q36 35 36 97z" />
    <glyph glyph-name="Agrave" unicode="&#xc0;" horiz-adv-x="1028" 
d="M987 200q1 -8 1 -16q0 -51 -38 -88q-42 -42 -104 -43q-68 0 -122 51q-62 60 -86 175q-22 104 -97 106h-3q-72 0 -120 -96q-64 -126 -64 -127l1 1q-34 -59 -93 -90q-45 -23 -88 -23q-12 0 -24 2q-58 8 -87 53q-23 36 -23 88q0 23 4 48q13 83 39 189q35 139 57 216
q35 115 64 197q157 448 304 516q26 12 51 12q95 0 183 -168q168 -325 245 -1003zM598 690q-11 62 -21 99q-19 72 -38 72q-13 0 -25 -29q-12 -26 -44 -178q-3 -17 -3 -23v-2q1 -4 8 -4q4 0 9 1q20 4 39 4q22 0 43 -5q9 -3 31 -8l10 -3h1q3 0 3 3v2q-1 5 -13 71zM571 556
q18 -2 33 -2q48 0 61 22q5 9 5 23q0 27 -20 76q1 -7 1 -15q0 -24 -8 -46q-18 -47 -72 -58zM120 256q-1 0 -1 1q0 20 76 286q46 161 90 280q116 312 232 428q25 25 25 40q0 3 -1 6q-4 1 -9 1q-53 0 -129 -134q-70 -124 -145 -335q-143 -401 -143 -534q0 -24 5 -39zM639 1403
q-20 -14 -44 -14q-22 0 -46 11q-28 12 -114 106q-85 95 -95 125q-8 23 -8 43q0 41 33 69q21 18 45 18q34 0 72 -35q47 -35 122 -122q80 -92 80 -120v-3q-8 -54 -45 -78z" />
    <glyph glyph-name="Aacute" unicode="&#xc1;" horiz-adv-x="1028" 
d="M987 200q1 -8 1 -16q0 -51 -38 -88q-42 -42 -104 -43q-68 0 -122 51q-62 60 -86 175q-22 104 -97 106h-3q-72 0 -120 -96q-64 -126 -64 -127l1 1q-34 -59 -93 -90q-45 -23 -88 -23q-12 0 -24 2q-58 8 -87 53q-23 36 -23 88q0 23 4 48q13 83 39 189q35 139 57 216
q35 115 64 197q157 448 304 516q26 12 51 12q95 0 183 -168q168 -325 245 -1003zM598 690q-11 62 -21 99q-19 72 -38 72q-13 0 -25 -29q-12 -26 -44 -178q-3 -17 -3 -23v-2q1 -4 8 -4q4 0 9 1q20 4 39 4q22 0 43 -5q9 -3 31 -8l10 -3h1q3 0 3 3v2q-1 5 -13 71zM571 556
q18 -2 33 -2q48 0 61 22q5 9 5 23q0 27 -20 76q1 -7 1 -15q0 -24 -8 -46q-18 -47 -72 -58zM120 256q-1 0 -1 1q0 20 76 286q46 161 90 280q116 312 232 428q25 25 25 40q0 3 -1 6q-4 1 -9 1q-53 0 -129 -134q-70 -124 -145 -335q-143 -401 -143 -534q0 -24 5 -39zM397 1472
v4q0 28 79 119q76 87 122 122q39 35 72 35q24 0 45 -18q33 -29 33 -70q0 -20 -7 -42q-10 -30 -96 -125q-86 -94 -114 -106q-24 -11 -45 -11q-24 0 -45 14q-37 24 -44 78zM469 1483q3 1 132 128q33 33 37 53q-42 -3 -117 -100l-10 -12l-10 -10q-30 -35 -32 -59z" />
    <glyph glyph-name="Acircumflex" unicode="&#xc2;" horiz-adv-x="1028" 
d="M987 200q1 -8 1 -16q0 -51 -38 -88q-42 -42 -104 -43q-68 0 -122 51q-62 60 -86 175q-22 104 -97 106h-3q-72 0 -120 -96q-64 -126 -64 -127l1 1q-34 -59 -93 -90q-45 -23 -88 -23q-12 0 -24 2q-58 8 -87 53q-23 36 -23 88q0 23 4 48q13 83 39 189q35 139 57 216
q35 115 64 197q157 448 304 516q26 12 51 12q95 0 183 -168q168 -325 245 -1003zM598 690q-11 62 -21 99q-19 72 -38 72q-13 0 -25 -29q-12 -26 -44 -178q-3 -17 -3 -23v-2q1 -4 8 -4q4 0 9 1q20 4 39 4q22 0 43 -5q9 -3 31 -8l10 -3h1q3 0 3 3v2q-1 5 -13 71zM571 556
q18 -2 33 -2q48 0 61 22q5 9 5 23q0 27 -20 76q1 -7 1 -15q0 -24 -8 -46q-18 -47 -72 -58zM120 256q-1 0 -1 1q0 20 76 286q46 161 90 280q116 312 232 428q25 25 25 40q0 3 -1 6q-4 1 -9 1q-53 0 -129 -134q-70 -124 -145 -335q-143 -401 -143 -534q0 -24 5 -39zM863 1367
q1 -4 1 -8q0 -37 -41 -42q-6 -1 -12 -1q-42 0 -94 35q-20 16 -68 66q-47 50 -82 77q-100 -69 -178 -132q-54 -33 -87 -33q-26 0 -39 21q-8 14 -8 31q0 40 47 97q7 8 127 142q80 89 139 90h3q63 0 138 -92q146 -181 154 -251zM417 1496q75 74 105 99q23 19 25 29q-5 2 -12 2
q-38 0 -108 -88q-95 -119 -98 -119q25 16 88 77z" />
    <glyph glyph-name="Atilde" unicode="&#xc3;" horiz-adv-x="1028" 
d="M987 200q1 -8 1 -16q0 -51 -38 -88q-42 -42 -104 -43q-68 0 -122 51q-62 60 -86 175q-22 104 -97 106h-3q-72 0 -120 -96q-64 -126 -64 -127l1 1q-34 -59 -93 -90q-45 -23 -88 -23q-12 0 -24 2q-58 8 -87 53q-23 36 -23 88q0 23 4 48q13 83 39 189q35 139 57 216
q35 115 64 197q157 448 304 516q26 12 51 12q95 0 183 -168q168 -325 245 -1003zM598 690q-11 62 -21 99q-19 72 -38 72q-13 0 -25 -29q-12 -26 -44 -178q-3 -17 -3 -23v-2q1 -4 8 -4q4 0 9 1q20 4 39 4q22 0 43 -5q9 -3 31 -8l10 -3h1q3 0 3 3v2q-1 5 -13 71zM571 556
q18 -2 33 -2q48 0 61 22q5 9 5 23q0 27 -20 76q1 -7 1 -15q0 -24 -8 -46q-18 -47 -72 -58zM120 256q-1 0 -1 1q0 20 76 286q46 161 90 280q116 312 232 428q25 25 25 40q0 3 -1 6q-4 1 -9 1q-53 0 -129 -134q-70 -124 -145 -335q-143 -401 -143 -534q0 -24 5 -39zM366 1700
q33 12 65 12q18 0 36 -4q55 -12 83 -61q34 -60 116 -61q49 0 98 56q42 49 83 49h7q39 -4 49 -46q2 -11 2 -23q0 -33 -18 -70q-62 -131 -228 -138q-26 -1 -46 -1q-47 0 -63 5q-45 14 -84 79q-17 29 -45 29h-7q-30 -4 -58 -36q-19 -22 -54 -35q-21 -8 -36 -8q-7 0 -12 2
q-27 7 -30 42v6q0 30 17 69q44 103 125 134z" />
    <glyph glyph-name="Adieresis" unicode="&#xc4;" horiz-adv-x="1028" 
d="M987 200q1 -8 1 -16q0 -51 -38 -88q-42 -42 -104 -43q-68 0 -122 51q-62 60 -86 175q-22 104 -97 106h-3q-72 0 -120 -96q-64 -126 -64 -127l1 1q-34 -59 -93 -90q-45 -23 -88 -23q-12 0 -24 2q-58 8 -87 53q-23 36 -23 88q0 23 4 48q13 83 39 189q35 139 57 216
q35 115 64 197q157 448 304 516q26 12 51 12q95 0 183 -168q168 -325 245 -1003zM598 690q-11 62 -21 99q-19 72 -38 72q-13 0 -25 -29q-12 -26 -44 -178q-3 -17 -3 -23v-2q1 -4 8 -4q4 0 9 1q20 4 39 4q22 0 43 -5q9 -3 31 -8l10 -3h1q3 0 3 3v2q-1 5 -13 71zM571 556
q18 -2 33 -2q48 0 61 22q5 9 5 23q0 27 -20 76q1 -7 1 -15q0 -24 -8 -46q-18 -47 -72 -58zM120 256q-1 0 -1 1q0 20 76 286q46 161 90 280q116 312 232 428q25 25 25 40q0 3 -1 6q-4 1 -9 1q-53 0 -129 -134q-70 -124 -145 -335q-143 -401 -143 -534q0 -24 5 -39zM484 1607
q3 -18 3 -35q0 -45 -22 -89q-22 -43 -69 -62q-27 -11 -55 -11q-18 0 -35 4q-47 11 -71 48q-18 28 -18 65q0 19 4 39q12 62 66 97q41 28 90 28q12 0 25 -2q68 -10 82 -82zM347 1596q10 11 11 11q-1 0 -2 8q-10 4 -20 4q-20 0 -37 -17q-16 -16 -16 -34q0 -11 5 -22q15 2 59 50
zM868 1607q3 -18 3 -35q0 -45 -22 -89q-22 -43 -69 -62q-27 -11 -55 -11q-18 0 -35 4q-47 11 -71 48q-18 28 -18 65q0 19 4 39q12 62 66 97q41 28 90 28q12 0 25 -2q68 -10 82 -82zM744 1606q14 7 15 7q-1 0 0 8q-7 7 -17 11q-19 7 -40 -3t-27 -27q-4 -10 -3 -22
q14 -3 72 26z" />
    <glyph glyph-name="Aring" unicode="&#xc5;" horiz-adv-x="1028" 
d="M987 200q1 -8 1 -16q0 -51 -38 -88q-42 -42 -104 -43q-68 0 -122 51q-62 60 -86 175q-22 104 -97 106h-3q-72 0 -120 -96q-64 -126 -64 -127l1 1q-34 -59 -93 -90q-45 -23 -88 -23q-12 0 -24 2q-58 8 -87 53q-23 36 -23 88q0 23 4 48q13 83 39 189q35 139 57 216
q35 115 64 197q157 448 304 516q26 12 51 12q95 0 183 -168q168 -325 245 -1003zM598 690q-11 62 -21 99q-19 72 -38 72q-13 0 -25 -29q-12 -26 -44 -178q-3 -17 -3 -23v-2q1 -4 8 -4q4 0 9 1q20 4 39 4q22 0 43 -5q9 -3 31 -8l10 -3h1q3 0 3 3v2q-1 5 -13 71zM571 556
q18 -2 33 -2q48 0 61 22q5 9 5 23q0 27 -20 76q1 -7 1 -15q0 -24 -8 -46q-18 -47 -72 -58zM120 256q-1 0 -1 1q0 20 76 286q46 161 90 280q116 312 232 428q25 25 25 40q0 3 -1 6q-4 1 -9 1q-53 0 -129 -134q-70 -124 -145 -335q-143 -401 -143 -534q0 -24 5 -39zM449 1666
q42 45 105 45q19 0 40 -4q89 -17 124 -94q13 -31 13 -66q0 -18 -3 -37q-11 -60 -49 -88q-58 -42 -122 -42h-11q-75 3 -118 64q-22 33 -22 85q0 14 1 28q8 73 42 109zM535 1525q15 -20 31 -20q13 0 28 14q15 16 16 36v3q0 19 -12 33q-17 20 -37 20q-4 0 -8 -1q-27 -6 -31 -34
q-1 -6 -1 -11q0 -20 14 -40z" />
    <glyph glyph-name="AE" unicode="&#xc6;" horiz-adv-x="1800" 
d="M119 259q3 28 76 284q46 161 90 280q116 312 232 428q25 25 25 40q0 3 -1 6q-4 1 -9 1q-53 0 -129 -134q-70 -124 -145 -335q-143 -401 -143 -534q0 -22 4 -36zM941 960q13 54 26 86q51 118 195 178q6 3 72 26q54 20 63 26q-149 0 -278 -97q-97 -72 -97 -279q9 13 19 60z
M571 556q18 -2 33 -2q48 0 61 22q5 9 5 23q0 27 -20 76q1 -7 1 -15q0 -24 -8 -46q-18 -47 -72 -58zM598 690q-11 62 -21 99q-19 72 -38 72q-13 0 -25 -29q-12 -26 -44 -178q-3 -17 -3 -23v-2q1 -4 8 -4q4 0 9 1q20 4 39 4q22 0 43 -5q9 -3 31 -8l10 -3h1q3 0 3 3v2
q-1 5 -13 71zM970 120q-8 -13 -20 -24q-42 -42 -104 -43q-68 0 -122 51q-62 60 -86 175q-22 104 -97 106h-3q-72 0 -120 -96q-64 -126 -64 -127l1 1q-34 -59 -93 -90q-45 -23 -88 -23q-12 0 -24 2q-58 8 -87 53q-23 36 -23 88q0 23 4 48q13 83 39 189q35 139 57 216
q35 115 64 197q157 448 304 516q26 12 51 12q95 0 183 -168q62 -120 112 -289q20 178 92 266q74 91 258 152q61 20 154 20q35 0 74 -3q150 -9 229 -52q58 -32 87 -117q16 -47 16 -93t-16 -92q-35 -97 -93 -130q-35 -20 -85 -20q-32 0 -70 8q-52 12 -85 12q-28 0 -42 -9
q-34 -22 -34 -46q0 -16 16 -33q25 -26 163 -35q56 -4 82 -16q42 -18 44 -63v-8q0 -95 -90 -121q-29 -8 -90 -15q-64 -8 -90 -14q-49 -13 -49 -36v-3q4 -24 54 -32q8 -1 23 -1q16 0 38 1q35 1 58 1h19q93 -5 99 -56q3 -26 3 -50q0 -164 -151 -231q-106 -48 -297 -48
q-25 0 -51 1q-90 2 -150 69z" />
    <glyph glyph-name="Ccedilla" unicode="&#xc7;" horiz-adv-x="1037" 
d="M583 460q122 31 215 83q-14 -61 -98 -82q-37 -9 -66 -9t-51 8zM134 841q0 124 57 242q59 123 159 192q32 22 80 36q31 10 51 10q18 0 27 -8q-13 -8 -65 -29q-47 -20 -72 -37q-130 -99 -237 -406zM583 -231q39 35 39 37q0 -77 -76 -77q2 9 37 40zM420 -57q0 -13 2 -23v-3
q0 -8 31 -9q53 -3 65 -5q63 -9 63 -49q0 -15 -10 -36q-14 -29 -32 -33q-2 -1 -5 -1q-14 0 -35 10q-61 26 -109 26q-13 0 -27 -3q-44 -8 -54 -30q-3 -6 -3 -13q0 -14 14 -33q40 -57 143 -95q65 -24 117 -24q40 0 73 14q95 37 97 176q2 10 2 21q0 54 -42 96q-43 45 -115 62
l2 4q13 26 21 48h2q123 13 213 104q79 80 109 193q13 52 13 96q0 50 -16 90q-32 81 -116 81h-4q-44 0 -114 -31q-79 -35 -117 -41q-20 -3 -38 -3q-64 0 -108 38q-49 43 -51 112v6q0 65 45 107q40 37 103 37q19 0 39 -3q37 -5 130 -40q83 -31 128 -32h4q84 0 114 92
q13 41 13 90q0 55 -17 120q-33 128 -114 217q-93 103 -216 115q-29 3 -57 3q-223 0 -359 -192q-134 -188 -134 -471v-13q2 -290 141 -484q96 -135 230 -176q-21 -74 -21 -115z" />
    <glyph glyph-name="Egrave" unicode="&#xc8;" 
d="M774 742q56 -4 82 -16q42 -18 44 -63v-8q0 -95 -90 -121q-29 -8 -90 -15q-64 -8 -90 -14q-49 -13 -49 -36v-3q4 -24 54 -32q8 -1 23 -1q16 0 38 1q35 1 58 1h19q93 -5 99 -56q3 -26 3 -50q0 -164 -151 -231q-106 -48 -297 -48q-25 0 -51 1q-184 5 -245 279
q-31 137 -31 382v44q1 72 8 141q18 191 94 283q74 91 258 152q61 20 154 20q35 0 74 -3q150 -9 229 -52q58 -32 87 -117q16 -47 16 -93t-16 -92q-35 -97 -93 -130q-35 -20 -85 -20q-32 0 -70 8q-52 12 -85 12q-28 0 -42 -9q-34 -22 -34 -46q0 -16 16 -33q25 -26 163 -35z
M197 960q13 54 26 86q51 118 195 178q6 3 72 26q54 20 63 26q-149 0 -278 -97q-97 -72 -97 -279q9 13 19 60zM673 1390q-20 -14 -44 -14q-22 0 -46 11q-28 12 -114 106q-85 95 -95 125q-8 23 -8 43q0 41 33 69q21 18 45 18q34 0 72 -35q47 -35 122 -122q80 -92 80 -120v-3
q-8 -54 -45 -78z" />
    <glyph glyph-name="Eacute" unicode="&#xc9;" 
d="M774 742q56 -4 82 -16q42 -18 44 -63v-8q0 -95 -90 -121q-29 -8 -90 -15q-64 -8 -90 -14q-49 -13 -49 -36v-3q4 -24 54 -32q8 -1 23 -1q16 0 38 1q35 1 58 1h19q93 -5 99 -56q3 -26 3 -50q0 -164 -151 -231q-106 -48 -297 -48q-25 0 -51 1q-184 5 -245 279
q-31 137 -31 382v44q1 72 8 141q18 191 94 283q74 91 258 152q61 20 154 20q35 0 74 -3q150 -9 229 -52q58 -32 87 -117q16 -47 16 -93t-16 -92q-35 -97 -93 -130q-35 -20 -85 -20q-32 0 -70 8q-52 12 -85 12q-28 0 -42 -9q-34 -22 -34 -46q0 -16 16 -33q25 -26 163 -35z
M197 960q13 54 26 86q51 118 195 178q6 3 72 26q54 20 63 26q-149 0 -278 -97q-97 -72 -97 -279q9 13 19 60zM393 1464v4q0 28 79 119q76 87 122 122q39 35 72 35q24 0 45 -18q33 -29 33 -70q0 -20 -7 -42q-10 -30 -96 -125q-86 -94 -114 -106q-24 -11 -45 -11q-24 0 -45 14
q-37 24 -44 78zM465 1475q3 1 132 128q33 33 37 53q-42 -3 -117 -100l-10 -12l-10 -10q-30 -35 -32 -59z" />
    <glyph glyph-name="Ecircumflex" unicode="&#xca;" 
d="M774 742q56 -4 82 -16q42 -18 44 -63v-8q0 -95 -90 -121q-29 -8 -90 -15q-64 -8 -90 -14q-49 -13 -49 -36v-3q4 -24 54 -32q8 -1 23 -1q16 0 38 1q35 1 58 1h19q93 -5 99 -56q3 -26 3 -50q0 -164 -151 -231q-106 -48 -297 -48q-25 0 -51 1q-184 5 -245 279
q-31 137 -31 382v44q1 72 8 141q18 191 94 283q74 91 258 152q61 20 154 20q35 0 74 -3q150 -9 229 -52q58 -32 87 -117q16 -47 16 -93t-16 -92q-35 -97 -93 -130q-35 -20 -85 -20q-32 0 -70 8q-52 12 -85 12q-28 0 -42 -9q-34 -22 -34 -46q0 -16 16 -33q25 -26 163 -35z
M197 960q13 54 26 86q51 118 195 178q6 3 72 26q54 20 63 26q-149 0 -278 -97q-97 -72 -97 -279q9 13 19 60zM933 1410q1 -4 1 -8q0 -37 -41 -42q-6 -1 -12 -1q-42 0 -94 35q-20 16 -68 66q-47 50 -82 77q-100 -69 -178 -132q-54 -33 -87 -33q-26 0 -39 21q-8 14 -8 31
q0 40 47 97q7 8 127 142q80 89 139 90h3q63 0 138 -92q146 -181 154 -251zM487 1539q75 74 105 99q23 19 25 29q-5 2 -12 2q-38 0 -108 -88q-95 -119 -98 -119q25 16 88 77z" />
    <glyph glyph-name="Edieresis" unicode="&#xcb;" 
d="M774 742q56 -4 82 -16q42 -18 44 -63v-8q0 -95 -90 -121q-29 -8 -90 -15q-64 -8 -90 -14q-49 -13 -49 -36v-3q4 -24 54 -32q8 -1 23 -1q16 0 38 1q35 1 58 1h19q93 -5 99 -56q3 -26 3 -50q0 -164 -151 -231q-106 -48 -297 -48q-25 0 -51 1q-184 5 -245 279
q-31 137 -31 382v44q1 72 8 141q18 191 94 283q74 91 258 152q61 20 154 20q35 0 74 -3q150 -9 229 -52q58 -32 87 -117q16 -47 16 -93t-16 -92q-35 -97 -93 -130q-35 -20 -85 -20q-32 0 -70 8q-52 12 -85 12q-28 0 -42 -9q-34 -22 -34 -46q0 -16 16 -33q25 -26 163 -35z
M197 960q13 54 26 86q51 118 195 178q6 3 72 26q54 20 63 26q-149 0 -278 -97q-97 -72 -97 -279q9 13 19 60zM530 1617q3 -18 3 -35q0 -45 -22 -89q-22 -43 -69 -62q-27 -11 -55 -11q-18 0 -35 4q-47 11 -71 48q-18 28 -18 65q0 19 4 39q12 62 66 97q41 28 90 28q12 0 25 -2
q68 -10 82 -82zM393 1606q10 11 11 11q-1 0 -2 8q-10 4 -20 4q-20 0 -37 -17q-16 -16 -16 -34q0 -11 5 -22q15 2 59 50zM914 1617q3 -18 3 -35q0 -45 -22 -89q-22 -43 -69 -62q-27 -11 -55 -11q-18 0 -35 4q-47 11 -71 48q-18 28 -18 65q0 19 4 39q12 62 66 97q41 28 90 28
q12 0 25 -2q68 -10 82 -82zM790 1616q14 7 15 7q-1 0 0 8q-7 7 -17 11q-19 7 -40 -3t-27 -27q-4 -10 -3 -22q14 -3 72 26z" />
    <glyph glyph-name="Igrave" unicode="&#xcc;" horiz-adv-x="934" 
d="M227 872q-44 6 -54 9q-59 13 -74 64q-19 63 -19 132v11q1 92 25 154q38 104 266 124q51 4 176 4q140 0 224 -42q86 -42 103 -187q3 -34 3 -64q0 -84 -52 -152q-33 -43 -76 -56q-16 -5 -72 -10q-39 -3 -58 -21q-26 -25 -36 -91q-5 -35 -5 -125q0 -16 1 -28q4 -150 27 -168
q11 -8 88 -13q33 -6 52 -9q55 -22 55 -98v-3q10 -193 -35 -229q-47 -29 -355 -33q-22 -1 -41 -1q-133 0 -171 24q-36 22 -46 84q-3 140 -3 157q0 35 13 62q15 31 82 32q72 2 88 19q17 37 17 148q0 42 -2 44q-9 227 -64 250q-22 7 -57 12zM185 1194q16 31 44 47q20 12 68 28
q45 15 53 21q-101 0 -150 -26q-30 -16 -45 -53q-7 -18 -7 -33q0 -18 10 -32q5 6 27 48zM213 328q-1 -5 -1 -9q0 -22 31 -22h5q33 2 62 16q57 28 81 77q14 29 14 62q0 29 -11 61q0 -1 -1 -24q-1 -25 -6 -45q-16 -66 -81 -92q-12 -5 -58 -5q-33 0 -35 -19zM545 1435
q-20 -14 -44 -14q-22 0 -46 11q-28 12 -114 106q-85 95 -95 125q-8 23 -8 43q0 41 33 69q21 18 45 18q34 0 72 -35q47 -35 122 -122q80 -92 80 -120v-3q-8 -54 -45 -78z" />
    <glyph glyph-name="Iacute" unicode="&#xcd;" horiz-adv-x="934" 
d="M227 872q-44 6 -54 9q-59 13 -74 64q-19 63 -19 132v11q1 92 25 154q38 104 266 124q51 4 176 4q140 0 224 -42q86 -42 103 -187q3 -34 3 -64q0 -84 -52 -152q-33 -43 -76 -56q-16 -5 -72 -10q-39 -3 -58 -21q-26 -25 -36 -91q-5 -35 -5 -125q0 -16 1 -28q4 -150 27 -168
q11 -8 88 -13q33 -6 52 -9q55 -22 55 -98v-3q10 -193 -35 -229q-47 -29 -355 -33q-22 -1 -41 -1q-133 0 -171 24q-36 22 -46 84q-3 140 -3 157q0 35 13 62q15 31 82 32q72 2 88 19q17 37 17 148q0 42 -2 44q-9 227 -64 250q-22 7 -57 12zM185 1194q16 31 44 47q20 12 68 28
q45 15 53 21q-101 0 -150 -26q-30 -16 -45 -53q-7 -18 -7 -33q0 -18 10 -32q5 6 27 48zM213 328q-1 -5 -1 -9q0 -22 31 -22h5q33 2 62 16q57 28 81 77q14 29 14 62q0 29 -11 61q0 -1 -1 -24q-1 -25 -6 -45q-16 -66 -81 -92q-12 -5 -58 -5q-33 0 -35 -19zM334 1500v4
q0 28 79 119q76 87 122 122q39 35 72 35q24 0 45 -18q33 -29 33 -70q0 -20 -7 -42q-10 -30 -96 -125q-86 -94 -114 -106q-24 -11 -45 -11q-24 0 -45 14q-37 24 -44 78zM406 1511q3 1 132 128q33 33 37 53q-42 -3 -117 -100l-10 -12l-10 -10q-30 -35 -32 -59z" />
    <glyph glyph-name="Icircumflex" unicode="&#xce;" horiz-adv-x="934" 
d="M227 872q-44 6 -54 9q-59 13 -74 64q-19 63 -19 132v11q1 92 25 154q38 104 266 124q51 4 176 4q140 0 224 -42q86 -42 103 -187q3 -34 3 -64q0 -84 -52 -152q-33 -43 -76 -56q-16 -5 -72 -10q-39 -3 -58 -21q-26 -25 -36 -91q-5 -35 -5 -125q0 -16 1 -28q4 -150 27 -168
q11 -8 88 -13q33 -6 52 -9q55 -22 55 -98v-3q10 -193 -35 -229q-47 -29 -355 -33q-22 -1 -41 -1q-133 0 -171 24q-36 22 -46 84q-3 140 -3 157q0 35 13 62q15 31 82 32q72 2 88 19q17 37 17 148q0 42 -2 44q-9 227 -64 250q-22 7 -57 12zM185 1194q16 31 44 47q20 12 68 28
q45 15 53 21q-101 0 -150 -26q-30 -16 -45 -53q-7 -18 -7 -33q0 -18 10 -32q5 6 27 48zM213 328q-1 -5 -1 -9q0 -22 31 -22h5q33 2 62 16q57 28 81 77q14 29 14 62q0 29 -11 61q0 -1 -1 -24q-1 -25 -6 -45q-16 -66 -81 -92q-12 -5 -58 -5q-33 0 -35 -19zM782 1438q1 -4 1 -8
q0 -37 -41 -42q-6 -1 -12 -1q-42 0 -94 35q-20 16 -68 66q-47 50 -82 77q-100 -69 -178 -132q-54 -33 -87 -33q-26 0 -39 21q-8 14 -8 31q0 40 47 97q7 8 127 142q80 89 139 90h3q63 0 138 -92q146 -181 154 -251zM336 1567q75 74 105 99q23 19 25 29q-5 2 -12 2
q-38 0 -108 -88q-95 -119 -98 -119q25 16 88 77z" />
    <glyph glyph-name="Idieresis" unicode="&#xcf;" horiz-adv-x="934" 
d="M227 872q-44 6 -54 9q-59 13 -74 64q-19 63 -19 132v11q1 92 25 154q38 104 266 124q51 4 176 4q140 0 224 -42q86 -42 103 -187q3 -34 3 -64q0 -84 -52 -152q-33 -43 -76 -56q-16 -5 -72 -10q-39 -3 -58 -21q-26 -25 -36 -91q-5 -35 -5 -125q0 -16 1 -28q4 -150 27 -168
q11 -8 88 -13q33 -6 52 -9q55 -22 55 -98v-3q10 -193 -35 -229q-47 -29 -355 -33q-22 -1 -41 -1q-133 0 -171 24q-36 22 -46 84q-3 140 -3 157q0 35 13 62q15 31 82 32q72 2 88 19q17 37 17 148q0 42 -2 44q-9 227 -64 250q-22 7 -57 12zM185 1194q16 31 44 47q20 12 68 28
q45 15 53 21q-101 0 -150 -26q-30 -16 -45 -53q-7 -18 -7 -33q0 -18 10 -32q5 6 27 48zM213 328q-1 -5 -1 -9q0 -22 31 -22h5q33 2 62 16q57 28 81 77q14 29 14 62q0 29 -11 61q0 -1 -1 -24q-1 -25 -6 -45q-16 -66 -81 -92q-12 -5 -58 -5q-33 0 -35 -19zM418 1627
q3 -18 3 -35q0 -45 -22 -89q-22 -43 -69 -62q-27 -11 -55 -11q-18 0 -35 4q-47 11 -71 48q-18 28 -18 65q0 19 4 39q12 62 66 97q41 28 90 28q12 0 25 -2q68 -10 82 -82zM281 1616q10 11 11 11q-1 0 -2 8q-10 4 -20 4q-20 0 -37 -17q-16 -16 -16 -34q0 -11 5 -22q15 2 59 50
zM803 1627q3 -18 3 -35q0 -45 -22 -89q-22 -43 -69 -62q-27 -11 -55 -11q-18 0 -35 4q-47 11 -71 48q-18 28 -18 65q0 19 4 39q12 62 66 97q41 28 90 28q12 0 25 -2q68 -10 82 -82zM679 1626q13 7 14 7q-1 0 1 8q-8 7 -17 11q-19 7 -41 -3q-21 -10 -27 -27q-4 -10 -3 -22
q15 -3 73 26z" />
    <glyph glyph-name="Eth" unicode="&#xd0;" horiz-adv-x="1201" 
d="M254 1174q13 56 25 79q24 45 54 59q47 23 52 27q-13 9 -31 9q-15 0 -33 -6q-44 -15 -62 -56q-24 -55 -24 -176q7 11 19 64zM735 476q87 57 87 143q-10 -3 -52 -59q-46 -61 -130 -99q-77 -34 -78 -36q95 0 173 51zM467 598q-5 -51 -13 -89q-1 -6 -2 -10q29 -6 59 -6
q42 0 87 12q73 20 119 62q40 37 40 75q0 7 -1 14q-11 52 -96 90q-86 39 -132 39q-52 0 -53 -49q-1 -31 -2 -60q5 0 8 -1q88 -13 88 -41v-2q-2 -29 -102 -34zM151 682q16 487 43 593q36 141 220 141q144 0 286 -70q56 -28 110 -67q178 -129 271 -321q74 -156 80 -309v-18
q0 -124 -75 -247q-74 -121 -204 -216q-126 -92 -266 -132q-90 -26 -168 -26q-50 0 -95 10q-100 23 -156 83q-57 62 -57 151v9q0 18 1 37q3 160 7 295q-24 0 -42 1q-86 2 -99 9q-34 16 -34 32q0 4 1 7q9 21 70 32q33 5 71 6h36z" />
    <glyph glyph-name="Ntilde" unicode="&#xd1;" horiz-adv-x="1222" 
d="M349 40q-31 -20 -73 -20h-4q-43 2 -76 25q-35 25 -42 67q-14 96 -14 346q0 79 1 173q5 388 5 519v70q0 80 27 117q23 31 72 37q10 1 19 1q36 0 63 -15q50 -28 102 -114q137 -225 239 -558q35 -113 49 -113h1q11 6 40 144q15 70 20 346q5 237 33 277q51 72 145 72
q11 0 22 -1q114 -11 125 -122q10 -107 10 -241q0 -169 -16 -379q-37 -487 -151 -589q-56 -49 -137 -53h-12q-76 0 -129 46q-143 124 -209 275q-14 32 -27 69q-14 36 -15 38q-2 6 -4 6q-1 0 -2 -4q-1 -6 -2 -41q-6 -245 -17 -311q-7 -43 -43 -67zM864 1241q22 44 25 48
q7 9 26 22q20 13 27 22q-10 7 -16 8q-8 2 -15 2q-30 0 -51 -35q-14 -22 -14 -42q0 -18 12 -34q4 4 6 9zM722 537q18 -10 33 -10q44 0 60 84q20 61 20 118q0 21 -3 41q-5 -12 -14 -55q-10 -47 -18 -73q-29 -94 -78 -105zM253 1293q10 8 12 16q-11 3 -20 3q-31 0 -47 -33
q-17 -35 -17 -85q0 -33 7 -71q14 128 65 170zM428 1724q33 12 65 12q18 0 36 -4q55 -12 83 -61q34 -60 116 -61q49 0 98 56q42 49 83 49h7q39 -4 49 -46q2 -11 2 -23q0 -33 -18 -70q-62 -131 -228 -138q-26 -1 -46 -1q-47 0 -63 5q-45 14 -84 79q-17 29 -45 29h-7
q-30 -4 -58 -36q-19 -22 -54 -35q-21 -8 -36 -8q-7 0 -12 2q-27 7 -30 42v6q0 30 17 69q44 103 125 134z" />
    <glyph glyph-name="Ograve" unicode="&#xd2;" horiz-adv-x="1273" 
d="M1136 1065q62 -146 67 -320v-24q0 -161 -51 -305q-58 -164 -170 -265q-137 -124 -333 -131h-20q-192 0 -309 127q-200 219 -241 512q-9 64 -9 125q0 235 136 417q112 150 360 183q54 7 104 7q173 0 287 -85q114 -86 179 -241zM465 629q-39 -65 -39 -125q0 -81 72 -152
q51 -51 104 -51q10 0 21 2q64 11 101 89q34 71 34 137q0 43 -14 83q-42 121 -131 122q-86 0 -148 -105zM773 313q51 74 51 172q-2 -2 -36 -79q-35 -77 -100 -124q-62 -44 -64 -52q92 0 149 83zM175 940q19 67 33 100q58 137 214 216q23 12 91 32q62 18 75 27
q-200 0 -321 -124t-121 -325q14 20 29 74zM709 1420q-20 -14 -44 -14q-22 0 -46 11q-28 12 -114 106q-85 95 -95 125q-8 23 -8 43q0 41 33 69q21 18 45 18q34 0 72 -35q47 -35 122 -122q80 -92 80 -120v-3q-8 -54 -45 -78z" />
    <glyph glyph-name="Oacute" unicode="&#xd3;" horiz-adv-x="1273" 
d="M1136 1065q62 -146 67 -320v-24q0 -161 -51 -305q-58 -164 -170 -265q-137 -124 -333 -131h-20q-192 0 -309 127q-200 219 -241 512q-9 64 -9 125q0 235 136 417q112 150 360 183q54 7 104 7q173 0 287 -85q114 -86 179 -241zM465 629q-39 -65 -39 -125q0 -81 72 -152
q51 -51 104 -51q10 0 21 2q64 11 101 89q34 71 34 137q0 43 -14 83q-42 121 -131 122q-86 0 -148 -105zM773 313q51 74 51 172q-2 -2 -36 -79q-35 -77 -100 -124q-62 -44 -64 -52q92 0 149 83zM175 940q19 67 33 100q58 137 214 216q23 12 91 32q62 18 75 27
q-200 0 -321 -124t-121 -325q14 20 29 74zM520 1495v4q0 28 79 119q76 87 122 122q39 35 72 35q24 0 45 -18q33 -29 33 -70q0 -20 -7 -42q-10 -30 -96 -125q-86 -94 -114 -106q-24 -11 -45 -11q-24 0 -45 14q-37 24 -44 78zM592 1506q3 1 132 128q33 33 37 53
q-42 -3 -117 -100l-10 -12l-10 -10q-30 -35 -32 -59z" />
    <glyph glyph-name="Ocircumflex" unicode="&#xd4;" horiz-adv-x="1273" 
d="M1136 1065q62 -146 67 -320v-24q0 -161 -51 -305q-58 -164 -170 -265q-137 -124 -333 -131h-20q-192 0 -309 127q-200 219 -241 512q-9 64 -9 125q0 235 136 417q112 150 360 183q54 7 104 7q173 0 287 -85q114 -86 179 -241zM465 629q-39 -65 -39 -125q0 -81 72 -152
q51 -51 104 -51q10 0 21 2q64 11 101 89q34 71 34 137q0 43 -14 83q-42 121 -131 122q-86 0 -148 -105zM773 313q51 74 51 172q-2 -2 -36 -79q-35 -77 -100 -124q-62 -44 -64 -52q92 0 149 83zM175 940q19 67 33 100q58 137 214 216q23 12 91 32q62 18 75 27
q-200 0 -321 -124t-121 -325q14 20 29 74zM970 1428q1 -4 1 -8q0 -37 -41 -42q-6 -1 -12 -1q-42 0 -94 35q-20 16 -68 66q-47 50 -82 77q-100 -69 -178 -132q-54 -33 -87 -33q-26 0 -39 21q-8 14 -8 31q0 40 47 97q7 8 127 142q80 89 139 90h3q63 0 138 -92
q146 -181 154 -251zM524 1557q75 74 105 99q23 19 25 29q-5 2 -12 2q-38 0 -108 -88q-95 -119 -98 -119q25 16 88 77z" />
    <glyph glyph-name="Otilde" unicode="&#xd5;" horiz-adv-x="1273" 
d="M1136 1065q62 -146 67 -320v-24q0 -161 -51 -305q-58 -164 -170 -265q-137 -124 -333 -131h-20q-192 0 -309 127q-200 219 -241 512q-9 64 -9 125q0 235 136 417q112 150 360 183q54 7 104 7q173 0 287 -85q114 -86 179 -241zM465 629q-39 -65 -39 -125q0 -81 72 -152
q51 -51 104 -51q10 0 21 2q64 11 101 89q34 71 34 137q0 43 -14 83q-42 121 -131 122q-86 0 -148 -105zM773 313q51 74 51 172q-2 -2 -36 -79q-35 -77 -100 -124q-62 -44 -64 -52q92 0 149 83zM175 940q19 67 33 100q58 137 214 216q23 12 91 32q62 18 75 27
q-200 0 -321 -124t-121 -325q14 20 29 74zM438 1735q33 12 65 12q18 0 36 -4q55 -12 83 -61q34 -60 116 -61q49 0 98 56q42 49 83 49h7q39 -4 49 -46q2 -11 2 -23q0 -33 -18 -70q-62 -131 -228 -138q-26 -1 -46 -1q-47 0 -63 5q-45 14 -84 79q-17 29 -45 29h-7
q-30 -4 -58 -36q-19 -22 -54 -35q-21 -8 -36 -8q-7 0 -12 2q-27 7 -30 42v6q0 30 17 69q44 103 125 134z" />
    <glyph glyph-name="Odieresis" unicode="&#xd6;" horiz-adv-x="1273" 
d="M1136 1065q62 -146 67 -320v-24q0 -161 -51 -305q-58 -164 -170 -265q-137 -124 -333 -131h-20q-192 0 -309 127q-200 219 -241 512q-9 64 -9 125q0 235 136 417q112 150 360 183q54 7 104 7q173 0 287 -85q114 -86 179 -241zM465 629q-39 -65 -39 -125q0 -81 72 -152
q51 -51 104 -51q10 0 21 2q64 11 101 89q34 71 34 137q0 43 -14 83q-42 121 -131 122q-86 0 -148 -105zM773 313q51 74 51 172q-2 -2 -36 -79q-35 -77 -100 -124q-62 -44 -64 -52q92 0 149 83zM175 940q19 67 33 100q58 137 214 216q23 12 91 32q62 18 75 27
q-200 0 -321 -124t-121 -325q14 20 29 74zM576 1627q3 -18 3 -35q0 -45 -22 -89q-22 -43 -69 -62q-27 -11 -55 -11q-18 0 -35 4q-47 11 -71 48q-18 28 -18 65q0 19 4 39q12 62 66 97q41 28 90 28q12 0 25 -2q68 -10 82 -82zM439 1616q10 11 11 11q-1 0 -2 8q-10 4 -20 4
q-20 0 -37 -17q-16 -16 -16 -34q0 -11 5 -22q15 2 59 50zM961 1627q3 -18 3 -35q0 -45 -22 -89q-22 -43 -69 -62q-27 -11 -55 -11q-18 0 -35 4q-47 11 -71 48q-18 28 -18 65q0 19 4 39q12 62 66 97q41 28 90 28q12 0 25 -2q68 -10 82 -82zM837 1626q13 7 14 7q-1 0 1 8
q-8 7 -17 11q-19 7 -41 -3q-21 -10 -27 -27q-4 -10 -3 -22q15 -3 73 26z" />
    <glyph glyph-name="multiply" unicode="&#xd7;" horiz-adv-x="940" 
d="M821 479q19 -63 -22 -104q-9 -9 -21 -17q-62 -39 -156 -24q-55 39 -162 146l-18 18q-189 -173 -215 -169q-53 5 -83 36q-7 6 -11 13q-33 45 -10 108q10 25 157 189q-179 209 -172 236q10 55 43 87q8 8 18 15q51 36 116 13q29 -11 182 -156q154 153 189 167q36 13 75 -1
q29 -11 51 -33q6 -5 11 -12q25 -31 25 -66q1 -33 -23 -57q-3 -4 -8 -7q-33 -49 -145 -167q167 -177 179 -215zM151 925q2 -31 25 -61q21 -31 48 -44q-44 53 -73 105z" />
    <glyph glyph-name="Oslash" unicode="&#xd8;" horiz-adv-x="1273" 
d="M773 313q51 74 51 172q-2 -2 -36 -79q-35 -77 -100 -124q-62 -44 -64 -52q92 0 149 83zM175 940q19 67 33 100q58 137 214 216q23 12 91 32q62 18 75 27q-200 0 -321 -124t-121 -325q14 20 29 74zM534 322q34 -21 68 -21q10 0 21 2q64 11 101 89q34 71 34 137
q0 43 -14 83q-7 19 -15 35q-43 -72 -91 -152q-56 -94 -104 -173zM472 381q62 103 136 224q35 57 67 110q-27 19 -62 19q-86 0 -148 -105q-39 -65 -39 -125q0 -65 46 -123zM1059 1202q45 -60 77 -137q62 -146 67 -320v-24q0 -161 -51 -305q-58 -164 -170 -265
q-137 -124 -333 -131h-20q-138 0 -238 66q-78 -127 -105 -166q-33 -38 -58 -47q-6 -2 -9 1q-17 14 -2 72q43 77 111 193l-8 8q-200 219 -241 512q-9 64 -9 125q0 235 136 417q112 150 360 183q54 7 104 7q173 0 287 -85q28 -21 53 -47q62 97 73 109q35 33 56 40q4 1 8 0
q13 -7 -1 -48q-7 -15 -16 -32q-12 -25 -71 -126z" />
    <glyph glyph-name="Ugrave" unicode="&#xd9;" horiz-adv-x="1176" 
d="M774 81q-81 -31 -179 -31q-31 0 -64 3q-129 12 -236 69q-111 58 -155 143q-62 121 -73 479q-2 58 -2 110q0 269 48 373q52 115 175 144q27 6 50 6q91 0 133 -96q13 -29 21 -76q9 -56 9 -162q0 -78 -5 -183q-3 -71 -3 -129q0 -135 16 -207t67 -72h6q54 4 85 74
q44 100 63 332q21 250 57 356q48 143 152 143q46 -1 85 -36q42 -38 63 -105q24 -74 24 -192q0 -127 -28 -307q-51 -329 -135 -488q-54 -102 -174 -148zM835 1076q15 66 21 84q18 54 51 85q18 17 18 32q0 4 -1 7q-7 2 -13 2q-49 0 -77 -112q-21 -79 -21 -136q0 -18 2 -34
q6 13 20 72zM163 1115q13 53 38 89q20 31 62 59q41 26 48 37q-13 6 -27 6q-30 0 -64 -27q-56 -45 -69 -128q-1 -6 -4 -51l-1 -41q3 4 17 56zM750 517q39 99 39 225l-27 -106q-44 -157 -132 -214q-32 -21 -33 -21l-2 -16q103 0 155 132zM735 1356q-20 -14 -44 -14
q-22 0 -46 11q-28 12 -114 106q-85 95 -95 125q-8 23 -8 43q0 41 33 69q21 18 45 18q34 0 72 -35q47 -35 122 -122q80 -92 80 -120v-3q-8 -54 -45 -78z" />
    <glyph glyph-name="Uacute" unicode="&#xda;" horiz-adv-x="1176" 
d="M774 81q-81 -31 -179 -31q-31 0 -64 3q-129 12 -236 69q-111 58 -155 143q-62 121 -73 479q-2 58 -2 110q0 269 48 373q52 115 175 144q27 6 50 6q91 0 133 -96q13 -29 21 -76q9 -56 9 -162q0 -78 -5 -183q-3 -71 -3 -129q0 -135 16 -207t67 -72h6q54 4 85 74
q44 100 63 332q21 250 57 356q48 143 152 143q46 -1 85 -36q42 -38 63 -105q24 -74 24 -192q0 -127 -28 -307q-51 -329 -135 -488q-54 -102 -174 -148zM835 1076q15 66 21 84q18 54 51 85q18 17 18 32q0 4 -1 7q-7 2 -13 2q-49 0 -77 -112q-21 -79 -21 -136q0 -18 2 -34
q6 13 20 72zM163 1115q13 53 38 89q20 31 62 59q41 26 48 37q-13 6 -27 6q-30 0 -64 -27q-56 -45 -69 -128q-1 -6 -4 -51l-1 -41q3 4 17 56zM750 517q39 99 39 225l-27 -106q-44 -157 -132 -214q-32 -21 -33 -21l-2 -16q103 0 155 132zM446 1437v4q0 28 79 119
q76 87 122 122q39 35 72 35q24 0 45 -18q33 -29 33 -70q0 -20 -7 -42q-10 -30 -96 -125q-86 -94 -114 -106q-24 -11 -45 -11q-24 0 -45 14q-37 24 -44 78zM518 1448q3 1 132 128q33 33 37 53q-42 -3 -117 -100l-10 -12l-10 -10q-30 -35 -32 -59z" />
    <glyph glyph-name="Ucircumflex" unicode="&#xdb;" horiz-adv-x="1176" 
d="M774 81q-81 -31 -179 -31q-31 0 -64 3q-129 12 -236 69q-111 58 -155 143q-62 121 -73 479q-2 58 -2 110q0 269 48 373q52 115 175 144q27 6 50 6q91 0 133 -96q13 -29 21 -76q9 -56 9 -162q0 -78 -5 -183q-3 -71 -3 -129q0 -135 16 -207t67 -72h6q54 4 85 74
q44 100 63 332q21 250 57 356q48 143 152 143q46 -1 85 -36q42 -38 63 -105q24 -74 24 -192q0 -127 -28 -307q-51 -329 -135 -488q-54 -102 -174 -148zM835 1076q15 66 21 84q18 54 51 85q18 17 18 32q0 4 -1 7q-7 2 -13 2q-49 0 -77 -112q-21 -79 -21 -136q0 -18 2 -34
q6 13 20 72zM163 1115q13 53 38 89q20 31 62 59q41 26 48 37q-13 6 -27 6q-30 0 -64 -27q-56 -45 -69 -128q-1 -6 -4 -51l-1 -41q3 4 17 56zM750 517q39 99 39 225l-27 -106q-44 -157 -132 -214q-32 -21 -33 -21l-2 -16q103 0 155 132zM939 1428q1 -4 1 -8q0 -37 -41 -42
q-6 -1 -12 -1q-42 0 -94 35q-20 16 -68 66q-47 50 -82 77q-100 -69 -178 -132q-54 -33 -87 -33q-26 0 -39 21q-8 14 -8 31q0 40 47 97q7 8 127 142q80 89 139 90h3q63 0 138 -92q146 -181 154 -251zM493 1557q75 74 105 99q23 19 25 29q-5 2 -12 2q-38 0 -108 -88
q-95 -119 -98 -119q25 16 88 77z" />
    <glyph glyph-name="Udieresis" unicode="&#xdc;" horiz-adv-x="1176" 
d="M774 81q-81 -31 -179 -31q-31 0 -64 3q-129 12 -236 69q-111 58 -155 143q-62 121 -73 479q-2 58 -2 110q0 269 48 373q52 115 175 144q27 6 50 6q91 0 133 -96q13 -29 21 -76q9 -56 9 -162q0 -78 -5 -183q-3 -71 -3 -129q0 -135 16 -207t67 -72h6q54 4 85 74
q44 100 63 332q21 250 57 356q48 143 152 143q46 -1 85 -36q42 -38 63 -105q24 -74 24 -192q0 -127 -28 -307q-51 -329 -135 -488q-54 -102 -174 -148zM835 1076q15 66 21 84q18 54 51 85q18 17 18 32q0 4 -1 7q-7 2 -13 2q-49 0 -77 -112q-21 -79 -21 -136q0 -18 2 -34
q6 13 20 72zM163 1115q13 53 38 89q20 31 62 59q41 26 48 37q-13 6 -27 6q-30 0 -64 -27q-56 -45 -69 -128q-1 -6 -4 -51l-1 -41q3 4 17 56zM750 517q39 99 39 225l-27 -106q-44 -157 -132 -214q-32 -21 -33 -21l-2 -16q103 0 155 132zM572 1627q3 -18 3 -35q0 -45 -22 -89
q-22 -43 -69 -62q-27 -11 -55 -11q-18 0 -35 4q-47 11 -71 48q-18 28 -18 65q0 19 4 39q12 62 66 97q41 28 90 28q12 0 25 -2q68 -10 82 -82zM435 1616q10 11 11 11q-1 0 -2 8q-10 4 -20 4q-20 0 -37 -17q-16 -16 -16 -34q0 -11 5 -22q15 2 59 50zM957 1627q3 -18 3 -35
q0 -45 -22 -89q-22 -43 -69 -62q-27 -11 -55 -11q-18 0 -35 4q-47 11 -71 48q-18 28 -18 65q0 19 4 39q12 62 66 97q41 28 90 28q12 0 25 -2q68 -10 82 -82zM833 1626q13 7 14 7q-1 0 1 8q-8 7 -17 11q-19 7 -41 -3q-21 -10 -27 -27q-4 -10 -3 -22q15 -3 73 26z" />
    <glyph glyph-name="Yacute" unicode="&#xdd;" horiz-adv-x="1244" 
d="M733 1087q37 105 66 167q91 198 196 201h5q67 0 121 -24q68 -31 80 -89q3 -14 3 -31q0 -162 -276 -520q-128 -166 -128 -285q1 -382 2 -379q-13 -63 -57 -97q-39 -29 -92 -30h-4q-48 0 -89 24q-44 26 -61 68q-13 30 -13 133q0 30 1 66q2 54 2 96q0 92 -9 128
q-30 131 -54 179q-22 44 -108 150q-161 198 -168 209q-110 150 -110 223v5q5 74 76 111q42 22 90 22q32 0 67 -10q141 -39 231 -181q60 -96 115 -278q18 -58 28 -58q9 1 34 59q11 26 52 141zM157 1305q31 26 35 38q-86 0 -86 -41q0 -11 7 -26q13 4 44 29zM656 849
q12 -9 24 -9q40 0 85 98q18 40 39 101l23 68q67 172 121 225q48 47 52 47v-1q-12 9 -25 9q-56 0 -127 -157q-27 -59 -61 -153q-35 -96 -39 -104q-12 -26 -55 -72q-37 -38 -37 -51v-1zM505 1475v4q0 28 79 119q76 87 122 122q39 35 72 35q24 0 45 -18q33 -29 33 -70
q0 -20 -7 -42q-10 -30 -96 -125q-86 -94 -114 -106q-24 -11 -45 -11q-24 0 -45 14q-37 24 -44 78zM577 1486q3 1 132 128q33 33 37 53q-42 -3 -117 -100l-10 -12l-10 -10q-30 -35 -32 -59z" />
    <glyph glyph-name="Thorn" unicode="&#xde;" horiz-adv-x="1162" 
d="M490 554q29 -5 56 -5q81 0 143 45q30 22 30 45q0 4 -1 9q-8 31 -72 53q-65 23 -99 23q-38 0 -39 -29q-3 -86 -16 -135q-1 -4 -2 -6zM201 1311q41 42 98 51q13 2 26 2q42 0 81 -20q53 -28 81 -85q11 -63 15 -159q92 -8 174 -41q42 -16 82 -39q134 -78 204 -192
q55 -93 60 -185v-12q0 -142 -187 -261q-171 -109 -344 -109q-14 0 -29 1q-16 -135 -29 -159q-47 -98 -101 -103h-5q-55 0 -89 102q-28 85 -69 532q-29 329 -29 472q0 56 4 84q12 75 57 121zM209 1187q2 1 41 49q40 49 44 49v-1q-37 0 -63 -29q-22 -25 -22 -68zM632 492
q45 0 94 36q38 28 38 54q0 9 -5 19q-10 -7 -59 -56q-21 -21 -42 -33q-18 -10 -26 -20z" />
    <glyph glyph-name="germandbls" unicode="&#xdf;" horiz-adv-x="1134" 
d="M551 452q-8 4 -16 6q-3 2 -7 3q-29 8 -40 65q-4 21 -4 40q0 28 8 51q13 36 117 111q75 53 75 101q0 9 -2 17q-24 88 -148 88h-19q-23 -1 -30 -1h-3q-23 -5 -29 -29q-25 -95 -25 -304q0 -182 19 -450q5 -70 5 -103q0 -25 -3 -29q-11 -18 -78 -18q-24 0 -56 2
q-72 5 -141 23q-22 6 -29 28q-2 8 -5 591v237q0 366 5 396q7 36 29 45q98 34 209 34q79 0 165 -17q198 -41 325 -151q121 -105 121 -227q0 -16 -2 -32q-22 -162 -249 -308q-22 -15 -98 -44q4 2 12 2q35 0 133 -40q150 -60 166 -166q2 -14 2 -29q0 -71 -58 -141
q-68 -82 -194 -137q-17 -10 -39 -10q-21 0 -48 10q-49 19 -89 64q-42 46 -50 96q-1 9 -1 18q0 45 34 80h7q35 0 61 10q37 14 37 44v2q-7 45 -67 72zM547 573q13 3 38 31q36 39 63 61q74 60 87 113q-15 -4 -49 -48q-15 -20 -66 -60t-61 -54q-12 -17 -12 -43zM529 247
q10 -15 21 -15q3 0 6 1q1 0 54 30q52 29 52 80q-9 -2 -62 -53q-13 -12 -38 -21q-23 -9 -33 -22z" />
    <glyph glyph-name="agrave" unicode="&#xe0;" horiz-adv-x="1028" 
d="M987 200q1 -8 1 -16q0 -51 -38 -88q-42 -42 -104 -43q-68 0 -122 51q-62 60 -86 175q-22 104 -97 106h-3q-72 0 -120 -96q-64 -126 -64 -127l1 1q-34 -59 -93 -90q-45 -23 -88 -23q-12 0 -24 2q-58 8 -87 53q-23 36 -23 88q0 23 4 48q13 83 39 189q35 139 57 216
q35 115 64 197q157 448 304 516q26 12 51 12q95 0 183 -168q168 -325 245 -1003zM598 690q-11 62 -21 99q-19 72 -38 72q-13 0 -25 -29q-12 -26 -44 -178q-3 -17 -3 -23v-2q1 -4 8 -4q4 0 9 1q20 4 39 4q22 0 43 -5q9 -3 31 -8l10 -3h1q3 0 3 3v2q-1 5 -13 71zM571 556
q18 -2 33 -2q48 0 61 22q5 9 5 23q0 27 -20 76q1 -7 1 -15q0 -24 -8 -46q-18 -47 -72 -58zM120 256q-1 0 -1 1q0 20 76 286q46 161 90 280q116 312 232 428q25 25 25 40q0 3 -1 6q-4 1 -9 1q-53 0 -129 -134q-70 -124 -145 -335q-143 -401 -143 -534q0 -24 5 -39zM639 1453
q-20 -14 -44 -14q-22 0 -46 11q-28 12 -114 106q-85 95 -95 125q-8 23 -8 43q0 41 33 69q21 18 45 18q34 0 72 -35q47 -35 122 -122q80 -92 80 -120v-3q-8 -54 -45 -78z" />
    <glyph glyph-name="aacute" unicode="&#xe1;" horiz-adv-x="1028" 
d="M987 200q1 -8 1 -16q0 -51 -38 -88q-42 -42 -104 -43q-68 0 -122 51q-62 60 -86 175q-22 104 -97 106h-3q-72 0 -120 -96q-64 -126 -64 -127l1 1q-34 -59 -93 -90q-45 -23 -88 -23q-12 0 -24 2q-58 8 -87 53q-23 36 -23 88q0 23 4 48q13 83 39 189q35 139 57 216
q35 115 64 197q157 448 304 516q26 12 51 12q95 0 183 -168q168 -325 245 -1003zM598 690q-11 62 -21 99q-19 72 -38 72q-13 0 -25 -29q-12 -26 -44 -178q-3 -17 -3 -23v-2q1 -4 8 -4q4 0 9 1q20 4 39 4q22 0 43 -5q9 -3 31 -8l10 -3h1q3 0 3 3v2q-1 5 -13 71zM571 556
q18 -2 33 -2q48 0 61 22q5 9 5 23q0 27 -20 76q1 -7 1 -15q0 -24 -8 -46q-18 -47 -72 -58zM120 256q-1 0 -1 1q0 20 76 286q46 161 90 280q116 312 232 428q25 25 25 40q0 3 -1 6q-4 1 -9 1q-53 0 -129 -134q-70 -124 -145 -335q-143 -401 -143 -534q0 -24 5 -39zM397 1482
v4q0 28 79 119q76 87 122 122q39 35 72 35q24 0 45 -18q33 -29 33 -70q0 -20 -7 -42q-10 -30 -96 -125q-86 -94 -114 -106q-24 -11 -45 -11q-24 0 -45 14q-37 24 -44 78zM469 1493q3 1 132 128q33 33 37 53q-42 -3 -117 -100l-10 -12l-10 -10q-30 -35 -32 -59z" />
    <glyph glyph-name="acircumflex" unicode="&#xe2;" horiz-adv-x="1028" 
d="M987 200q1 -8 1 -16q0 -51 -38 -88q-42 -42 -104 -43q-68 0 -122 51q-62 60 -86 175q-22 104 -97 106h-3q-72 0 -120 -96q-64 -126 -64 -127l1 1q-34 -59 -93 -90q-45 -23 -88 -23q-12 0 -24 2q-58 8 -87 53q-23 36 -23 88q0 23 4 48q13 83 39 189q35 139 57 216
q35 115 64 197q157 448 304 516q26 12 51 12q95 0 183 -168q168 -325 245 -1003zM598 690q-11 62 -21 99q-19 72 -38 72q-13 0 -25 -29q-12 -26 -44 -178q-3 -17 -3 -23v-2q1 -4 8 -4q4 0 9 1q20 4 39 4q22 0 43 -5q9 -3 31 -8l10 -3h1q3 0 3 3v2q-1 5 -13 71zM571 556
q18 -2 33 -2q48 0 61 22q5 9 5 23q0 27 -20 76q1 -7 1 -15q0 -24 -8 -46q-18 -47 -72 -58zM120 256q-1 0 -1 1q0 20 76 286q46 161 90 280q116 312 232 428q25 25 25 40q0 3 -1 6q-4 1 -9 1q-53 0 -129 -134q-70 -124 -145 -335q-143 -401 -143 -534q0 -24 5 -39zM863 1377
q1 -4 1 -8q0 -37 -41 -42q-6 -1 -12 -1q-42 0 -94 35q-20 16 -68 66q-47 50 -82 77q-100 -69 -178 -132q-54 -33 -87 -33q-26 0 -39 21q-8 14 -8 31q0 40 47 97q7 8 127 142q80 89 139 90h3q63 0 138 -92q146 -181 154 -251zM417 1506q75 74 105 99q23 19 25 29q-5 2 -12 2
q-38 0 -108 -88q-95 -119 -98 -119q25 16 88 77z" />
    <glyph glyph-name="atilde" unicode="&#xe3;" horiz-adv-x="1028" 
d="M987 200q1 -8 1 -16q0 -51 -38 -88q-42 -42 -104 -43q-68 0 -122 51q-62 60 -86 175q-22 104 -97 106h-3q-72 0 -120 -96q-64 -126 -64 -127l1 1q-34 -59 -93 -90q-45 -23 -88 -23q-12 0 -24 2q-58 8 -87 53q-23 36 -23 88q0 23 4 48q13 83 39 189q35 139 57 216
q35 115 64 197q157 448 304 516q26 12 51 12q95 0 183 -168q168 -325 245 -1003zM598 690q-11 62 -21 99q-19 72 -38 72q-13 0 -25 -29q-12 -26 -44 -178q-3 -17 -3 -23v-2q1 -4 8 -4q4 0 9 1q20 4 39 4q22 0 43 -5q9 -3 31 -8l10 -3h1q3 0 3 3v2q-1 5 -13 71zM571 556
q18 -2 33 -2q48 0 61 22q5 9 5 23q0 27 -20 76q1 -7 1 -15q0 -24 -8 -46q-18 -47 -72 -58zM120 256q-1 0 -1 1q0 20 76 286q46 161 90 280q116 312 232 428q25 25 25 40q0 3 -1 6q-4 1 -9 1q-53 0 -129 -134q-70 -124 -145 -335q-143 -401 -143 -534q0 -24 5 -39zM366 1720
q33 12 65 12q18 0 36 -4q55 -12 83 -61q34 -60 116 -61q49 0 98 56q42 49 83 49h7q39 -4 49 -46q2 -11 2 -23q0 -33 -18 -70q-62 -131 -228 -138q-26 -1 -46 -1q-47 0 -63 5q-45 14 -84 79q-17 29 -45 29h-7q-30 -4 -58 -36q-19 -22 -54 -35q-21 -8 -36 -8q-7 0 -12 2
q-27 7 -30 42v6q0 30 17 69q44 103 125 134z" />
    <glyph glyph-name="adieresis" unicode="&#xe4;" horiz-adv-x="1028" 
d="M987 200q1 -8 1 -16q0 -51 -38 -88q-42 -42 -104 -43q-68 0 -122 51q-62 60 -86 175q-22 104 -97 106h-3q-72 0 -120 -96q-64 -126 -64 -127l1 1q-34 -59 -93 -90q-45 -23 -88 -23q-12 0 -24 2q-58 8 -87 53q-23 36 -23 88q0 23 4 48q13 83 39 189q35 139 57 216
q35 115 64 197q157 448 304 516q26 12 51 12q95 0 183 -168q168 -325 245 -1003zM598 690q-11 62 -21 99q-19 72 -38 72q-13 0 -25 -29q-12 -26 -44 -178q-3 -17 -3 -23v-2q1 -4 8 -4q4 0 9 1q20 4 39 4q22 0 43 -5q9 -3 31 -8l10 -3h1q3 0 3 3v2q-1 5 -13 71zM571 556
q18 -2 33 -2q48 0 61 22q5 9 5 23q0 27 -20 76q1 -7 1 -15q0 -24 -8 -46q-18 -47 -72 -58zM120 256q-1 0 -1 1q0 20 76 286q46 161 90 280q116 312 232 428q25 25 25 40q0 3 -1 6q-4 1 -9 1q-53 0 -129 -134q-70 -124 -145 -335q-143 -401 -143 -534q0 -24 5 -39zM484 1627
q3 -18 3 -35q0 -45 -22 -89q-22 -43 -69 -62q-27 -11 -55 -11q-18 0 -35 4q-47 11 -71 48q-18 28 -18 65q0 19 4 39q12 62 66 97q41 28 90 28q12 0 25 -2q68 -10 82 -82zM347 1616q10 11 11 11q-1 0 -2 8q-10 4 -20 4q-20 0 -37 -17q-16 -16 -16 -34q0 -11 5 -22q15 2 59 50
zM868 1627q3 -18 3 -35q0 -45 -22 -89q-22 -43 -69 -62q-27 -11 -55 -11q-18 0 -35 4q-47 11 -71 48q-18 28 -18 65q0 19 4 39q12 62 66 97q41 28 90 28q12 0 25 -2q68 -10 82 -82zM744 1626q14 7 15 7q-1 0 0 8q-7 7 -17 11q-19 7 -40 -3t-27 -27q-4 -10 -3 -22
q14 -3 72 26z" />
    <glyph glyph-name="aring" unicode="&#xe5;" horiz-adv-x="1028" 
d="M987 200q1 -8 1 -16q0 -51 -38 -88q-42 -42 -104 -43q-68 0 -122 51q-62 60 -86 175q-22 104 -97 106h-3q-72 0 -120 -96q-64 -126 -64 -127l1 1q-34 -59 -93 -90q-45 -23 -88 -23q-12 0 -24 2q-58 8 -87 53q-23 36 -23 88q0 23 4 48q13 83 39 189q35 139 57 216
q35 115 64 197q157 448 304 516q26 12 51 12q95 0 183 -168q168 -325 245 -1003zM598 690q-11 62 -21 99q-19 72 -38 72q-13 0 -25 -29q-12 -26 -44 -178q-3 -17 -3 -23v-2q1 -4 8 -4q4 0 9 1q20 4 39 4q22 0 43 -5q9 -3 31 -8l10 -3h1q3 0 3 3v2q-1 5 -13 71zM571 556
q18 -2 33 -2q48 0 61 22q5 9 5 23q0 27 -20 76q1 -7 1 -15q0 -24 -8 -46q-18 -47 -72 -58zM120 256q-1 0 -1 1q0 20 76 286q46 161 90 280q116 312 232 428q25 25 25 40q0 3 -1 6q-4 1 -9 1q-53 0 -129 -134q-70 -124 -145 -335q-143 -401 -143 -534q0 -24 5 -39zM449 1672
q42 45 105 45q19 0 40 -4q89 -18 124 -96q13 -31 13 -67q0 -18 -3 -37q-11 -62 -49 -90q-58 -43 -122 -43h-11q-75 3 -118 66q-22 32 -22 86q0 14 1 29q8 74 42 111zM535 1515q15 -20 31 -20q13 0 28 14q15 16 16 36v3q0 19 -12 33q-17 20 -37 20q-4 0 -8 -1q-27 -6 -31 -34
q-1 -6 -1 -11q0 -20 14 -40z" />
    <glyph glyph-name="ae" unicode="&#xe6;" horiz-adv-x="1800" 
d="M119 259q3 28 76 284q46 161 90 280q116 312 232 428q25 25 25 40q0 3 -1 6q-4 1 -9 1q-53 0 -129 -134q-70 -124 -145 -335q-143 -401 -143 -534q0 -22 4 -36zM941 960q13 54 26 86q51 118 195 178q6 3 72 26q54 20 63 26q-149 0 -278 -97q-97 -72 -97 -279q9 13 19 60z
M571 556q18 -2 33 -2q48 0 61 22q5 9 5 23q0 27 -20 76q1 -7 1 -15q0 -24 -8 -46q-18 -47 -72 -58zM598 690q-11 62 -21 99q-19 72 -38 72q-13 0 -25 -29q-12 -26 -44 -178q-3 -17 -3 -23v-2q1 -4 8 -4q4 0 9 1q20 4 39 4q22 0 43 -5q9 -3 31 -8l10 -3h1q3 0 3 3v2
q-1 5 -13 71zM970 120q-8 -13 -20 -24q-42 -42 -104 -43q-68 0 -122 51q-62 60 -86 175q-22 104 -97 106h-3q-72 0 -120 -96q-64 -126 -64 -127l1 1q-34 -59 -93 -90q-45 -23 -88 -23q-12 0 -24 2q-58 8 -87 53q-23 36 -23 88q0 23 4 48q13 83 39 189q35 139 57 216
q35 115 64 197q157 448 304 516q26 12 51 12q95 0 183 -168q62 -120 112 -289q20 178 92 266q74 91 258 152q61 20 154 20q35 0 74 -3q150 -9 229 -52q58 -32 87 -117q16 -47 16 -93t-16 -92q-35 -97 -93 -130q-35 -20 -85 -20q-32 0 -70 8q-52 12 -85 12q-28 0 -42 -9
q-34 -22 -34 -46q0 -16 16 -33q25 -26 163 -35q56 -4 82 -16q42 -18 44 -63v-8q0 -95 -90 -121q-29 -8 -90 -15q-64 -8 -90 -14q-49 -13 -49 -36v-3q4 -24 54 -32q8 -1 23 -1q16 0 38 1q35 1 58 1h19q93 -5 99 -56q3 -26 3 -50q0 -164 -151 -231q-106 -48 -297 -48
q-25 0 -51 1q-90 2 -150 69z" />
    <glyph glyph-name="ccedilla" unicode="&#xe7;" horiz-adv-x="1037" 
d="M583 460q122 31 215 83q-14 -61 -98 -82q-37 -9 -66 -9t-51 8zM134 841q0 124 57 242q59 123 159 192q32 22 80 36q31 10 51 10q18 0 27 -8q-13 -8 -65 -29q-47 -20 -72 -37q-130 -99 -237 -406zM583 -231q39 35 39 37q0 -77 -76 -77q2 9 37 40zM420 -57q0 -13 2 -23v-3
q0 -8 31 -9q53 -3 65 -5q63 -9 63 -49q0 -15 -10 -36q-14 -29 -32 -33q-2 -1 -5 -1q-14 0 -35 10q-61 26 -109 26q-13 0 -27 -3q-44 -8 -54 -30q-3 -6 -3 -13q0 -14 14 -33q40 -57 143 -95q65 -24 117 -24q40 0 73 14q95 37 97 176q2 10 2 21q0 54 -42 96q-43 45 -115 62
l2 4q13 26 21 48h2q123 13 213 104q79 80 109 193q13 52 13 96q0 50 -16 90q-32 81 -116 81h-4q-44 0 -114 -31q-79 -35 -117 -41q-20 -3 -38 -3q-64 0 -108 38q-49 43 -51 112v6q0 65 45 107q40 37 103 37q19 0 39 -3q37 -5 130 -40q83 -31 128 -32h4q84 0 114 92
q13 41 13 90q0 55 -17 120q-33 128 -114 217q-93 103 -216 115q-29 3 -57 3q-223 0 -359 -192q-134 -188 -134 -471v-13q2 -290 141 -484q96 -135 230 -176q-21 -74 -21 -115z" />
    <glyph glyph-name="egrave" unicode="&#xe8;" 
d="M774 742q56 -4 82 -16q42 -18 44 -63v-8q0 -95 -90 -121q-29 -8 -90 -15q-64 -8 -90 -14q-49 -13 -49 -36v-3q4 -24 54 -32q8 -1 23 -1q16 0 38 1q35 1 58 1h19q93 -5 99 -56q3 -26 3 -50q0 -164 -151 -231q-106 -48 -297 -48q-25 0 -51 1q-184 5 -245 279
q-31 137 -31 382v44q1 72 8 141q18 191 94 283q74 91 258 152q61 20 154 20q35 0 74 -3q150 -9 229 -52q58 -32 87 -117q16 -47 16 -93t-16 -92q-35 -97 -93 -130q-35 -20 -85 -20q-32 0 -70 8q-52 12 -85 12q-28 0 -42 -9q-34 -22 -34 -46q0 -16 16 -33q25 -26 163 -35z
M197 960q13 54 26 86q51 118 195 178q6 3 72 26q54 20 63 26q-149 0 -278 -97q-97 -72 -97 -279q9 13 19 60zM673 1400q-20 -14 -44 -14q-22 0 -46 11q-28 12 -114 106q-85 95 -95 125q-8 23 -8 43q0 41 33 69q21 18 45 18q34 0 72 -35q47 -35 122 -122q80 -92 80 -120v-3
q-8 -54 -45 -78z" />
    <glyph glyph-name="eacute" unicode="&#xe9;" 
d="M774 742q56 -4 82 -16q42 -18 44 -63v-8q0 -95 -90 -121q-29 -8 -90 -15q-64 -8 -90 -14q-49 -13 -49 -36v-3q4 -24 54 -32q8 -1 23 -1q16 0 38 1q35 1 58 1h19q93 -5 99 -56q3 -26 3 -50q0 -164 -151 -231q-106 -48 -297 -48q-25 0 -51 1q-184 5 -245 279
q-31 137 -31 382v44q1 72 8 141q18 191 94 283q74 91 258 152q61 20 154 20q35 0 74 -3q150 -9 229 -52q58 -32 87 -117q16 -47 16 -93t-16 -92q-35 -97 -93 -130q-35 -20 -85 -20q-32 0 -70 8q-52 12 -85 12q-28 0 -42 -9q-34 -22 -34 -46q0 -16 16 -33q25 -26 163 -35z
M197 960q13 54 26 86q51 118 195 178q6 3 72 26q54 20 63 26q-149 0 -278 -97q-97 -72 -97 -279q9 13 19 60zM393 1474v4q0 28 79 119q76 87 122 122q39 35 72 35q24 0 45 -18q33 -29 33 -70q0 -20 -7 -42q-10 -30 -96 -125q-86 -94 -114 -106q-24 -11 -45 -11q-24 0 -45 14
q-37 24 -44 78zM465 1485q3 1 132 128q33 33 37 53q-42 -3 -117 -100l-10 -12l-10 -10q-30 -35 -32 -59z" />
    <glyph glyph-name="ecircumflex" unicode="&#xea;" 
d="M774 742q56 -4 82 -16q42 -18 44 -63v-8q0 -95 -90 -121q-29 -8 -90 -15q-64 -8 -90 -14q-49 -13 -49 -36v-3q4 -24 54 -32q8 -1 23 -1q16 0 38 1q35 1 58 1h19q93 -5 99 -56q3 -26 3 -50q0 -164 -151 -231q-106 -48 -297 -48q-25 0 -51 1q-184 5 -245 279
q-31 137 -31 382v44q1 72 8 141q18 191 94 283q74 91 258 152q61 20 154 20q35 0 74 -3q150 -9 229 -52q58 -32 87 -117q16 -47 16 -93t-16 -92q-35 -97 -93 -130q-35 -20 -85 -20q-32 0 -70 8q-52 12 -85 12q-28 0 -42 -9q-34 -22 -34 -46q0 -16 16 -33q25 -26 163 -35z
M197 960q13 54 26 86q51 118 195 178q6 3 72 26q54 20 63 26q-149 0 -278 -97q-97 -72 -97 -279q9 13 19 60zM933 1410q1 -4 1 -8q0 -37 -41 -42q-6 -1 -12 -1q-42 0 -94 35q-20 16 -68 66q-47 50 -82 77q-100 -69 -178 -132q-54 -33 -87 -33q-26 0 -39 21q-8 14 -8 31
q0 40 47 97q7 8 127 142q80 89 139 90h3q63 0 138 -92q146 -181 154 -251zM487 1539q75 74 105 99q23 19 25 29q-5 2 -12 2q-38 0 -108 -88q-95 -119 -98 -119q25 16 88 77z" />
    <glyph glyph-name="edieresis" unicode="&#xeb;" 
d="M774 742q56 -4 82 -16q42 -18 44 -63v-8q0 -95 -90 -121q-29 -8 -90 -15q-64 -8 -90 -14q-49 -13 -49 -36v-3q4 -24 54 -32q8 -1 23 -1q16 0 38 1q35 1 58 1h19q93 -5 99 -56q3 -26 3 -50q0 -164 -151 -231q-106 -48 -297 -48q-25 0 -51 1q-184 5 -245 279
q-31 137 -31 382v44q1 72 8 141q18 191 94 283q74 91 258 152q61 20 154 20q35 0 74 -3q150 -9 229 -52q58 -32 87 -117q16 -47 16 -93t-16 -92q-35 -97 -93 -130q-35 -20 -85 -20q-32 0 -70 8q-52 12 -85 12q-28 0 -42 -9q-34 -22 -34 -46q0 -16 16 -33q25 -26 163 -35z
M197 960q13 54 26 86q51 118 195 178q6 3 72 26q54 20 63 26q-149 0 -278 -97q-97 -72 -97 -279q9 13 19 60zM530 1617q3 -18 3 -35q0 -45 -22 -89q-22 -43 -69 -62q-27 -11 -55 -11q-18 0 -35 4q-47 11 -71 48q-18 28 -18 65q0 19 4 39q12 62 66 97q41 28 90 28q12 0 25 -2
q68 -10 82 -82zM393 1606q10 11 11 11q-1 0 -2 8q-10 4 -20 4q-20 0 -37 -17q-16 -16 -16 -34q0 -11 5 -22q15 2 59 50zM914 1617q3 -18 3 -35q0 -45 -22 -89q-22 -43 -69 -62q-27 -11 -55 -11q-18 0 -35 4q-47 11 -71 48q-18 28 -18 65q0 19 4 39q12 62 66 97q41 28 90 28
q12 0 25 -2q68 -10 82 -82zM790 1616q14 7 15 7q-1 0 0 8q-7 7 -17 11q-19 7 -40 -3t-27 -27q-4 -10 -3 -22q14 -3 72 26z" />
    <glyph glyph-name="igrave" unicode="&#xec;" horiz-adv-x="934" 
d="M227 872q-44 6 -54 9q-59 13 -74 64q-19 63 -19 132v11q1 92 25 154q38 104 266 124q51 4 176 4q140 0 224 -42q86 -42 103 -187q3 -34 3 -64q0 -84 -52 -152q-33 -43 -76 -56q-16 -5 -72 -10q-39 -3 -58 -21q-26 -25 -36 -91q-5 -35 -5 -125q0 -16 1 -28q4 -150 27 -168
q11 -8 88 -13q33 -6 52 -9q55 -22 55 -98v-3q10 -193 -35 -229q-47 -29 -355 -33q-22 -1 -41 -1q-133 0 -171 24q-36 22 -46 84q-3 140 -3 157q0 35 13 62q15 31 82 32q72 2 88 19q17 37 17 148q0 42 -2 44q-9 227 -64 250q-22 7 -57 12zM185 1194q16 31 44 47q20 12 68 28
q45 15 53 21q-101 0 -150 -26q-30 -16 -45 -53q-7 -18 -7 -33q0 -18 10 -32q5 6 27 48zM213 328q-1 -5 -1 -9q0 -22 31 -22h5q33 2 62 16q57 28 81 77q14 29 14 62q0 29 -11 61q0 -1 -1 -24q-1 -25 -6 -45q-16 -66 -81 -92q-12 -5 -58 -5q-33 0 -35 -19zM551 1430
q-20 -14 -44 -14q-22 0 -46 11q-28 12 -114 106q-85 95 -95 125q-8 23 -8 43q0 41 33 69q21 18 45 18q34 0 72 -35q47 -35 122 -122q80 -92 80 -120v-3q-8 -54 -45 -78z" />
    <glyph glyph-name="iacute" unicode="&#xed;" horiz-adv-x="934" 
d="M227 872q-44 6 -54 9q-59 13 -74 64q-19 63 -19 132v11q1 92 25 154q38 104 266 124q51 4 176 4q140 0 224 -42q86 -42 103 -187q3 -34 3 -64q0 -84 -52 -152q-33 -43 -76 -56q-16 -5 -72 -10q-39 -3 -58 -21q-26 -25 -36 -91q-5 -35 -5 -125q0 -16 1 -28q4 -150 27 -168
q11 -8 88 -13q33 -6 52 -9q55 -22 55 -98v-3q10 -193 -35 -229q-47 -29 -355 -33q-22 -1 -41 -1q-133 0 -171 24q-36 22 -46 84q-3 140 -3 157q0 35 13 62q15 31 82 32q72 2 88 19q17 37 17 148q0 42 -2 44q-9 227 -64 250q-22 7 -57 12zM185 1194q16 31 44 47q20 12 68 28
q45 15 53 21q-101 0 -150 -26q-30 -16 -45 -53q-7 -18 -7 -33q0 -18 10 -32q5 6 27 48zM213 328q-1 -5 -1 -9q0 -22 31 -22h5q33 2 62 16q57 28 81 77q14 29 14 62q0 29 -11 61q0 -1 -1 -24q-1 -25 -6 -45q-16 -66 -81 -92q-12 -5 -58 -5q-33 0 -35 -19zM334 1500v4
q0 28 79 119q76 87 122 122q39 35 72 35q24 0 45 -18q33 -29 33 -70q0 -20 -7 -42q-10 -30 -96 -125q-86 -94 -114 -106q-24 -11 -45 -11q-24 0 -45 14q-37 24 -44 78zM406 1511q3 1 132 128q33 33 37 53q-42 -3 -117 -100l-10 -12l-10 -10q-30 -35 -32 -59z" />
    <glyph glyph-name="icircumflex" unicode="&#xee;" horiz-adv-x="934" 
d="M227 872q-44 6 -54 9q-59 13 -74 64q-19 63 -19 132v11q1 92 25 154q38 104 266 124q51 4 176 4q140 0 224 -42q86 -42 103 -187q3 -34 3 -64q0 -84 -52 -152q-33 -43 -76 -56q-16 -5 -72 -10q-39 -3 -58 -21q-26 -25 -36 -91q-5 -35 -5 -125q0 -16 1 -28q4 -150 27 -168
q11 -8 88 -13q33 -6 52 -9q55 -22 55 -98v-3q10 -193 -35 -229q-47 -29 -355 -33q-22 -1 -41 -1q-133 0 -171 24q-36 22 -46 84q-3 140 -3 157q0 35 13 62q15 31 82 32q72 2 88 19q17 37 17 148q0 42 -2 44q-9 227 -64 250q-22 7 -57 12zM185 1194q16 31 44 47q20 12 68 28
q45 15 53 21q-101 0 -150 -26q-30 -16 -45 -53q-7 -18 -7 -33q0 -18 10 -32q5 6 27 48zM213 328q-1 -5 -1 -9q0 -22 31 -22h5q33 2 62 16q57 28 81 77q14 29 14 62q0 29 -11 61q0 -1 -1 -24q-1 -25 -6 -45q-16 -66 -81 -92q-12 -5 -58 -5q-33 0 -35 -19zM782 1438q1 -4 1 -8
q0 -37 -41 -42q-6 -1 -12 -1q-42 0 -94 35q-20 16 -68 66q-47 50 -82 77q-100 -69 -178 -132q-54 -33 -87 -33q-26 0 -39 21q-8 14 -8 31q0 40 47 97q7 8 127 142q80 89 139 90h3q63 0 138 -92q146 -181 154 -251zM336 1567q75 74 105 99q23 19 25 29q-5 2 -12 2
q-38 0 -108 -88q-95 -119 -98 -119q25 16 88 77z" />
    <glyph glyph-name="idieresis" unicode="&#xef;" horiz-adv-x="934" 
d="M227 872q-44 6 -54 9q-59 13 -74 64q-19 63 -19 132v11q1 92 25 154q38 104 266 124q51 4 176 4q140 0 224 -42q86 -42 103 -187q3 -34 3 -64q0 -84 -52 -152q-33 -43 -76 -56q-16 -5 -72 -10q-39 -3 -58 -21q-26 -25 -36 -91q-5 -35 -5 -125q0 -16 1 -28q4 -150 27 -168
q11 -8 88 -13q33 -6 52 -9q55 -22 55 -98v-3q10 -193 -35 -229q-47 -29 -355 -33q-22 -1 -41 -1q-133 0 -171 24q-36 22 -46 84q-3 140 -3 157q0 35 13 62q15 31 82 32q72 2 88 19q17 37 17 148q0 42 -2 44q-9 227 -64 250q-22 7 -57 12zM185 1194q16 31 44 47q20 12 68 28
q45 15 53 21q-101 0 -150 -26q-30 -16 -45 -53q-7 -18 -7 -33q0 -18 10 -32q5 6 27 48zM213 328q-1 -5 -1 -9q0 -22 31 -22h5q33 2 62 16q57 28 81 77q14 29 14 62q0 29 -11 61q0 -1 -1 -24q-1 -25 -6 -45q-16 -66 -81 -92q-12 -5 -58 -5q-33 0 -35 -19zM418 1627
q3 -18 3 -35q0 -45 -22 -89q-22 -43 -69 -62q-27 -11 -55 -11q-18 0 -35 4q-47 11 -71 48q-18 28 -18 65q0 19 4 39q12 62 66 97q41 28 90 28q12 0 25 -2q68 -10 82 -82zM281 1616q10 11 11 11q-1 0 -2 8q-10 4 -20 4q-20 0 -37 -17q-16 -16 -16 -34q0 -11 5 -22q15 2 59 50
zM803 1627q3 -18 3 -35q0 -45 -22 -89q-22 -43 -69 -62q-27 -11 -55 -11q-18 0 -35 4q-47 11 -71 48q-18 28 -18 65q0 19 4 39q12 62 66 97q41 28 90 28q12 0 25 -2q68 -10 82 -82zM679 1626q13 7 14 7q-1 0 1 8q-8 7 -17 11q-19 7 -41 -3q-21 -10 -27 -27q-4 -10 -3 -22
q15 -3 73 26z" />
    <glyph glyph-name="eth" unicode="&#xf0;" horiz-adv-x="1201" 
d="M254 1174q13 56 25 79q24 45 54 59q47 23 52 27q-13 9 -31 9q-15 0 -33 -6q-44 -15 -62 -56q-24 -55 -24 -176q7 11 19 64zM735 476q87 57 87 143q-10 -3 -52 -59q-46 -61 -130 -99q-77 -34 -78 -36q95 0 173 51zM467 598q-5 -51 -13 -89q-1 -6 -2 -10q29 -6 59 -6
q42 0 87 12q73 20 119 62q40 37 40 75q0 7 -1 14q-11 52 -96 90q-86 39 -132 39q-52 0 -53 -49q-1 -31 -2 -60q5 0 8 -1q88 -13 88 -41v-2q-2 -29 -102 -34zM151 682q16 487 43 593q36 141 220 141q144 0 286 -70q56 -28 110 -67q178 -129 271 -321q74 -156 80 -309v-18
q0 -124 -75 -247q-74 -121 -204 -216q-126 -92 -266 -132q-90 -26 -168 -26q-50 0 -95 10q-100 23 -156 83q-57 62 -57 151v9q0 18 1 37q3 160 7 295q-24 0 -42 1q-86 2 -99 9q-34 16 -34 32q0 4 1 7q9 21 70 32q33 5 71 6h36z" />
    <glyph glyph-name="ntilde" unicode="&#xf1;" horiz-adv-x="1222" 
d="M349 40q-31 -20 -73 -20h-4q-43 2 -76 25q-35 25 -42 67q-14 96 -14 346q0 79 1 173q5 388 5 519v70q0 80 27 117q23 31 72 37q10 1 19 1q36 0 63 -15q50 -28 102 -114q137 -225 239 -558q35 -113 49 -113h1q11 6 40 144q15 70 20 346q5 237 33 277q51 72 145 72
q11 0 22 -1q114 -11 125 -122q10 -107 10 -241q0 -169 -16 -379q-37 -487 -151 -589q-56 -49 -137 -53h-12q-76 0 -129 46q-143 124 -209 275q-14 32 -27 69q-14 36 -15 38q-2 6 -4 6q-1 0 -2 -4q-1 -6 -2 -41q-6 -245 -17 -311q-7 -43 -43 -67zM864 1241q22 44 25 48
q7 9 26 22q20 13 27 22q-10 7 -16 8q-8 2 -15 2q-30 0 -51 -35q-14 -22 -14 -42q0 -18 12 -34q4 4 6 9zM722 537q18 -10 33 -10q44 0 60 84q20 61 20 118q0 21 -3 41q-5 -12 -14 -55q-10 -47 -18 -73q-29 -94 -78 -105zM253 1293q10 8 12 16q-11 3 -20 3q-31 0 -47 -33
q-17 -35 -17 -85q0 -33 7 -71q14 128 65 170zM428 1724q33 12 65 12q18 0 36 -4q55 -12 83 -61q34 -60 116 -61q49 0 98 56q42 49 83 49h7q39 -4 49 -46q2 -11 2 -23q0 -33 -18 -70q-62 -131 -228 -138q-26 -1 -46 -1q-47 0 -63 5q-45 14 -84 79q-17 29 -45 29h-7
q-30 -4 -58 -36q-19 -22 -54 -35q-21 -8 -36 -8q-7 0 -12 2q-27 7 -30 42v6q0 30 17 69q44 103 125 134z" />
    <glyph glyph-name="ograve" unicode="&#xf2;" horiz-adv-x="1273" 
d="M1136 1065q62 -146 67 -320v-24q0 -161 -51 -305q-58 -164 -170 -265q-137 -124 -333 -131h-20q-192 0 -309 127q-200 219 -241 512q-9 64 -9 125q0 235 136 417q112 150 360 183q54 7 104 7q173 0 287 -85q114 -86 179 -241zM465 629q-39 -65 -39 -125q0 -81 72 -152
q51 -51 104 -51q10 0 21 2q64 11 101 89q34 71 34 137q0 43 -14 83q-42 121 -131 122q-86 0 -148 -105zM773 313q51 74 51 172q-2 -2 -36 -79q-35 -77 -100 -124q-62 -44 -64 -52q92 0 149 83zM175 940q19 67 33 100q58 137 214 216q23 12 91 32q62 18 75 27
q-200 0 -321 -124t-121 -325q14 20 29 74zM709 1420q-20 -14 -44 -14q-22 0 -46 11q-28 12 -114 106q-85 95 -95 125q-8 23 -8 43q0 41 33 69q21 18 45 18q34 0 72 -35q47 -35 122 -122q80 -92 80 -120v-3q-8 -54 -45 -78z" />
    <glyph glyph-name="oacute" unicode="&#xf3;" horiz-adv-x="1273" 
d="M1136 1065q62 -146 67 -320v-24q0 -161 -51 -305q-58 -164 -170 -265q-137 -124 -333 -131h-20q-192 0 -309 127q-200 219 -241 512q-9 64 -9 125q0 235 136 417q112 150 360 183q54 7 104 7q173 0 287 -85q114 -86 179 -241zM465 629q-39 -65 -39 -125q0 -81 72 -152
q51 -51 104 -51q10 0 21 2q64 11 101 89q34 71 34 137q0 43 -14 83q-42 121 -131 122q-86 0 -148 -105zM773 313q51 74 51 172q-2 -2 -36 -79q-35 -77 -100 -124q-62 -44 -64 -52q92 0 149 83zM175 940q19 67 33 100q58 137 214 216q23 12 91 32q62 18 75 27
q-200 0 -321 -124t-121 -325q14 20 29 74zM520 1495v4q0 28 79 119q76 87 122 122q39 35 72 35q24 0 45 -18q33 -29 33 -70q0 -20 -7 -42q-10 -30 -96 -125q-86 -94 -114 -106q-24 -11 -45 -11q-24 0 -45 14q-37 24 -44 78zM592 1506q3 1 132 128q33 33 37 53
q-42 -3 -117 -100l-10 -12l-10 -10q-30 -35 -32 -59z" />
    <glyph glyph-name="ocircumflex" unicode="&#xf4;" horiz-adv-x="1273" 
d="M1136 1065q62 -146 67 -320v-24q0 -161 -51 -305q-58 -164 -170 -265q-137 -124 -333 -131h-20q-192 0 -309 127q-200 219 -241 512q-9 64 -9 125q0 235 136 417q112 150 360 183q54 7 104 7q173 0 287 -85q114 -86 179 -241zM465 629q-39 -65 -39 -125q0 -81 72 -152
q51 -51 104 -51q10 0 21 2q64 11 101 89q34 71 34 137q0 43 -14 83q-42 121 -131 122q-86 0 -148 -105zM773 313q51 74 51 172q-2 -2 -36 -79q-35 -77 -100 -124q-62 -44 -64 -52q92 0 149 83zM175 940q19 67 33 100q58 137 214 216q23 12 91 32q62 18 75 27
q-200 0 -321 -124t-121 -325q14 20 29 74zM940 1438q1 -4 1 -8q0 -37 -41 -42q-6 -1 -12 -1q-42 0 -94 35q-20 16 -68 66q-47 50 -82 77q-100 -69 -178 -132q-54 -33 -87 -33q-26 0 -39 21q-8 14 -8 31q0 40 47 97q7 8 127 142q80 89 139 90h3q63 0 138 -92
q146 -181 154 -251zM494 1567q75 74 105 99q23 19 25 29q-5 2 -12 2q-38 0 -108 -88q-95 -119 -98 -119q25 16 88 77z" />
    <glyph glyph-name="otilde" unicode="&#xf5;" horiz-adv-x="1273" 
d="M1136 1065q62 -146 67 -320v-24q0 -161 -51 -305q-58 -164 -170 -265q-137 -124 -333 -131h-20q-192 0 -309 127q-200 219 -241 512q-9 64 -9 125q0 235 136 417q112 150 360 183q54 7 104 7q173 0 287 -85q114 -86 179 -241zM465 629q-39 -65 -39 -125q0 -81 72 -152
q51 -51 104 -51q10 0 21 2q64 11 101 89q34 71 34 137q0 43 -14 83q-42 121 -131 122q-86 0 -148 -105zM773 313q51 74 51 172q-2 -2 -36 -79q-35 -77 -100 -124q-62 -44 -64 -52q92 0 149 83zM175 940q19 67 33 100q58 137 214 216q23 12 91 32q62 18 75 27
q-200 0 -321 -124t-121 -325q14 20 29 74zM438 1735q33 12 65 12q18 0 36 -4q55 -12 83 -61q34 -60 116 -61q49 0 98 56q42 49 83 49h7q39 -4 49 -46q2 -11 2 -23q0 -33 -18 -70q-62 -131 -228 -138q-26 -1 -46 -1q-47 0 -63 5q-45 14 -84 79q-17 29 -45 29h-7
q-30 -4 -58 -36q-19 -22 -54 -35q-21 -8 -36 -8q-7 0 -12 2q-27 7 -30 42v6q0 30 17 69q44 103 125 134z" />
    <glyph glyph-name="odieresis" unicode="&#xf6;" horiz-adv-x="1273" 
d="M1136 1065q62 -146 67 -320v-24q0 -161 -51 -305q-58 -164 -170 -265q-137 -124 -333 -131h-20q-192 0 -309 127q-200 219 -241 512q-9 64 -9 125q0 235 136 417q112 150 360 183q54 7 104 7q173 0 287 -85q114 -86 179 -241zM465 629q-39 -65 -39 -125q0 -81 72 -152
q51 -51 104 -51q10 0 21 2q64 11 101 89q34 71 34 137q0 43 -14 83q-42 121 -131 122q-86 0 -148 -105zM773 313q51 74 51 172q-2 -2 -36 -79q-35 -77 -100 -124q-62 -44 -64 -52q92 0 149 83zM175 940q19 67 33 100q58 137 214 216q23 12 91 32q62 18 75 27
q-200 0 -321 -124t-121 -325q14 20 29 74zM576 1627q3 -18 3 -35q0 -45 -22 -89q-22 -43 -69 -62q-27 -11 -55 -11q-18 0 -35 4q-47 11 -71 48q-18 28 -18 65q0 19 4 39q12 62 66 97q41 28 90 28q12 0 25 -2q68 -10 82 -82zM439 1616q10 11 11 11q-1 0 -2 8q-10 4 -20 4
q-20 0 -37 -17q-16 -16 -16 -34q0 -11 5 -22q15 2 59 50zM961 1627q3 -18 3 -35q0 -45 -22 -89q-22 -43 -69 -62q-27 -11 -55 -11q-18 0 -35 4q-47 11 -71 48q-18 28 -18 65q0 19 4 39q12 62 66 97q41 28 90 28q12 0 25 -2q68 -10 82 -82zM837 1626q13 7 14 7q-1 0 1 8
q-8 7 -17 11q-19 7 -41 -3q-21 -10 -27 -27q-4 -10 -3 -22q15 -3 73 26z" />
    <glyph glyph-name="divide" unicode="&#xf7;" horiz-adv-x="980" 
d="M623 1074q2 -11 2 -22q0 -52 -53 -83q-43 -25 -94 -25q-14 0 -29 2q-48 7 -81 45q-32 36 -37 82q-1 8 -1 15q0 38 23 68q30 39 93 48q12 2 23 2q50 0 91 -32q50 -38 63 -100zM609 405q3 -18 3 -35q0 -45 -22 -89q-22 -43 -69 -62q-27 -11 -55 -11q-18 0 -35 4
q-47 11 -71 48q-18 28 -18 65q0 19 4 39q12 62 66 97q41 28 90 28q12 0 25 -2q68 -10 82 -82zM398 1090q6 -2 11 -2q13 0 25 9q17 13 19 30q-13 10 -25 10q-9 0 -18 -6q-15 -10 -15 -26q0 -7 3 -15zM472 394q10 11 11 11q-1 0 -2 8q-10 4 -20 4q-20 0 -37 -17
q-16 -16 -16 -34q0 -11 5 -22q15 2 59 50zM196 612q-121 24 -141 73q-5 11 -5 23q4 63 131 113q230 23 365 18q238 -5 285 -31q76 -39 93 -79q4 -9 5 -19q1 -43 -72 -69q-16 -6 -35 -11q-83 -21 -352 -30q-173 -8 -274 12z" />
    <glyph glyph-name="oslash" unicode="&#xf8;" horiz-adv-x="1273" 
d="M773 313q51 74 51 172q-2 -2 -36 -79q-35 -77 -100 -124q-62 -44 -64 -52q92 0 149 83zM175 940q19 67 33 100q58 137 214 216q23 12 91 32q62 18 75 27q-200 0 -321 -124t-121 -325q14 20 29 74zM534 322q34 -21 68 -21q10 0 21 2q64 11 101 89q34 71 34 137
q0 43 -14 83q-7 19 -15 35q-43 -72 -91 -152q-56 -94 -104 -173zM472 381q62 103 136 224q35 57 67 110q-27 19 -62 19q-86 0 -148 -105q-39 -65 -39 -125q0 -65 46 -123zM1059 1202q45 -60 77 -137q62 -146 67 -320v-24q0 -161 -51 -305q-58 -164 -170 -265
q-137 -124 -333 -131h-20q-138 0 -238 66q-78 -127 -105 -166q-33 -38 -58 -47q-6 -2 -9 1q-17 14 -2 72q43 77 111 193l-8 8q-200 219 -241 512q-9 64 -9 125q0 235 136 417q112 150 360 183q54 7 104 7q173 0 287 -85q28 -21 53 -47q62 97 73 109q35 33 56 40q4 1 8 0
q13 -7 -1 -48q-7 -15 -16 -32q-12 -25 -71 -126z" />
    <glyph glyph-name="ugrave" unicode="&#xf9;" horiz-adv-x="1176" 
d="M774 81q-81 -31 -179 -31q-31 0 -64 3q-129 12 -236 69q-111 58 -155 143q-62 121 -73 479q-2 58 -2 110q0 269 48 373q52 115 175 144q27 6 50 6q91 0 133 -96q13 -29 21 -76q9 -56 9 -162q0 -78 -5 -183q-3 -71 -3 -129q0 -135 16 -207t67 -72h6q54 4 85 74
q44 100 63 332q21 250 57 356q48 143 152 143q46 -1 85 -36q42 -38 63 -105q24 -74 24 -192q0 -127 -28 -307q-51 -329 -135 -488q-54 -102 -174 -148zM835 1076q15 66 21 84q18 54 51 85q18 17 18 32q0 4 -1 7q-7 2 -13 2q-49 0 -77 -112q-21 -79 -21 -136q0 -18 2 -34
q6 13 20 72zM163 1115q13 53 38 89q20 31 62 59q41 26 48 37q-13 6 -27 6q-30 0 -64 -27q-56 -45 -69 -128q-1 -6 -4 -51l-1 -41q3 4 17 56zM750 517q39 99 39 225l-27 -106q-44 -157 -132 -214q-32 -21 -33 -21l-2 -16q103 0 155 132zM735 1416q-20 -14 -44 -14
q-22 0 -46 11q-28 12 -114 106q-85 95 -95 125q-8 23 -8 43q0 41 33 69q21 18 45 18q34 0 72 -35q47 -35 122 -122q80 -92 80 -120v-3q-8 -54 -45 -78z" />
    <glyph glyph-name="uacute" unicode="&#xfa;" horiz-adv-x="1176" 
d="M774 81q-81 -31 -179 -31q-31 0 -64 3q-129 12 -236 69q-111 58 -155 143q-62 121 -73 479q-2 58 -2 110q0 269 48 373q52 115 175 144q27 6 50 6q91 0 133 -96q13 -29 21 -76q9 -56 9 -162q0 -78 -5 -183q-3 -71 -3 -129q0 -135 16 -207t67 -72h6q54 4 85 74
q44 100 63 332q21 250 57 356q48 143 152 143q46 -1 85 -36q42 -38 63 -105q24 -74 24 -192q0 -127 -28 -307q-51 -329 -135 -488q-54 -102 -174 -148zM835 1076q15 66 21 84q18 54 51 85q18 17 18 32q0 4 -1 7q-7 2 -13 2q-49 0 -77 -112q-21 -79 -21 -136q0 -18 2 -34
q6 13 20 72zM163 1115q13 53 38 89q20 31 62 59q41 26 48 37q-13 6 -27 6q-30 0 -64 -27q-56 -45 -69 -128q-1 -6 -4 -51l-1 -41q3 4 17 56zM750 517q39 99 39 225l-27 -106q-44 -157 -132 -214q-32 -21 -33 -21l-2 -16q103 0 155 132zM446 1497v4q0 28 79 119
q76 87 122 122q39 35 72 35q24 0 45 -18q33 -29 33 -70q0 -20 -7 -42q-10 -30 -96 -125q-86 -94 -114 -106q-24 -11 -45 -11q-24 0 -45 14q-37 24 -44 78zM518 1508q3 1 132 128q33 33 37 53q-42 -3 -117 -100l-10 -12l-10 -10q-30 -35 -32 -59z" />
    <glyph glyph-name="ucircumflex" unicode="&#xfb;" horiz-adv-x="1176" 
d="M774 81q-81 -31 -179 -31q-31 0 -64 3q-129 12 -236 69q-111 58 -155 143q-62 121 -73 479q-2 58 -2 110q0 269 48 373q52 115 175 144q27 6 50 6q91 0 133 -96q13 -29 21 -76q9 -56 9 -162q0 -78 -5 -183q-3 -71 -3 -129q0 -135 16 -207t67 -72h6q54 4 85 74
q44 100 63 332q21 250 57 356q48 143 152 143q46 -1 85 -36q42 -38 63 -105q24 -74 24 -192q0 -127 -28 -307q-51 -329 -135 -488q-54 -102 -174 -148zM835 1076q15 66 21 84q18 54 51 85q18 17 18 32q0 4 -1 7q-7 2 -13 2q-49 0 -77 -112q-21 -79 -21 -136q0 -18 2 -34
q6 13 20 72zM163 1115q13 53 38 89q20 31 62 59q41 26 48 37q-13 6 -27 6q-30 0 -64 -27q-56 -45 -69 -128q-1 -6 -4 -51l-1 -41q3 4 17 56zM750 517q39 99 39 225l-27 -106q-44 -157 -132 -214q-32 -21 -33 -21l-2 -16q103 0 155 132zM939 1438q1 -4 1 -8q0 -37 -41 -42
q-6 -1 -12 -1q-42 0 -94 35q-20 16 -68 66q-47 50 -82 77q-100 -69 -178 -132q-54 -33 -87 -33q-26 0 -39 21q-8 14 -8 31q0 40 47 97q7 8 127 142q80 89 139 90h3q63 0 138 -92q146 -181 154 -251zM493 1567q75 74 105 99q23 19 25 29q-5 2 -12 2q-38 0 -108 -88
q-95 -119 -98 -119q25 16 88 77z" />
    <glyph glyph-name="udieresis" unicode="&#xfc;" horiz-adv-x="1176" 
d="M774 81q-81 -31 -179 -31q-31 0 -64 3q-129 12 -236 69q-111 58 -155 143q-62 121 -73 479q-2 58 -2 110q0 269 48 373q52 115 175 144q27 6 50 6q91 0 133 -96q13 -29 21 -76q9 -56 9 -162q0 -78 -5 -183q-3 -71 -3 -129q0 -135 16 -207t67 -72h6q54 4 85 74
q44 100 63 332q21 250 57 356q48 143 152 143q46 -1 85 -36q42 -38 63 -105q24 -74 24 -192q0 -127 -28 -307q-51 -329 -135 -488q-54 -102 -174 -148zM835 1076q15 66 21 84q18 54 51 85q18 17 18 32q0 4 -1 7q-7 2 -13 2q-49 0 -77 -112q-21 -79 -21 -136q0 -18 2 -34
q6 13 20 72zM163 1115q13 53 38 89q20 31 62 59q41 26 48 37q-13 6 -27 6q-30 0 -64 -27q-56 -45 -69 -128q-1 -6 -4 -51l-1 -41q3 4 17 56zM750 517q39 99 39 225l-27 -106q-44 -157 -132 -214q-32 -21 -33 -21l-2 -16q103 0 155 132zM572 1627q3 -18 3 -35q0 -45 -22 -89
q-22 -43 -69 -62q-27 -11 -55 -11q-18 0 -35 4q-47 11 -71 48q-18 28 -18 65q0 19 4 39q12 62 66 97q41 28 90 28q12 0 25 -2q68 -10 82 -82zM435 1616q10 11 11 11q-1 0 -2 8q-10 4 -20 4q-20 0 -37 -17q-16 -16 -16 -34q0 -11 5 -22q15 2 59 50zM957 1627q3 -18 3 -35
q0 -45 -22 -89q-22 -43 -69 -62q-27 -11 -55 -11q-18 0 -35 4q-47 11 -71 48q-18 28 -18 65q0 19 4 39q12 62 66 97q41 28 90 28q12 0 25 -2q68 -10 82 -82zM833 1626q13 7 14 7q-1 0 1 8q-8 7 -17 11q-19 7 -41 -3q-21 -10 -27 -27q-4 -10 -3 -22q15 -3 73 26z" />
    <glyph glyph-name="yacute" unicode="&#xfd;" horiz-adv-x="1244" 
d="M733 1087q37 105 66 167q91 198 196 201h5q67 0 121 -24q68 -31 80 -89q3 -14 3 -31q0 -162 -276 -520q-128 -166 -128 -285q1 -382 2 -379q-13 -63 -57 -97q-39 -29 -92 -30h-4q-48 0 -89 24q-44 26 -61 68q-13 30 -13 133q0 30 1 66q2 54 2 96q0 92 -9 128
q-30 131 -54 179q-22 44 -108 150q-161 198 -168 209q-110 150 -110 223v5q5 74 76 111q42 22 90 22q32 0 67 -10q141 -39 231 -181q60 -96 115 -278q18 -58 28 -58q9 1 34 59q11 26 52 141zM157 1305q31 26 35 38q-86 0 -86 -41q0 -11 7 -26q13 4 44 29zM656 849
q12 -9 24 -9q40 0 85 98q18 40 39 101l23 68q67 172 121 225q48 47 52 47v-1q-12 9 -25 9q-56 0 -127 -157q-27 -59 -61 -153q-35 -96 -39 -104q-12 -26 -55 -72q-37 -38 -37 -51v-1zM505 1475v4q0 28 79 119q76 87 122 122q39 35 72 35q24 0 45 -18q33 -29 33 -70
q0 -20 -7 -42q-10 -30 -96 -125q-86 -94 -114 -106q-24 -11 -45 -11q-24 0 -45 14q-37 24 -44 78zM577 1486q3 1 132 128q33 33 37 53q-42 -3 -117 -100l-10 -12l-10 -10q-30 -35 -32 -59z" />
    <glyph glyph-name="thorn" unicode="&#xfe;" horiz-adv-x="1162" 
d="M490 554q29 -5 56 -5q81 0 143 45q30 22 30 45q0 4 -1 9q-8 31 -72 53q-65 23 -99 23q-38 0 -39 -29q-3 -86 -16 -135q-1 -4 -2 -6zM201 1311q41 42 98 51q13 2 26 2q42 0 81 -20q53 -28 81 -85q11 -63 15 -159q92 -8 174 -41q42 -16 82 -39q134 -78 204 -192
q55 -93 60 -185v-12q0 -142 -187 -261q-171 -109 -344 -109q-14 0 -29 1q-16 -135 -29 -159q-47 -98 -101 -103h-5q-55 0 -89 102q-28 85 -69 532q-29 329 -29 472q0 56 4 84q12 75 57 121zM209 1187q2 1 41 49q40 49 44 49v-1q-37 0 -63 -29q-22 -25 -22 -68zM632 492
q45 0 94 36q38 28 38 54q0 9 -5 19q-10 -7 -59 -56q-21 -21 -42 -33q-18 -10 -26 -20z" />
    <glyph glyph-name="ydieresis" unicode="&#xff;" horiz-adv-x="1244" 
d="M733 1047q37 105 66 167q78 167 183 170h5q67 0 121 -24q68 -31 80 -89q3 -14 3 -31q13 -131 -263 -489q-128 -166 -128 -285q1 -342 2 -339q-13 -63 -57 -97q-39 -29 -92 -30h-4q-48 0 -89 24q-44 26 -61 68q-13 30 -13 133q0 30 1 66q2 54 2 96q0 52 -9 88
q-30 131 -54 179q-22 44 -108 150q-161 198 -168 209q-110 150 -110 223v5q5 74 76 111q42 22 90 22q32 0 67 -10q141 -39 231 -181q60 -96 115 -278q18 -58 28 -58q9 1 34 59q11 26 52 141zM157 1265q31 26 35 38q-86 0 -86 -41q0 -11 7 -26q13 4 44 29zM656 809
q12 -9 24 -9q40 0 85 98q18 40 39 101l23 68q67 172 108 194q48 47 52 47v-1q-12 9 -25 9q-56 0 -114 -126q-27 -59 -61 -153q-35 -96 -39 -104q-12 -26 -55 -72q-37 -38 -37 -51v-1zM542 1607q3 -18 3 -35q0 -45 -22 -89q-22 -43 -69 -62q-27 -11 -55 -11q-18 0 -35 4
q-47 11 -71 48q-18 28 -18 65q0 19 4 39q12 62 66 97q41 28 90 28q12 0 25 -2q68 -10 82 -82zM405 1596q10 11 11 11q-1 0 -2 8q-10 4 -20 4q-20 0 -37 -17q-16 -16 -16 -34q0 -11 5 -22q15 2 59 50zM927 1607q3 -18 3 -35q0 -45 -22 -89q-22 -43 -69 -62q-27 -11 -55 -11
q-18 0 -35 4q-47 11 -71 48q-18 28 -18 65q0 19 4 39q12 62 66 97q41 28 90 28q12 0 25 -2q68 -10 82 -82zM803 1606q13 7 14 7q-1 0 1 8q-8 7 -18 11q-18 7 -40 -3q-21 -10 -27 -27q-4 -10 -3 -22q15 -3 73 26z" />
    <glyph glyph-name="dotlessi" unicode="&#x131;" horiz-adv-x="934" 
d="M227 872q-44 6 -54 9q-59 13 -74 64q-19 63 -19 132v11q1 92 25 154q38 104 266 124q51 4 176 4q140 0 224 -42q86 -42 103 -187q3 -34 3 -64q0 -84 -52 -152q-33 -43 -76 -56q-16 -5 -72 -10q-39 -3 -58 -21q-26 -25 -36 -91q-5 -35 -5 -125q0 -16 1 -28q4 -150 27 -168
q11 -8 88 -13q33 -6 52 -9q55 -22 55 -98v-3q10 -193 -35 -229q-47 -29 -355 -33q-22 -1 -41 -1q-133 0 -171 24q-36 22 -46 84q-3 140 -3 157q0 35 13 62q15 31 82 32q72 2 88 19q17 37 17 148q0 42 -2 44q-9 227 -64 250q-22 7 -57 12zM185 1194q16 31 44 47q20 12 68 28
q45 15 53 21q-101 0 -150 -26q-30 -16 -45 -53q-7 -18 -7 -33q0 -18 10 -32q5 6 27 48zM213 328q-1 -5 -1 -9q0 -22 31 -22h5q33 2 62 16q57 28 81 77q14 29 14 62q0 29 -11 61q0 -1 -1 -24q-1 -25 -6 -45q-16 -66 -81 -92q-12 -5 -58 -5q-33 0 -35 -19z" />
    <glyph glyph-name="circumflex" unicode="&#x2c6;" horiz-adv-x="889" 
d="M748 1068q1 -4 1 -8q0 -37 -41 -42q-6 -1 -12 -1q-42 0 -94 35q-20 16 -68 66q-47 50 -82 77q-100 -69 -178 -132q-54 -33 -87 -33q-26 0 -39 21q-8 14 -8 31q0 40 47 97q7 8 127 142q80 89 139 90h3q63 0 138 -92q146 -181 154 -251zM302 1197q75 74 105 99q23 19 25 29
q-5 2 -12 2q-38 0 -108 -88q-95 -119 -98 -119q25 16 88 77z" />
    <glyph glyph-name="caron" unicode="&#x2c7;" horiz-adv-x="889" 
d="M594 1110q-75 -93 -138 -93h-3q-59 1 -139 90q-120 134 -127 142q-47 58 -47 98q0 16 8 30q13 21 39 21q33 0 87 -33q78 -62 178 -132q35 28 82 78q48 49 68 66q52 34 94 34q6 0 12 -1q41 -5 41 -41q0 -4 -1 -8q-8 -71 -154 -251z" />
    <glyph glyph-name="uni02C9" unicode="&#x2c9;" horiz-adv-x="832" 
d="M174 1103q-34 42 -34 85q0 9 1 17q9 55 70 82q35 16 200 16q165 -1 203 -17q78 -34 78 -106v-6q-2 -80 -108 -91q-66 -12 -176 -12q-23 0 -49 1q-164 2 -185 31z" />
    <glyph glyph-name="breve" unicode="&#x2d8;" horiz-adv-x="752" 
d="M91 1240v11q0 33 19 43q7 4 16 4q20 0 49 -21q69 -91 183 -95h8q115 0 212 95q28 21 48 21q9 0 16 -4q20 -10 20 -46v-8q-9 -100 -103 -160q-85 -54 -200 -55h-3q-113 0 -188 53q-78 55 -78 147q0 7 1 15z" />
    <glyph glyph-name="dotaccent" unicode="&#x2d9;" horiz-adv-x="470" 
d="M367 1287q3 -18 3 -35q0 -45 -22 -89q-22 -43 -69 -62q-27 -11 -55 -11q-18 0 -35 4q-47 11 -71 48q-18 28 -18 65q0 19 4 39q12 62 66 97q41 28 90 28q12 0 25 -2q68 -10 82 -82zM230 1276q10 11 11 11q-1 0 -2 8q-10 4 -20 4q-20 0 -37 -17q-16 -16 -16 -34
q0 -11 5 -22q15 2 59 50z" />
    <glyph glyph-name="ring" unicode="&#x2da;" horiz-adv-x="605" 
d="M183 1353q42 54 105 54q19 0 40 -5q89 -21 124 -114q13 -37 13 -80q0 -21 -3 -44q-11 -73 -49 -107q-58 -51 -122 -51h-11q-75 4 -118 78q-22 39 -22 103q0 16 1 34q8 88 42 132zM269 1171q15 -20 31 -20q13 0 28 14q15 16 16 36v3q0 19 -12 33q-17 20 -37 20q-4 0 -8 -1
q-27 -6 -31 -34q-1 -6 -1 -11q0 -20 14 -40z" />
    <glyph glyph-name="ogonek" unicode="&#x2db;" horiz-adv-x="583" 
d="M463 -302q-51 -47 -144 -47q-76 0 -124 44q-53 48 -53 126q0 64 51 150q29 49 69 87h187q-77 -74 -102 -114q-34 -49 -34 -80q0 -13 6 -23q14 -24 43 -24q8 0 16 1q26 5 85 42v-162z" />
    <glyph glyph-name="tilde" unicode="&#x2dc;" horiz-adv-x="961" 
d="M282 1355q33 12 65 12q18 0 36 -4q55 -12 83 -61q34 -60 116 -61q49 0 98 56q42 49 83 49h7q39 -4 49 -46q2 -11 2 -23q0 -33 -18 -70q-62 -131 -228 -138q-26 -1 -46 -1q-47 0 -63 5q-45 14 -84 79q-17 29 -45 29h-7q-30 -4 -58 -36q-19 -22 -54 -35q-21 -8 -36 -8
q-7 0 -12 2q-27 7 -30 42v6q0 30 17 69q44 103 125 134z" />
    <glyph glyph-name="hungarumlaut" unicode="&#x2dd;" horiz-adv-x="1024" 
d="M-36 1145v4q0 28 79 119q76 87 122 122q39 35 72 35q24 0 45 -18q33 -29 33 -70q0 -20 -7 -42q-10 -30 -96 -125q-86 -94 -114 -106q-24 -11 -45 -11q-24 0 -45 14q-37 24 -44 78zM36 1156q3 1 132 128q33 33 37 53q-42 -3 -117 -100l-10 -12l-10 -10q-30 -35 -32 -59z
M315 1145v4q0 28 79 119q76 87 122 122q39 35 72 35q24 0 45 -18q33 -29 33 -70q0 -20 -7 -42q-10 -30 -96 -125q-86 -94 -114 -106q-24 -11 -45 -11q-24 0 -45 14q-37 24 -44 78zM387 1156q3 1 132 128q33 33 37 53q-42 -3 -117 -100l-10 -12l-10 -10q-30 -35 -32 -59z" />
    <glyph glyph-name="endash" unicode="&#x2013;" horiz-adv-x="1197" 
d="M100 689h997v-229h-997v229z" />
    <glyph glyph-name="emdash" unicode="&#x2014;" horiz-adv-x="1597" 
d="M100 689h1397v-229h-1397v229z" />
    <glyph glyph-name="quoteleft" unicode="&#x2018;" horiz-adv-x="456" 
d="M249 1047q-21 -7 -40 -7q-54 0 -92 55q-17 24 -17 59q0 37 18 86q30 81 79 133q48 70 106 47q39 -25 23 -58q-48 -32 -49 -48q-1 -8 -1 -15q0 -42 26 -51q40 -15 49 -31q5 -9 5 -24q0 -16 -6 -38q-24 -83 -101 -108zM281 1165q-4 1 -7 1q-13 0 -27 -13q-18 -16 -18 -31
v-3q10 -4 18 -4q14 0 25 9q12 10 12 25q0 7 -3 16z" />
    <glyph glyph-name="quoteright" unicode="&#x2019;" horiz-adv-x="456" 
d="M207 1419q21 7 40 7q54 0 92 -55q17 -24 17 -59q0 -37 -18 -86q-30 -81 -79 -133q-48 -70 -106 -47q-39 25 -23 58q48 32 49 48q1 8 1 15q0 42 -26 51q-40 15 -49 31q-5 9 -5 24q0 16 6 38q24 83 101 108zM175 1301q4 -1 7 -1q13 0 27 13q18 16 18 31v3q-10 4 -18 4
q-14 0 -25 -9q-12 -10 -12 -25q0 -7 3 -16z" />
    <glyph glyph-name="quotesinglbase" unicode="&#x201a;" horiz-adv-x="456" 
d="M207 186q21 7 40 7q54 0 92 -55q17 -24 17 -59q0 -37 -18 -86q-30 -81 -79 -133q-48 -70 -106 -47q-39 25 -23 58q48 32 49 48q1 8 1 15q0 42 -26 51q-40 15 -49 31q-5 9 -5 24q0 16 6 38q24 83 101 108zM175 68q4 -1 7 -1q13 0 27 13q18 16 18 31v3q-10 4 -18 4
q-14 0 -25 -9q-12 -10 -12 -25q0 -7 3 -16z" />
    <glyph glyph-name="quotedblleft" unicode="&#x201c;" horiz-adv-x="814" 
d="M249 1047q-21 -7 -40 -7q-54 0 -92 55q-17 24 -17 59q0 37 18 86q30 81 79 133q48 70 106 47q39 -25 23 -58q-48 -32 -49 -48q-1 -8 -1 -15q0 -42 26 -51q40 -15 49 -31q5 -9 5 -24q0 -16 -6 -38q-24 -83 -101 -108zM281 1165q-4 1 -7 1q-13 0 -27 -13q-18 -16 -18 -31
v-3q10 -4 18 -4q14 0 25 9q12 10 12 25q0 7 -3 16zM607 1047q-21 -7 -40 -7q-54 0 -92 55q-17 24 -17 59q0 37 18 86q30 81 79 133q48 70 106 47q39 -25 23 -58q-48 -32 -49 -48q-1 -8 -1 -15q0 -42 26 -51q40 -15 49 -31q5 -9 5 -24q0 -16 -6 -38q-24 -83 -101 -108z
M639 1165q-4 1 -7 1q-13 0 -27 -13q-18 -16 -18 -31v-3q10 -4 18 -4q14 0 25 9q12 10 12 25q0 7 -3 16z" />
    <glyph glyph-name="quotedblright" unicode="&#x201d;" horiz-adv-x="814" 
d="M207 1419q21 7 40 7q54 0 92 -55q17 -24 17 -59q0 -37 -18 -86q-30 -81 -79 -133q-48 -70 -106 -47q-39 25 -23 58q48 32 49 48q1 8 1 15q0 42 -26 51q-40 15 -49 31q-5 9 -5 24q0 16 6 38q24 83 101 108zM175 1301q4 -1 7 -1q13 0 27 13q18 16 18 31v3q-10 4 -18 4
q-14 0 -25 -9q-12 -10 -12 -25q0 -7 3 -16zM565 1419q21 7 40 7q54 0 92 -55q17 -24 17 -59q0 -37 -18 -86q-30 -81 -79 -133q-48 -70 -106 -47q-39 25 -23 58q48 32 49 48q1 8 1 15q0 42 -26 51q-40 15 -49 31q-5 9 -5 24q0 16 6 38q24 83 101 108zM533 1301q4 -1 7 -1
q13 0 27 13q18 16 18 31v3q-10 4 -18 4q-14 0 -25 -9q-12 -10 -12 -25q0 -7 3 -16z" />
    <glyph glyph-name="quotedblbase" unicode="&#x201e;" horiz-adv-x="814" 
d="M207 186q21 7 40 7q54 0 92 -55q17 -24 17 -59q0 -37 -18 -86q-30 -81 -79 -133q-48 -70 -106 -47q-39 25 -23 58q48 32 49 48q1 8 1 15q0 42 -26 51q-40 15 -49 31q-5 9 -5 24q0 16 6 38q24 83 101 108zM175 68q4 -1 7 -1q13 0 27 13q18 16 18 31v3q-10 4 -18 4
q-14 0 -25 -9q-12 -10 -12 -25q0 -7 3 -16zM565 186q21 7 40 7q54 0 92 -55q17 -24 17 -59q0 -37 -18 -86q-30 -81 -79 -133q-48 -70 -106 -47q-39 25 -23 58q48 32 49 48q1 8 1 15q0 42 -26 51q-40 15 -49 31q-5 9 -5 24q0 16 6 38q24 83 101 108zM533 68q4 -1 7 -1
q13 0 27 13q18 16 18 31v3q-10 4 -18 4q-14 0 -25 -9q-12 -10 -12 -25q0 -7 3 -16z" />
    <glyph glyph-name="dagger" unicode="&#x2020;" horiz-adv-x="1140" 
d="M680 952v-1230h-220v1230h-450v220h450v450h220v-450h450v-220h-450z" />
    <glyph glyph-name="daggerdbl" unicode="&#x2021;" horiz-adv-x="1140" 
d="M460 1162v460h220v-460h450v-220h-450v-540h450v-220h-450v-460h-220v460h-450v220h450v540h-450v220h450z" />
    <glyph glyph-name="bullet" unicode="&#x2022;" horiz-adv-x="797" 
d="M585.5 959.5q77.5 -77.5 77.5 -186.5t-77.5 -186.5t-186.5 -77.5t-186.5 77.5t-77.5 186.5t77.5 186.5t186.5 77.5t186.5 -77.5z" />
    <glyph glyph-name="ellipsis" unicode="&#x2026;" horiz-adv-x="2048" 
d="M367 197q3 -18 3 -35q0 -45 -22 -89q-22 -43 -69 -62q-27 -11 -55 -11q-18 0 -35 4q-47 11 -71 48q-18 28 -18 65q0 19 4 39q12 62 66 97q41 28 90 28q12 0 25 -2q68 -10 82 -82zM230 186q10 11 11 11q-1 0 -2 8q-10 4 -20 4q-20 0 -37 -17q-16 -16 -16 -34q0 -11 5 -22
q15 2 59 50zM1050 197q3 -18 3 -35q0 -45 -22 -89q-22 -43 -69 -62q-27 -11 -55 -11q-18 0 -35 4q-47 11 -71 48q-18 28 -18 65q0 19 4 39q12 62 66 97q41 28 90 28q12 0 25 -2q68 -10 82 -82zM913 186q10 11 11 11q-1 0 -2 8q-10 4 -20 4q-20 0 -37 -17q-16 -16 -16 -34
q0 -11 5 -22q15 2 59 50zM1733 197q3 -18 3 -35q0 -45 -22 -89q-22 -43 -69 -62q-27 -11 -55 -11q-18 0 -35 4q-47 11 -71 48q-18 28 -18 65q0 19 4 39q12 62 66 97q41 28 90 28q12 0 25 -2q68 -10 82 -82zM1596 186q10 11 11 11q-1 0 -2 8q-10 4 -20 4q-20 0 -37 -17
q-16 -16 -16 -34q0 -11 5 -22q15 2 59 50z" />
    <glyph glyph-name="guilsinglleft" unicode="&#x2039;" horiz-adv-x="1135" 
d="M154 659q-14 19 -14 47v14q0 28 14 46q14 35 41 74q563 434 652 435q11 1 21 1q91 0 118 -41q9 -14 9 -31q0 -41 -54 -99q-171 -183 -502 -392q331 -210 502 -393q54 -58 54 -99q0 -17 -9 -31q-27 -40 -118 -40h-21q-89 1 -652 435q-27 39 -41 74zM242 759q20 26 32 36
q54 44 75 59q22 16 78 58q48 35 78 58l324 220q-75 0 -499 -317q-67 -50 -80 -63q-40 -39 -40 -74q0 -5 1 -11q13 8 31 34z" />
    <glyph glyph-name="guilsinglright" unicode="&#x203a;" horiz-adv-x="1135" 
d="M981 767q14 -19 14 -47v-14q0 -28 -14 -46q-14 -35 -41 -74q-563 -434 -652 -435q-11 -1 -21 -1q-91 0 -118 41q-9 14 -9 31q0 41 54 99q171 183 502 392q-331 210 -502 393q-54 58 -54 99q0 17 9 31q27 40 118 40h21q89 -1 652 -435q27 -39 41 -74zM893 667
q-20 -26 -32 -36q-54 -44 -75 -59q-22 -16 -78 -58q-48 -35 -78 -58l-324 -220q75 0 499 317q67 50 80 63q40 39 40 74q0 5 -1 11q-13 -8 -31 -34z" />
    <glyph glyph-name="franc" unicode="&#x20a3;" horiz-adv-x="1030" 
d="M514 528q46 -1 81 -35q36 -36 36 -86v-2q0 -50 -36 -86q-35 -34 -51 -34v-2h-112v-162q0 -51 -36 -85q-36 -36 -85 -36h-3q-49 0 -85 36q-36 34 -36 85v162h-90v2q-18 0 -51 34q-36 36 -36 86v2q0 50 36 86q33 34 81 35h60v669q0 151 107 258t258 107h307q49 0 85 -35
q36 -36 36 -86v-2q0 -50 -36 -86q-36 -35 -85 -35h-307q-50 0 -85 -35t-35 -86v-294h417q49 0 85 -35q36 -36 36 -86v-2q0 -51 -36 -85q-36 -36 -85 -36h-417v-131h82z" />
    <glyph glyph-name="lira" unicode="&#x20a4;" horiz-adv-x="1221" 
d="M784 1272q-59 46 -133 46q-91 0 -155 -64t-64 -155v-268h288q50 0 86 -36q35 -36 35 -85v-3q0 -49 -35 -85q-36 -36 -86 -36h-288v-341h567q50 0 86 -36t36 -86v-2q0 -51 -36 -85q-36 -36 -86 -36h-691q-49 0 -85 36q-36 34 -36 85v465h1q-36 0 -62 26t-26 63v67
q0 37 26 63t62 26h-1v268q0 192 136 327q136 136 328 136q157 0 282 -96q123 -94 164 -244q5 -18 5 -34q0 -38 -25 -71q-36 -48 -97 -48h-3q-92 0 -117 89q-19 69 -76 114z" />
    <glyph glyph-name="peseta" unicode="&#x20a7;" horiz-adv-x="2473" 
d="M894 1122q0 139 -53 199q-53 58 -126 61h-321v-520h321q73 3 126 61q53 60 53 199zM1567 -13q-211 0 -277 44q-122 79 -123 357v551h-73q-27 -114 -121 -201q-96 -108 -289 -108h-290v-630h-234v1623h586v-1q138 -2 254 -134q113 -126 116 -331h71v344l233 145v-489h364
q79 25 178 25h21q366 -11 430 -348l-236 -29q-35 165 -211 165q-68 0 -127 -31q-64 -32 -66 -81v-3q0 -57 65 -84q46 -18 212 -62q195 -50 276 -110q121 -88 121 -236q0 -17 -2 -34q-14 -164 -172 -258q-123 -75 -286 -84h-420zM1992 209q63 0 114 19q72 27 90 76q5 16 5 30
q0 53 -71 88q-31 15 -197 58q-183 46 -265 100q-137 91 -137 256q0 82 10 103h-121v-570q5 -123 39 -143q20 -11 156 -17h377z" />
    <glyph glyph-name="Euro" unicode="&#x20ac;" horiz-adv-x="1371" 
d="M1069 1305q73 -56 93 -131q7 -25 7 -48q0 -43 -25 -76q-39 -53 -124 -53h-3q-141 82 -196 91q-27 13 -52 13q-45 0 -84 -41q-55 -58 -84 -181q203 -7 324 -31q134 -26 134 -68q0 -5 -1 -9q-11 -32 -159 -52q-133 -18 -302 -18h-18q0 -29 1 -59q175 -8 278 -32
q112 -26 112 -66q0 -4 -1 -9q-8 -28 -116 -48q-100 -18 -243 -21q62 -192 212 -192h8q41 6 141 80q95 71 137 72h3q84 0 110 -55q10 -21 10 -45q0 -37 -23 -82q-39 -77 -125 -134q-97 -65 -221 -77q-27 -3 -53 -3q-166 0 -288 115q-127 119 -180 331q-139 16 -182 51
q-19 15 -19 32q0 30 57 68q16 11 118 16q-3 38 -3 76q-125 18 -158 52q-11 12 -11 25q0 30 62 67q17 11 120 16q38 234 169 371q128 133 311 133q28 0 57 -3q124 -12 207 -75zM404 947q8 9 26 52q23 53 42 86q71 124 203 190l5 3q6 3 7 3q8 5 14 10q-111 0 -204 -124
q-84 -110 -93 -220z" />
    <glyph glyph-name="uni2116" unicode="&#x2116;" horiz-adv-x="2289" 
d="M400 1623q547 -920 670 -1155v1155h253v-1623h-240q-546 922 -670 1163v-1163h-253v1623h240zM1426 1v235h786v-235h-786zM1419 808q0 217 129 346q115 117 284 117q167 0 284 -117q128 -129 128 -346q0 -216 -128 -344q-117 -117 -284 -117q-169 0 -284 117
q-129 128 -129 344zM1661 809q0 -105 55 -165q47 -51 115 -51t115 51q55 60 55 165q0 104 -55 165q-47 51 -115 51t-115 -51q-55 -61 -55 -165z" />
    <glyph glyph-name="trademark" unicode="&#x2122;" horiz-adv-x="1318" 
d="M576 1492h-204v-554h-147v554h-205v131h732l145 -414l145 414h176v-685h-141v396l-126 -358h-108l-126 358v-396h-141v554z" />
    <glyph glyph-name="partialdiff" unicode="&#x2202;" horiz-adv-x="1065" 
d="M771 801q-164 -10 -288 -80q-152 -86 -170 -250q-3 -29 -3 -53q0 -95 50 -123q23 -12 51 -12q51 0 119 40q131 78 189 236q38 105 52 242zM964 890q-2 -38 -4 -71q-14 -184 -66 -324q-81 -220 -269 -332q-113 -68 -214 -68q-74 0 -141 37q-147 80 -147 286q0 35 4 73
q28 249 243 380q174 107 409 118v52q0 96 -24 159q-30 81 -93 81q-45 0 -99 -54q-47 -47 -75 -107q-17 -35 -53 -48q-16 -6 -32 -6q-20 0 -40 9q-34 16 -47 53q-6 17 -6 33q0 19 9 38q30 65 83 128q118 140 260 140q92 0 162 -52q141 -106 141 -374q0 -97 -1 -140v-11z" />
    <glyph glyph-name="Delta" unicode="&#x2206;" horiz-adv-x="1328" 
d="M598 1367q19 43 66 43t66 -43l486 -1085q7 -16 7 -31q0 -20 -12 -38q-21 -33 -60 -33h-973q-39 0 -61 33q-12 19 -12 39q0 14 6 29zM974 369l-310 694l-311 -694h621z" />
    <glyph glyph-name="product" unicode="&#x220f;" horiz-adv-x="1405" 
d="M1118 1377h-831v-1470q0 -39 -28 -65q-28 -28 -66 -28q-39 0 -65 28q-28 26 -28 65v1563q0 38 28 66q26 28 65 28h1018q40 0 66 -28q28 -28 28 -66v-1563q0 -39 -28 -65q-26 -28 -66 -28q-39 0 -65 28q-28 26 -28 65v1470z" />
    <glyph glyph-name="summation" unicode="&#x2211;" horiz-adv-x="1429" 
d="M397 1375l475 -601q23 -29 23 -58t-23 -58l-475 -601h839q39 0 67 -28q26 -28 26 -66t-27 -65q-27 -28 -66 -28h-1032q-57 0 -84 53q-10 21 -10 41q0 30 22 58l548 694l-548 694q-22 27 -22 57q0 21 10 42q27 53 84 53h1032q39 0 67 -28q26 -28 26 -66t-27 -65
q-27 -28 -66 -28h-839z" />
    <glyph glyph-name="minus" unicode="&#x2212;" horiz-adv-x="952" 
d="M902 780q0 -51 -36 -85q-36 -36 -86 -36h-609q-51 0 -85 36q-36 34 -36 85v2q0 50 36 86q34 36 85 36h609q50 0 86 -36t36 -86v-2z" />
    <glyph glyph-name="radical" unicode="&#x221a;" horiz-adv-x="1222" 
d="M933 1606q6 37 38 60q25 18 54 18q7 0 15 -1q39 -6 61 -38q17 -25 17 -54q0 -8 -1 -16l-241 -1496q-10 -66 -78 -77q-9 -1 -18 -1q-54 0 -80 53l-341 698l-124 -52q-18 -7 -36 -7t-36 7q-36 15 -50 52q-7 18 -7 35q0 18 7 36q15 35 50 50l206 85q18 7 35 7t33 -6
q35 -13 52 -47l250 -512z" />
    <glyph glyph-name="infinity" unicode="&#x221e;" horiz-adv-x="1275" 
d="M892 1106q154 0 223 -90q60 -77 60 -231q0 -147 -68 -230q-76 -91 -222 -91q-169 0 -289 162q-95 -113 -251 -113q-124 0 -189 85q-56 73 -56 194q0 114 59 185q64 78 180 84h10q150 0 249 -123q122 168 294 168zM769 681q55 -52 116 -52q56 0 83 22q42 32 42 134
q0 107 -30 134q-23 21 -88 21q-44 0 -81 -22q-50 -30 -123 -138q48 -67 81 -99zM512 781q-81 115 -166 115h-1q-80 -4 -80 -104q0 -114 80 -114q92 0 167 103z" />
    <glyph glyph-name="integral" unicode="&#x222b;" horiz-adv-x="669" 
d="M460 1376q-9 1 -9 6q-7 -12 -14 -108q-6 -89 -9 -231q-1 -49 -1 -384t-1 -386q-2 -151 -9 -246q-10 -134 -33 -179q-44 -84 -153 -91q-10 -1 -20 -1q-69 0 -146 31q-36 15 -51 50q-7 18 -7 36t7 36q14 36 50 51q18 7 36 7q17 0 34 -6q38 -15 74 -18q10 -1 10 -7
q6 12 13 109q6 89 9 231q1 49 1 383q0 336 1 387q2 151 9 246q11 134 34 179q44 84 152 91q10 1 20 1q70 0 147 -31q35 -15 51 -50q8 -18 8 -37q0 -18 -8 -36q-15 -35 -50 -50q-18 -7 -36 -7q-17 0 -34 6q-38 15 -75 18z" />
    <glyph glyph-name="approxequal" unicode="&#x2248;" horiz-adv-x="1258" 
d="M438 1077q81 0 213 -48q164 -59 193 -59q72 0 159 72q26 22 61 22h8q39 -5 62 -34q22 -26 22 -59v-8q-3 -39 -34 -64q-138 -116 -278 -116q-61 0 -256 71q-101 36 -150 36q-97 0 -183 -73q-26 -22 -59 -22h-8q-39 3 -64 33q-22 26 -22 59v8q3 38 32 65q137 117 304 117z
M438 705q81 0 212 -48q165 -59 194 -59q72 0 159 72q26 22 59 22h8q41 -3 64 -34q22 -26 22 -60v-8q-5 -38 -34 -63q-138 -116 -278 -116q-61 0 -257 71q-100 36 -149 36q-97 0 -183 -72q-26 -22 -59 -22h-8q-39 3 -64 32q-22 25 -22 60v8q3 39 32 64q137 117 304 117z" />
    <glyph glyph-name="lessequal" unicode="&#x2264;" horiz-adv-x="1162" 
d="M964 418q39 0 65 -28q28 -26 28 -65q0 -40 -28 -66q-26 -28 -65 -28h-771q-39 0 -65 28q-28 26 -28 66q0 39 28 65q26 28 65 28h771zM1000 672q35 -15 50 -51q7 -18 7 -36t-7 -36q-15 -35 -51 -50q-18 -7 -36 -7t-36 7l-770 324q-57 25 -57 87t57 86l770 324q18 7 36 7
t36 -7q36 -15 51 -50q7 -18 7 -36t-7 -36q-15 -36 -50 -51l-566 -237z" />
    <glyph glyph-name="greaterequal" unicode="&#x2265;" horiz-adv-x="1162" 
d="M964 418q39 0 67 -28q26 -27 26 -65q0 -39 -26 -66q-28 -28 -67 -28h-771q-39 0 -65 28q-28 26 -28 66q0 39 28 65q26 28 65 28h771zM723 910l-565 237q-36 15 -50 51q-7 18 -7 36t7 36q15 35 51 50q18 8 35 8q18 0 36 -8l770 -324q57 -24 57 -86t-57 -87l-770 -324
q-18 -7 -36 -7q-17 0 -35 7q-36 15 -51 50q-7 18 -7 36t7 36q14 36 50 51z" />
    <glyph glyph-name="Gbreve" unicode="&#x11e;" horiz-adv-x="1261" 
d="M679 792q-42 -82 -42 -186q0 -27 3 -56q16 -166 139 -191q58 -12 86 -12q27 0 27 11v2q-2 8 -24 36q-28 35 -39 54q-21 34 -21 62q0 35 32 60q45 36 156 36h23q129 -3 169 -46q21 -21 29 -50q4 -15 4 -28q0 -20 -9 -38q-3 -6 -103 -80q-15 -12 -23 -82q-9 -78 -29 -108
q-59 -89 -182 -133q-89 -33 -183 -33q-21 0 -42 2q-318 24 -473 275q-107 173 -107 397q0 76 12 158q32 216 189 377q160 165 374 194q44 6 87 6q145 0 280 -67q106 -52 126 -140q6 -22 6 -57q0 -51 -13 -130q-10 -58 -20 -78q-10 -18 -30 -18q-3 0 -56 10q-38 7 -77 7h-17
q-172 -9 -252 -154zM888 497q2 -1 5 -1q13 0 44 24q14 11 16 20q-8 3 -19 3q-16 0 -37 -8q-15 -6 -19 -17q-1 -3 -1 -5q0 -10 11 -16zM844 293q21 -4 38 -4q34 0 55 16q25 19 25 51q0 30 -15 30q-16 -1 -24 -51q-7 -8 -37 -21q-33 -14 -42 -21zM145 795q1 -1 32 103
q10 33 40 93t108 159q73 93 241 158q9 4 55 17q38 10 49 18q-212 0 -370 -167q-155 -165 -156 -379zM440 1684v10q0 33 19 42q7 4 16 4q19 0 47 -20q68 -89 179 -93h9q111 0 207 93q27 20 46 20q9 0 16 -4q19 -10 19 -44v-8q-8 -99 -100 -157q-83 -53 -195 -54h-4
q-110 0 -183 52q-76 53 -76 143v16z" />
    <glyph glyph-name="gbreve" unicode="&#x11f;" horiz-adv-x="1261" 
d="M679 792q-42 -82 -42 -186q0 -27 3 -56q16 -166 139 -191q58 -12 86 -12q27 0 27 11v2q-2 8 -24 36q-28 35 -39 54q-21 34 -21 62q0 35 32 60q45 36 156 36h23q129 -3 169 -46q21 -21 29 -50q4 -15 4 -28q0 -20 -9 -38q-3 -6 -103 -80q-15 -12 -23 -82q-9 -78 -29 -108
q-59 -89 -182 -133q-89 -33 -183 -33q-21 0 -42 2q-318 24 -473 275q-107 173 -107 397q0 76 12 158q32 216 189 377q160 165 374 194q44 6 87 6q145 0 280 -67q106 -52 126 -140q6 -22 6 -57q0 -51 -13 -130q-10 -58 -20 -78q-10 -18 -30 -18q-3 0 -56 10q-38 7 -77 7h-17
q-172 -9 -252 -154zM888 497q2 -1 5 -1q13 0 44 24q14 11 16 20q-8 3 -19 3q-16 0 -37 -8q-15 -6 -19 -17q-1 -3 -1 -5q0 -10 11 -16zM844 293q21 -4 38 -4q34 0 55 16q25 19 25 51q0 30 -15 30q-16 -1 -24 -51q-7 -8 -37 -21q-33 -14 -42 -21zM145 795q1 -1 32 103
q10 33 40 93t108 159q73 93 241 158q9 4 55 17q38 10 49 18q-212 0 -370 -167q-155 -165 -156 -379zM440 1684v10q0 33 19 42q7 4 16 4q19 0 47 -20q68 -89 179 -93h9q111 0 207 93q27 20 46 20q9 0 16 -4q19 -10 19 -44v-8q-8 -99 -100 -157q-83 -53 -195 -54h-4
q-110 0 -183 52q-76 53 -76 143v16z" />
    <glyph glyph-name="Idotaccent" unicode="&#x130;" horiz-adv-x="934" 
d="M227 922q-44 6 -54 9q-59 13 -74 64q-19 63 -19 102v11q1 72 25 134q38 104 266 124q51 4 176 4q140 0 224 -42q86 -42 103 -177q3 -24 3 -54q0 -54 -52 -122q-33 -43 -76 -56q-16 -5 -72 -10q-39 -3 -58 -21q-26 -25 -36 -101q-5 -35 -5 -155q0 -16 1 -28
q4 -200 27 -218q11 -8 88 -13q43 -6 62 -9q55 -22 55 -98v-3q10 -193 -35 -229q-47 -29 -365 -33q-22 -1 -41 -1q-143 0 -201 24q-36 22 -46 84q-3 140 -3 157q0 35 13 62q15 31 112 32q72 2 88 19q17 37 17 188q0 52 -2 54q-9 267 -64 290q-22 7 -57 12zM185 1194
q16 31 44 47q20 12 68 28q45 15 53 21q-101 0 -150 -26q-30 -16 -45 -53q-7 -18 -7 -33q0 -18 10 -22q5 -14 27 38zM183 288q-1 -5 -1 -9q0 -22 61 -22h5q33 2 62 16q57 28 81 77q14 29 14 62q0 29 -11 61q0 -1 -1 -24q-1 -25 -6 -45q-16 -66 -81 -92q-12 -5 -58 -5
q-63 0 -65 -19zM611 1697q3 -18 3 -35q0 -45 -22 -89q-22 -43 -69 -62q-27 -11 -55 -11q-18 0 -35 4q-47 11 -71 48q-18 28 -18 65q0 19 4 39q12 62 66 97q41 28 90 28q12 0 25 -2q68 -10 82 -82zM474 1686q10 11 11 11q-1 0 -2 8q-10 4 -20 4q-20 0 -37 -17
q-16 -16 -16 -34q0 -11 5 -22q15 2 59 50z" />
    <glyph glyph-name="Scedilla" unicode="&#x15e;" horiz-adv-x="1056" 
d="M297 241q15 17 48 18q-18 12 -33 12q-13 0 -25 -9q-16 -12 -16 -32q0 -12 6 -27q12 29 20 38zM483 280q14 -10 34 -10q24 0 56 14q51 22 51 68q0 14 -5 31q-6 -35 -36 -66q-37 -38 -88 -38q-6 0 -12 1zM179 1027q22 49 40 76q70 100 240 157q7 2 86 22q61 16 70 24
q-10 1 -21 1q-49 0 -138 -23q-108 -29 -164 -63q-65 -40 -118 -125q-36 -59 -36 -95q0 -19 9 -31q13 15 32 57zM553 -361q76 0 76 77q0 -2 -39 -37q-35 -31 -37 -40zM456 41q-143 4 -207 38q-44 23 -44 97q0 68 33 125q19 33 161 33h37q58 0 84 5q46 9 48 39v2q0 36 -92 96
q-29 19 -74 45q-46 26 -52 30q-227 145 -270 314q-10 38 -10 76q0 150 155 296q95 90 325 131q88 16 156 16q118 0 177 -47q100 -78 115 -270q3 -35 3 -65q0 -121 -46 -156q-27 -21 -217 -25q-183 -4 -197 -24q-4 -6 -4 -13q0 -22 36 -58q14 -14 99 -89q78 -69 125 -117
q133 -138 133 -227q0 -12 -2 -23q-21 -98 -102 -159q-76 -59 -180 -66q-4 0 -9 -1q-5 -34 -30 -81l-2 -4q72 -17 115 -62q42 -42 42 -96q0 -11 -2 -21q-2 -139 -97 -176q-33 -14 -73 -14q-52 0 -117 24q-103 38 -143 95q-14 19 -14 33q0 7 3 13q10 22 54 30q14 3 27 3
q48 0 109 -26q21 -10 35 -10q3 0 5 1q18 4 32 33q10 21 10 36q0 40 -63 49q-12 2 -65 5q-31 1 -31 9v3q-2 10 -2 23q0 42 22 117q2 7 4 13z" />
    <glyph glyph-name="scedilla" unicode="&#x15f;" horiz-adv-x="1056" 
d="M297 241q15 17 48 18q-18 12 -33 12q-13 0 -25 -9q-16 -12 -16 -32q0 -12 6 -27q12 29 20 38zM483 280q14 -10 34 -10q24 0 56 14q51 22 51 68q0 14 -5 31q-6 -35 -36 -66q-37 -38 -88 -38q-6 0 -12 1zM179 1027q22 49 40 76q70 100 240 157q7 2 86 22q61 16 70 24
q-10 1 -21 1q-49 0 -138 -23q-108 -29 -164 -63q-65 -40 -118 -125q-36 -59 -36 -95q0 -19 9 -31q13 15 32 57zM553 -361q76 0 76 77q0 -2 -39 -37q-35 -31 -37 -40zM456 41q-143 4 -207 38q-44 23 -44 97q0 68 33 125q19 33 161 33h37q58 0 84 5q46 9 48 39v2q0 36 -92 96
q-29 19 -74 45q-46 26 -52 30q-227 145 -270 314q-10 38 -10 76q0 150 155 296q95 90 325 131q88 16 156 16q118 0 177 -47q100 -78 115 -270q3 -35 3 -65q0 -121 -46 -156q-27 -21 -217 -25q-183 -4 -197 -24q-4 -6 -4 -13q0 -22 36 -58q14 -14 99 -89q78 -69 125 -117
q133 -138 133 -227q0 -12 -2 -23q-21 -98 -102 -159q-76 -59 -180 -66q-4 0 -9 -1q-5 -34 -30 -81l-2 -4q72 -17 115 -62q42 -42 42 -96q0 -11 -2 -21q-2 -139 -97 -176q-33 -14 -73 -14q-52 0 -117 24q-103 38 -143 95q-14 19 -14 33q0 7 3 13q10 22 54 30q14 3 27 3
q48 0 109 -26q21 -10 35 -10q3 0 5 1q18 4 32 33q10 21 10 36q0 40 -63 49q-12 2 -65 5q-31 1 -31 9v3q-2 10 -2 23q0 42 22 117q2 7 4 13z" />
    <glyph glyph-name="Amacron" unicode="&#x100;" horiz-adv-x="1028" 
d="M987 200q1 -8 1 -16q0 -51 -38 -88q-42 -42 -104 -43q-68 0 -122 51q-62 60 -86 175q-22 104 -97 106h-3q-72 0 -120 -96q-64 -126 -64 -127l1 1q-34 -59 -93 -90q-45 -23 -88 -23q-12 0 -24 2q-58 8 -87 53q-23 36 -23 88q0 23 4 48q13 83 39 189q35 139 57 216
q35 115 64 197q157 448 304 516q26 12 51 12q95 0 183 -168q168 -325 245 -1003zM598 690q-11 62 -21 99q-19 72 -38 72q-13 0 -25 -29q-12 -26 -44 -178q-3 -17 -3 -23v-2q1 -4 8 -4q4 0 9 1q20 4 39 4q22 0 43 -5q9 -3 31 -8l10 -3h1q3 0 3 3v2q-1 5 -13 71zM571 556
q18 -2 33 -2q48 0 61 22q5 9 5 23q0 27 -20 76q1 -7 1 -15q0 -24 -8 -46q-18 -47 -72 -58zM120 256q-1 0 -1 1q0 20 76 286q46 161 90 280q116 312 232 428q25 25 25 40q0 3 -1 6q-4 1 -9 1q-53 0 -129 -134q-70 -124 -145 -335q-143 -401 -143 -534q0 -24 5 -39zM317 1476
q-34 42 -34 85q0 9 1 17q9 55 70 82q35 16 200 16q165 -1 203 -17q78 -34 78 -106v-6q-2 -80 -108 -91q-66 -12 -176 -12q-23 0 -49 1q-164 2 -185 31z" />
    <glyph glyph-name="amacron" unicode="&#x101;" horiz-adv-x="1028" 
d="M987 200q1 -8 1 -16q0 -51 -38 -88q-42 -42 -104 -43q-68 0 -122 51q-62 60 -86 175q-22 104 -97 106h-3q-72 0 -120 -96q-64 -126 -64 -127l1 1q-34 -59 -93 -90q-45 -23 -88 -23q-12 0 -24 2q-58 8 -87 53q-23 36 -23 88q0 23 4 48q13 83 39 189q35 139 57 216
q35 115 64 197q157 448 304 516q26 12 51 12q95 0 183 -168q168 -325 245 -1003zM598 690q-11 62 -21 99q-19 72 -38 72q-13 0 -25 -29q-12 -26 -44 -178q-3 -17 -3 -23v-2q1 -4 8 -4q4 0 9 1q20 4 39 4q22 0 43 -5q9 -3 31 -8l10 -3h1q3 0 3 3v2q-1 5 -13 71zM571 556
q18 -2 33 -2q48 0 61 22q5 9 5 23q0 27 -20 76q1 -7 1 -15q0 -24 -8 -46q-18 -47 -72 -58zM120 256q-1 0 -1 1q0 20 76 286q46 161 90 280q116 312 232 428q25 25 25 40q0 3 -1 6q-4 1 -9 1q-53 0 -129 -134q-70 -124 -145 -335q-143 -401 -143 -534q0 -24 5 -39zM317 1476
q-34 42 -34 85q0 9 1 17q9 55 70 82q35 16 200 16q165 -1 203 -17q78 -34 78 -106v-6q-2 -80 -108 -91q-66 -12 -176 -12q-23 0 -49 1q-164 2 -185 31z" />
    <glyph glyph-name="Abreve" unicode="&#x102;" horiz-adv-x="1028" 
d="M987 200q1 -8 1 -16q0 -51 -38 -88q-42 -42 -104 -43q-68 0 -122 51q-62 60 -86 175q-22 104 -97 106h-3q-72 0 -120 -96q-64 -126 -64 -127l1 1q-34 -59 -93 -90q-45 -23 -88 -23q-12 0 -24 2q-58 8 -87 53q-23 36 -23 88q0 23 4 48q13 83 39 189q35 139 57 216
q35 115 64 197q157 448 304 516q26 12 51 12q95 0 183 -168q168 -325 245 -1003zM598 690q-11 62 -21 99q-19 72 -38 72q-13 0 -25 -29q-12 -26 -44 -178q-3 -17 -3 -23v-2q1 -4 8 -4q4 0 9 1q20 4 39 4q22 0 43 -5q9 -3 31 -8l10 -3h1q3 0 3 3v2q-1 5 -13 71zM571 556
q18 -2 33 -2q48 0 61 22q5 9 5 23q0 27 -20 76q1 -7 1 -15q0 -24 -8 -46q-18 -47 -72 -58zM120 256q-1 0 -1 1q0 20 76 286q46 161 90 280q116 312 232 428q25 25 25 40q0 3 -1 6q-4 1 -9 1q-53 0 -129 -134q-70 -124 -145 -335q-143 -401 -143 -534q0 -24 5 -39zM300 1650
v11q0 33 19 43q7 4 16 4q20 0 49 -21q70 -91 183 -95h9q114 0 211 95q28 21 48 21q9 0 16 -4q20 -11 20 -46v-8q-8 -100 -103 -160q-84 -55 -199 -55h-4q-112 0 -187 52q-79 55 -79 147q0 8 1 16z" />
    <glyph glyph-name="abreve" unicode="&#x103;" horiz-adv-x="1028" 
d="M987 200q1 -8 1 -16q0 -51 -38 -88q-42 -42 -104 -43q-68 0 -122 51q-62 60 -86 175q-22 104 -97 106h-3q-72 0 -120 -96q-64 -126 -64 -127l1 1q-34 -59 -93 -90q-45 -23 -88 -23q-12 0 -24 2q-58 8 -87 53q-23 36 -23 88q0 23 4 48q13 83 39 189q35 139 57 216
q35 115 64 197q157 448 304 516q26 12 51 12q95 0 183 -168q168 -325 245 -1003zM598 690q-11 62 -21 99q-19 72 -38 72q-13 0 -25 -29q-12 -26 -44 -178q-3 -17 -3 -23v-2q1 -4 8 -4q4 0 9 1q20 4 39 4q22 0 43 -5q9 -3 31 -8l10 -3h1q3 0 3 3v2q-1 5 -13 71zM571 556
q18 -2 33 -2q48 0 61 22q5 9 5 23q0 27 -20 76q1 -7 1 -15q0 -24 -8 -46q-18 -47 -72 -58zM120 256q-1 0 -1 1q0 20 76 286q46 161 90 280q116 312 232 428q25 25 25 40q0 3 -1 6q-4 1 -9 1q-53 0 -129 -134q-70 -124 -145 -335q-143 -401 -143 -534q0 -24 5 -39zM300 1650
v11q0 33 19 43q7 4 16 4q20 0 49 -21q70 -91 183 -95h9q114 0 211 95q28 21 48 21q9 0 16 -4q20 -11 20 -46v-8q-8 -100 -103 -160q-84 -55 -199 -55h-4q-112 0 -187 52q-79 55 -79 147q0 8 1 16z" />
    <glyph glyph-name="Aogonek" unicode="&#x104;" horiz-adv-x="1028" 
d="M987 200q1 -8 1 -16q0 -51 -38 -88q-42 -42 -104 -43q-68 0 -122 51q-62 60 -86 175q-22 104 -97 106h-3q-72 0 -120 -96q-64 -126 -64 -127l1 1q-34 -59 -93 -90q-45 -23 -88 -23q-12 0 -24 2q-58 8 -87 53q-23 36 -23 88q0 23 4 48q13 83 39 189q35 139 57 216
q35 115 64 197q157 448 304 516q26 12 51 12q95 0 183 -168q168 -325 245 -1003zM598 690q-11 62 -21 99q-19 72 -38 72q-13 0 -25 -29q-12 -26 -44 -178q-3 -17 -3 -23v-2q1 -4 8 -4q4 0 9 1q20 4 39 4q22 0 43 -5q9 -3 31 -8l10 -3h1q3 0 3 3v2q-1 5 -13 71zM571 556
q18 -2 33 -2q48 0 61 22q5 9 5 23q0 27 -20 76q1 -7 1 -15q0 -24 -8 -46q-18 -47 -72 -58zM120 256q-1 0 -1 1q0 20 76 286q46 161 90 280q116 312 232 428q25 25 25 40q0 3 -1 6q-4 1 -9 1q-53 0 -129 -134q-70 -124 -145 -335q-143 -401 -143 -534q0 -24 5 -39zM991 -302
q-61 -56 -172 -56q-90 0 -148 53q-63 57 -63 150q0 77 61 179q35 59 82 104h223q-91 -88 -122 -136q-40 -59 -40 -96q0 -15 7 -27q17 -29 52 -29q9 0 19 2q31 6 101 50v-194z" />
    <glyph glyph-name="aogonek" unicode="&#x105;" horiz-adv-x="1028" 
d="M987 200q1 -8 1 -16q0 -51 -38 -88q-42 -42 -104 -43q-68 0 -122 51q-62 60 -86 175q-22 104 -97 106h-3q-72 0 -120 -96q-64 -126 -64 -127l1 1q-34 -59 -93 -90q-45 -23 -88 -23q-12 0 -24 2q-58 8 -87 53q-23 36 -23 88q0 23 4 48q13 83 39 189q35 139 57 216
q35 115 64 197q157 448 304 516q26 12 51 12q95 0 183 -168q168 -325 245 -1003zM598 690q-11 62 -21 99q-19 72 -38 72q-13 0 -25 -29q-12 -26 -44 -178q-3 -17 -3 -23v-2q1 -4 8 -4q4 0 9 1q20 4 39 4q22 0 43 -5q9 -3 31 -8l10 -3h1q3 0 3 3v2q-1 5 -13 71zM571 556
q18 -2 33 -2q48 0 61 22q5 9 5 23q0 27 -20 76q1 -7 1 -15q0 -24 -8 -46q-18 -47 -72 -58zM120 256q-1 0 -1 1q0 20 76 286q46 161 90 280q116 312 232 428q25 25 25 40q0 3 -1 6q-4 1 -9 1q-53 0 -129 -134q-70 -124 -145 -335q-143 -401 -143 -534q0 -24 5 -39zM991 -302
q-61 -56 -172 -56q-90 0 -148 53q-63 57 -63 150q0 77 61 179q35 59 82 104h223q-91 -88 -122 -136q-40 -59 -40 -96q0 -15 7 -27q17 -29 52 -29q9 0 19 2q31 6 101 50v-194z" />
    <glyph glyph-name="Cacute" unicode="&#x106;" horiz-adv-x="1097" 
d="M650 1391q-29 3 -57 3q-223 0 -359 -192q-134 -188 -134 -471v-13q2 -290 141 -484q138 -194 357 -194q26 0 52 3q123 13 213 104q79 80 109 193q13 52 13 96q0 50 -16 90q-32 81 -116 81h-4q-44 0 -114 -31q-79 -35 -117 -41q-20 -3 -38 -3q-64 0 -108 38
q-49 43 -51 112v6q0 65 45 107q40 37 103 37q19 0 39 -3q37 -5 130 -40q83 -31 128 -32h4q84 0 114 92q13 41 13 90q0 55 -17 120q-33 128 -114 217q-93 103 -216 115zM613 460q122 31 215 83q-14 -61 -98 -82q-37 -9 -66 -9t-51 8zM164 841q0 124 57 242q59 123 159 192
q32 22 80 36q31 10 51 10q18 0 27 -8q-13 -8 -65 -29q-47 -20 -72 -37q-130 -99 -237 -406zM432 1515v4q0 28 79 119q76 87 122 122q39 35 72 35q24 0 45 -18q33 -29 33 -70q0 -20 -7 -42q-10 -30 -96 -125q-86 -94 -114 -106q-24 -11 -45 -11q-24 0 -45 14q-37 24 -44 78z
M504 1526q3 1 132 128q33 33 37 53q-42 -3 -117 -100l-10 -12l-10 -10q-30 -35 -32 -59z" />
    <glyph glyph-name="cacute" unicode="&#x107;" horiz-adv-x="1097" 
d="M650 1391q-29 3 -57 3q-223 0 -359 -192q-134 -188 -134 -471v-13q2 -290 141 -484q138 -194 357 -194q26 0 52 3q123 13 213 104q79 80 109 193q13 52 13 96q0 50 -16 90q-32 81 -116 81h-4q-44 0 -114 -31q-79 -35 -117 -41q-20 -3 -38 -3q-64 0 -108 38
q-49 43 -51 112v6q0 65 45 107q40 37 103 37q19 0 39 -3q37 -5 130 -40q83 -31 128 -32h4q84 0 114 92q13 41 13 90q0 55 -17 120q-33 128 -114 217q-93 103 -216 115zM613 460q122 31 215 83q-14 -61 -98 -82q-37 -9 -66 -9t-51 8zM164 841q0 124 57 242q59 123 159 192
q32 22 80 36q31 10 51 10q18 0 27 -8q-13 -8 -65 -29q-47 -20 -72 -37q-130 -99 -237 -406zM432 1515v4q0 28 79 119q76 87 122 122q39 35 72 35q24 0 45 -18q33 -29 33 -70q0 -20 -7 -42q-10 -30 -96 -125q-86 -94 -114 -106q-24 -11 -45 -11q-24 0 -45 14q-37 24 -44 78z
M504 1526q3 1 132 128q33 33 37 53q-42 -3 -117 -100l-10 -12l-10 -10q-30 -35 -32 -59z" />
    <glyph glyph-name="Ccircumflex" unicode="&#x108;" horiz-adv-x="1097" 
d="M650 1391q-29 3 -57 3q-223 0 -359 -192q-134 -188 -134 -471v-13q2 -290 141 -484q138 -194 357 -194q26 0 52 3q123 13 213 104q79 80 109 193q13 52 13 96q0 50 -16 90q-32 81 -116 81h-4q-44 0 -114 -31q-79 -35 -117 -41q-20 -3 -38 -3q-64 0 -108 38
q-49 43 -51 112v6q0 65 45 107q40 37 103 37q19 0 39 -3q37 -5 130 -40q83 -31 128 -32h4q84 0 114 92q13 41 13 90q0 55 -17 120q-33 128 -114 217q-93 103 -216 115zM613 460q122 31 215 83q-14 -61 -98 -82q-37 -9 -66 -9t-51 8zM164 841q0 124 57 242q59 123 159 192
q32 22 80 36q31 10 51 10q18 0 27 -8q-13 -8 -65 -29q-47 -20 -72 -37q-130 -99 -237 -406zM852 1448q1 -4 1 -8q0 -37 -41 -42q-6 -1 -12 -1q-42 0 -94 35q-20 16 -68 66q-47 50 -82 77q-100 -69 -178 -132q-54 -33 -87 -33q-26 0 -39 21q-8 14 -8 31q0 40 47 97
q7 8 127 142q80 89 139 90h3q63 0 138 -92q146 -181 154 -251zM406 1577q75 74 105 99q23 19 25 29q-5 2 -12 2q-38 0 -108 -88q-95 -119 -98 -119q25 16 88 77z" />
    <glyph glyph-name="ccircumflex" unicode="&#x109;" horiz-adv-x="1097" 
d="M650 1391q-29 3 -57 3q-223 0 -359 -192q-134 -188 -134 -471v-13q2 -290 141 -484q138 -194 357 -194q26 0 52 3q123 13 213 104q79 80 109 193q13 52 13 96q0 50 -16 90q-32 81 -116 81h-4q-44 0 -114 -31q-79 -35 -117 -41q-20 -3 -38 -3q-64 0 -108 38
q-49 43 -51 112v6q0 65 45 107q40 37 103 37q19 0 39 -3q37 -5 130 -40q83 -31 128 -32h4q84 0 114 92q13 41 13 90q0 55 -17 120q-33 128 -114 217q-93 103 -216 115zM613 460q122 31 215 83q-14 -61 -98 -82q-37 -9 -66 -9t-51 8zM164 841q0 124 57 242q59 123 159 192
q32 22 80 36q31 10 51 10q18 0 27 -8q-13 -8 -65 -29q-47 -20 -72 -37q-130 -99 -237 -406zM852 1448q1 -4 1 -8q0 -37 -41 -42q-6 -1 -12 -1q-42 0 -94 35q-20 16 -68 66q-47 50 -82 77q-100 -69 -178 -132q-54 -33 -87 -33q-26 0 -39 21q-8 14 -8 31q0 40 47 97
q7 8 127 142q80 89 139 90h3q63 0 138 -92q146 -181 154 -251zM406 1577q75 74 105 99q23 19 25 29q-5 2 -12 2q-38 0 -108 -88q-95 -119 -98 -119q25 16 88 77z" />
    <glyph glyph-name="Cdotaccent" unicode="&#x10a;" horiz-adv-x="1097" 
d="M650 1391q-29 3 -57 3q-223 0 -359 -192q-134 -188 -134 -471v-13q2 -290 141 -484q138 -194 357 -194q26 0 52 3q123 13 213 104q79 80 109 193q13 52 13 96q0 50 -16 90q-32 81 -116 81h-4q-44 0 -114 -31q-79 -35 -117 -41q-20 -3 -38 -3q-64 0 -108 38
q-49 43 -51 112v6q0 65 45 107q40 37 103 37q19 0 39 -3q37 -5 130 -40q83 -31 128 -32h4q84 0 114 92q13 41 13 90q0 55 -17 120q-33 128 -114 217q-93 103 -216 115zM613 460q122 31 215 83q-14 -61 -98 -82q-37 -9 -66 -9t-51 8zM164 841q0 124 57 242q59 123 159 192
q32 22 80 36q31 10 51 10q18 0 27 -8q-13 -8 -65 -29q-47 -20 -72 -37q-130 -99 -237 -406zM681 1697q3 -18 3 -35q0 -45 -22 -89q-22 -43 -69 -62q-27 -11 -55 -11q-18 0 -35 4q-47 11 -71 48q-18 28 -18 65q0 19 4 39q12 62 66 97q41 28 90 28q12 0 25 -2q68 -10 82 -82z
M544 1686q10 11 11 11q-1 0 -2 8q-10 4 -20 4q-20 0 -37 -17q-16 -16 -16 -34q0 -11 5 -22q15 2 59 50z" />
    <glyph glyph-name="cdotaccent" unicode="&#x10b;" horiz-adv-x="1097" 
d="M650 1391q-29 3 -57 3q-223 0 -359 -192q-134 -188 -134 -471v-13q2 -290 141 -484q138 -194 357 -194q26 0 52 3q123 13 213 104q79 80 109 193q13 52 13 96q0 50 -16 90q-32 81 -116 81h-4q-44 0 -114 -31q-79 -35 -117 -41q-20 -3 -38 -3q-64 0 -108 38
q-49 43 -51 112v6q0 65 45 107q40 37 103 37q19 0 39 -3q37 -5 130 -40q83 -31 128 -32h4q84 0 114 92q13 41 13 90q0 55 -17 120q-33 128 -114 217q-93 103 -216 115zM613 460q122 31 215 83q-14 -61 -98 -82q-37 -9 -66 -9t-51 8zM164 841q0 124 57 242q59 123 159 192
q32 22 80 36q31 10 51 10q18 0 27 -8q-13 -8 -65 -29q-47 -20 -72 -37q-130 -99 -237 -406zM681 1697q3 -18 3 -35q0 -45 -22 -89q-22 -43 -69 -62q-27 -11 -55 -11q-18 0 -35 4q-47 11 -71 48q-18 28 -18 65q0 19 4 39q12 62 66 97q41 28 90 28q12 0 25 -2q68 -10 82 -82z
M544 1686q10 11 11 11q-1 0 -2 8q-10 4 -20 4q-20 0 -37 -17q-16 -16 -16 -34q0 -11 5 -22q15 2 59 50z" />
    <glyph glyph-name="Ccaron" unicode="&#x10c;" horiz-adv-x="1097" 
d="M650 1391q-29 3 -57 3q-223 0 -359 -192q-134 -188 -134 -471v-13q2 -290 141 -484q138 -194 357 -194q26 0 52 3q123 13 213 104q79 80 109 193q13 52 13 96q0 50 -16 90q-32 81 -116 81h-4q-44 0 -114 -31q-79 -35 -117 -41q-20 -3 -38 -3q-64 0 -108 38
q-49 43 -51 112v6q0 65 45 107q40 37 103 37q19 0 39 -3q37 -5 130 -40q83 -31 128 -32h4q84 0 114 92q13 41 13 90q0 55 -17 120q-33 128 -114 217q-93 103 -216 115zM613 460q122 31 215 83q-14 -61 -98 -82q-37 -9 -66 -9t-51 8zM164 841q0 124 57 242q59 123 159 192
q32 22 80 36q31 10 51 10q18 0 27 -8q-13 -8 -65 -29q-47 -20 -72 -37q-130 -99 -237 -406zM698 1510q-75 -93 -138 -93h-3q-59 1 -139 90q-120 134 -127 142q-47 58 -47 98q0 16 8 30q13 21 39 21q33 0 87 -33q78 -62 178 -132q35 28 82 78q48 49 68 66q52 34 94 34
q6 0 12 -1q41 -5 41 -41q0 -4 -1 -8q-8 -71 -154 -251z" />
    <glyph glyph-name="ccaron" unicode="&#x10d;" horiz-adv-x="1097" 
d="M650 1391q-29 3 -57 3q-223 0 -359 -192q-134 -188 -134 -471v-13q2 -290 141 -484q138 -194 357 -194q26 0 52 3q123 13 213 104q79 80 109 193q13 52 13 96q0 50 -16 90q-32 81 -116 81h-4q-44 0 -114 -31q-79 -35 -117 -41q-20 -3 -38 -3q-64 0 -108 38
q-49 43 -51 112v6q0 65 45 107q40 37 103 37q19 0 39 -3q37 -5 130 -40q83 -31 128 -32h4q84 0 114 92q13 41 13 90q0 55 -17 120q-33 128 -114 217q-93 103 -216 115zM613 460q122 31 215 83q-14 -61 -98 -82q-37 -9 -66 -9t-51 8zM164 841q0 124 57 242q59 123 159 192
q32 22 80 36q31 10 51 10q18 0 27 -8q-13 -8 -65 -29q-47 -20 -72 -37q-130 -99 -237 -406zM698 1510q-75 -93 -138 -93h-3q-59 1 -139 90q-120 134 -127 142q-47 58 -47 98q0 16 8 30q13 21 39 21q33 0 87 -33q78 -62 178 -132q35 28 82 78q48 49 68 66q52 34 94 34
q6 0 12 -1q41 -5 41 -41q0 -4 -1 -8q-8 -71 -154 -251z" />
    <glyph glyph-name="Dcaron" unicode="&#x10e;" horiz-adv-x="1201" 
d="M141 300q17 833 53 975q36 141 220 141q144 0 286 -70q56 -28 110 -67q178 -129 271 -321q74 -156 80 -309v-18q0 -124 -75 -247q-74 -121 -204 -216q-126 -92 -266 -132q-90 -26 -168 -26q-50 0 -95 10q-100 23 -156 83q-57 62 -57 151v9q0 18 1 37zM452 499
q29 -6 59 -6q42 0 87 12q73 20 119 62q40 37 40 75q0 7 -1 14q-11 52 -96 90q-86 39 -132 39q-52 0 -53 -49q-3 -145 -21 -227q-1 -6 -2 -10zM254 1174q13 56 25 79q24 45 54 59q47 23 52 27q-13 9 -31 9q-15 0 -33 -6q-44 -15 -62 -56q-24 -55 -24 -176q7 11 19 64z
M735 476q87 57 87 143q-10 -3 -52 -59q-46 -61 -130 -99q-77 -34 -78 -36q95 0 173 51zM800 1510q-75 -93 -138 -93h-3q-59 1 -139 90q-120 134 -127 142q-47 58 -47 98q0 16 8 30q13 21 39 21q33 0 87 -33q78 -62 178 -132q35 28 82 78q48 49 68 66q52 34 94 34q6 0 12 -1
q41 -5 41 -41q0 -4 -1 -8q-8 -71 -154 -251z" />
    <glyph glyph-name="dcaron" unicode="&#x10f;" horiz-adv-x="1201" 
d="M141 300q17 833 53 975q36 141 220 141q144 0 286 -70q56 -28 110 -67q178 -129 271 -321q74 -156 80 -309v-18q0 -124 -75 -247q-74 -121 -204 -216q-126 -92 -266 -132q-90 -26 -168 -26q-50 0 -95 10q-100 23 -156 83q-57 62 -57 151v9q0 18 1 37zM452 499
q29 -6 59 -6q42 0 87 12q73 20 119 62q40 37 40 75q0 7 -1 14q-11 52 -96 90q-86 39 -132 39q-52 0 -53 -49q-3 -145 -21 -227q-1 -6 -2 -10zM254 1174q13 56 25 79q24 45 54 59q47 23 52 27q-13 9 -31 9q-15 0 -33 -6q-44 -15 -62 -56q-24 -55 -24 -176q7 11 19 64z
M735 476q87 57 87 143q-10 -3 -52 -59q-46 -61 -130 -99q-77 -34 -78 -36q95 0 173 51zM800 1510q-75 -93 -138 -93h-3q-59 1 -139 90q-120 134 -127 142q-47 58 -47 98q0 16 8 30q13 21 39 21q33 0 87 -33q78 -62 178 -132q35 28 82 78q48 49 68 66q52 34 94 34q6 0 12 -1
q41 -5 41 -41q0 -4 -1 -8q-8 -71 -154 -251z" />
    <glyph glyph-name="Dcroat" unicode="&#x110;" horiz-adv-x="1201" 
d="M254 1174q13 56 25 79q24 45 54 59q47 23 52 27q-13 9 -31 9q-15 0 -33 -6q-44 -15 -62 -56q-24 -55 -24 -176q7 11 19 64zM735 476q87 57 87 143q-10 -3 -52 -59q-46 -61 -130 -99q-77 -34 -78 -36q95 0 173 51zM467 598q-5 -51 -13 -89q-1 -6 -2 -10q29 -6 59 -6
q42 0 87 12q73 20 119 62q40 37 40 75q0 7 -1 14q-11 52 -96 90q-86 39 -132 39q-52 0 -53 -49q-1 -31 -2 -60q5 0 8 -1q88 -13 88 -41v-2q-2 -29 -102 -34zM151 682q16 487 43 593q36 141 220 141q144 0 286 -70q56 -28 110 -67q178 -129 271 -321q74 -156 80 -309v-18
q0 -124 -75 -247q-74 -121 -204 -216q-126 -92 -266 -132q-90 -26 -168 -26q-50 0 -95 10q-100 23 -156 83q-57 62 -57 151v9q0 18 1 37q3 160 7 295q-24 0 -42 1q-86 2 -99 9q-34 16 -34 32q0 4 1 7q9 21 70 32q33 5 71 6h36z" />
    <glyph glyph-name="dcroat" unicode="&#x111;" horiz-adv-x="1201" 
d="M254 1174q13 56 25 79q24 45 54 59q47 23 52 27q-13 9 -31 9q-15 0 -33 -6q-44 -15 -62 -56q-24 -55 -24 -176q7 11 19 64zM735 476q87 57 87 143q-10 -3 -52 -59q-46 -61 -130 -99q-77 -34 -78 -36q95 0 173 51zM467 598q-5 -51 -13 -89q-1 -6 -2 -10q29 -6 59 -6
q42 0 87 12q73 20 119 62q40 37 40 75q0 7 -1 14q-11 52 -96 90q-86 39 -132 39q-52 0 -53 -49q-1 -31 -2 -60q5 0 8 -1q88 -13 88 -41v-2q-2 -29 -102 -34zM151 682q16 487 43 593q36 141 220 141q144 0 286 -70q56 -28 110 -67q178 -129 271 -321q74 -156 80 -309v-18
q0 -124 -75 -247q-74 -121 -204 -216q-126 -92 -266 -132q-90 -26 -168 -26q-50 0 -95 10q-100 23 -156 83q-57 62 -57 151v9q0 18 1 37q3 160 7 295q-24 0 -42 1q-86 2 -99 9q-34 16 -34 32q0 4 1 7q9 21 70 32q33 5 71 6h36z" />
    <glyph glyph-name="Emacron" unicode="&#x112;" 
d="M774 742q56 -4 82 -16q42 -18 44 -63v-8q0 -95 -90 -121q-29 -8 -90 -15q-64 -8 -90 -14q-49 -13 -49 -36v-3q4 -24 54 -32q8 -1 23 -1q16 0 38 1q35 1 58 1h19q93 -5 99 -56q3 -26 3 -50q0 -164 -151 -231q-106 -48 -297 -48q-25 0 -51 1q-184 5 -245 279
q-31 137 -31 382v44q1 72 8 141q18 191 94 283q74 91 258 152q61 20 154 20q35 0 74 -3q150 -9 229 -52q58 -32 87 -117q16 -47 16 -93t-16 -92q-35 -97 -93 -130q-35 -20 -85 -20q-32 0 -70 8q-52 12 -85 12q-28 0 -42 -9q-34 -22 -34 -46q0 -16 16 -33q25 -26 163 -35z
M197 960q13 54 26 86q51 118 195 178q6 3 72 26q54 20 63 26q-149 0 -278 -97q-97 -72 -97 -279q9 13 19 60zM374 1471q-34 42 -34 85q0 9 1 17q9 55 70 82q35 16 200 16q165 -1 203 -17q78 -34 78 -106v-6q-2 -80 -108 -91q-66 -12 -176 -12q-23 0 -49 1q-164 2 -185 31z
" />
    <glyph glyph-name="emacron" unicode="&#x113;" 
d="M774 742q56 -4 82 -16q42 -18 44 -63v-8q0 -95 -90 -121q-29 -8 -90 -15q-64 -8 -90 -14q-49 -13 -49 -36v-3q4 -24 54 -32q8 -1 23 -1q16 0 38 1q35 1 58 1h19q93 -5 99 -56q3 -26 3 -50q0 -164 -151 -231q-106 -48 -297 -48q-25 0 -51 1q-184 5 -245 279
q-31 137 -31 382v44q1 72 8 141q18 191 94 283q74 91 258 152q61 20 154 20q35 0 74 -3q150 -9 229 -52q58 -32 87 -117q16 -47 16 -93t-16 -92q-35 -97 -93 -130q-35 -20 -85 -20q-32 0 -70 8q-52 12 -85 12q-28 0 -42 -9q-34 -22 -34 -46q0 -16 16 -33q25 -26 163 -35z
M197 960q13 54 26 86q51 118 195 178q6 3 72 26q54 20 63 26q-149 0 -278 -97q-97 -72 -97 -279q9 13 19 60zM374 1471q-34 42 -34 85q0 9 1 17q9 55 70 82q35 16 200 16q165 -1 203 -17q78 -34 78 -106v-6q-2 -80 -108 -91q-66 -12 -176 -12q-23 0 -49 1q-164 2 -185 31z
" />
    <glyph glyph-name="Ebreve" unicode="&#x114;" 
d="M774 742q56 -4 82 -16q42 -18 44 -63v-8q0 -95 -90 -121q-29 -8 -90 -15q-64 -8 -90 -14q-49 -13 -49 -36v-3q4 -24 54 -32q8 -1 23 -1q16 0 38 1q35 1 58 1h19q93 -5 99 -56q3 -26 3 -50q0 -164 -151 -231q-106 -48 -297 -48q-25 0 -51 1q-184 5 -245 279
q-31 137 -31 382v44q1 72 8 141q18 191 94 283q74 91 258 152q61 20 154 20q35 0 74 -3q150 -9 229 -52q58 -32 87 -117q16 -47 16 -93t-16 -92q-35 -97 -93 -130q-35 -20 -85 -20q-32 0 -70 8q-52 12 -85 12q-28 0 -42 -9q-34 -22 -34 -46q0 -16 16 -33q25 -26 163 -35z
M197 960q13 54 26 86q51 118 195 178q6 3 72 26q54 20 63 26q-149 0 -278 -97q-97 -72 -97 -279q9 13 19 60zM275 1650v11q0 33 19 43q7 4 16 4q20 0 49 -21q69 -91 183 -95h8q115 0 212 95q28 21 48 21q9 0 16 -4q20 -10 20 -46v-8q-9 -100 -103 -160q-85 -54 -200 -55h-3
q-113 0 -188 53q-78 55 -78 147q0 7 1 15z" />
    <glyph glyph-name="ebreve" unicode="&#x115;" 
d="M774 742q56 -4 82 -16q42 -18 44 -63v-8q0 -95 -90 -121q-29 -8 -90 -15q-64 -8 -90 -14q-49 -13 -49 -36v-3q4 -24 54 -32q8 -1 23 -1q16 0 38 1q35 1 58 1h19q93 -5 99 -56q3 -26 3 -50q0 -164 -151 -231q-106 -48 -297 -48q-25 0 -51 1q-184 5 -245 279
q-31 137 -31 382v44q1 72 8 141q18 191 94 283q74 91 258 152q61 20 154 20q35 0 74 -3q150 -9 229 -52q58 -32 87 -117q16 -47 16 -93t-16 -92q-35 -97 -93 -130q-35 -20 -85 -20q-32 0 -70 8q-52 12 -85 12q-28 0 -42 -9q-34 -22 -34 -46q0 -16 16 -33q25 -26 163 -35z
M197 960q13 54 26 86q51 118 195 178q6 3 72 26q54 20 63 26q-149 0 -278 -97q-97 -72 -97 -279q9 13 19 60zM275 1650v11q0 33 19 43q7 4 16 4q20 0 49 -21q69 -91 183 -95h8q115 0 212 95q28 21 48 21q9 0 16 -4q20 -10 20 -46v-8q-9 -100 -103 -160q-85 -54 -200 -55h-3
q-113 0 -188 53q-78 55 -78 147q0 7 1 15z" />
    </font>
</defs>
</svg>
